<svg xmlns="http://www.w3.org/2000/svg" xml:space="preserve" width="320" height="320" style="shape-rendering:geometricPrecision;text-rendering:geometricPrecision;image-rendering:optimizeQuality;fill-rule:evenodd;clip-rule:evenodd" viewBox="0 0 8466.66 8466.66"><defs><style>.fil1{fill:#000}.fil2{fill:#252525}.fil3{fill:#484848}.fil4{fill:#848484}.fil0{fill:#fdfdfd}</style></defs><g id="Camada_x0020_1"><g id="_1750901416480"><path d="M1402.83 6470.63c-20.78 311.7-74.01 494.37 40.03 839.21 89.4 270.31 205.21 418.86 350.03 592.72 43.14 51.79 180.45 164.7 255.61 207.7 383.53 219.46 815.15 178.54 1254.66 147.98l11.43 4.06c149.53-74.73 665.4-85.29 540.79-628.19l1.22-64.82c-7.79-61.2 8.48-27.72-44.87-53.96-45.76-2.67-49.84-53.53-61.24-90.68l1.41-10-48.12-109.68 3.25-17.09-25-42.73 10.03-12-20.12-47.84 5.16-12.26c-20.92-37.03-32.6-96.64-28.32-152.28 35.05-52.28 20.42-18.3 53.74-49.77 28.68-27.08 20.8-37.03 49.38-72.93 1.95-80.74 24.76-112.22 9.6-221.33l-3.98-77.23 39.26-12.95 15.37.43 108.35-28.01c-28.94-187.87-110.51-206.49 85.69-302.74l9.31 1.66c.18-.14 4.33-35.05 78.51-26.64 61.15 6.94 89.68 57.27 120.33 87.31 36.12 35.4 25.04 13.71 51.79 58.99h21.32c19.6-61.91 2.37-22.97 32.86-38.8l-4.89-6.08c0-29.52-7.92-23.09 19.86-23.09l21.9-21.78c14.9-25.3-16.66-11.94 37.92-31.91l9.66 2c15.64-20.57-26.96-14.75 35.21-17.03l59.84.21 34.26 16.82 25.58 5.65c192.24 63.18 62.49 222.47 63.71 264.29.81 27.91 3.92 17.66 11.22 30.95l132.29 14.88c19.21 71.99 32.54 190.73 2.19 252.78v33.02l20.76 64.24c59.47 20.65 175.37 38.62 83.96 193.93l.33 37.76-30.26 79.89 6 9.86-20.95 48.58 3.57 11.24-18.53 39.15 4.17 5.72-17 92.58-24.35 34.56c-4.25 26.37 25.38 20.28-34.73 18.94l-62.72 2.17-14.96 32.38c89.59 88.07 21.64 159.77 2.03 269.87-40.44 227.06 143.51 310.08 343.4 370.43 158.7 47.91 143.21 33.34 254.6 59.43 51.47 12.05-25.14-9.75 25.04 6.7l22.38 10.44 25.67-8.27 150.28 23.23 89.06-1.94 59.84 1.54 233.74.4 155.17-23.16 13.83 8.2c113.16-57.47 527.44-63.53 809.46-492.79l44.28-51.17 1.11-9.49c14.97-68.86-3.64-18.1 28.82-38.19l-1.66-6.68c18.72-37.61 33.35-65.69 56.04-109.29l65.28-121.71-7.72-8.34c24.94-57.84 16.62-68.34 52.59-114.08l-7.03-5.58 22-47.63-.48-12.21 15.42-36.85-3.2-37.93 18.17-48.5-3.78-26.31 18.74-53.76-1.64-65.9c15.79-244.62-22.7-353.57-43.06-566.45-29.15-42.98-18.85-16.92-16.25-80.31 13.3 16.09 1.5-3.46 21.09 30.02 24.49 41.76-19.66-57.46 8.89 23.7l77.14 204.13 29.68-14.96 15.49-12.32 51.39-55.65 13.78-13.25 13.43-17.36 13.62-14.56 12.02-20.3 12.54-14.84 14.49-18.25 50.35-52.14 11.59-18.55 12.38-17.42 12.07-19.89 23.91-19.63 9.08-18.5 12.89-20.78 12.78-15.49 20.37-23.55 12.79-17.84 60.95-87.28 28.09-45.71 29.68-46.92 32.09-54.19 11.6-23.6 14.01-28.39 16.08-28.75 13.5-31.85c62.05-130.53 115.74-264.09 113.67-430.11-1.96-158.58-87.08-313.26-184.94-359.74-31.84 88.02-257.63 487.49-318.33 592.4-110.01 190.17-317.22 458.57-302.45 602.79-111.67-44.5-44.59-190.29-452.68-327.27-146.15-49.04-466.21-134.59-574.53-202.99l-38.18-20.6c-20.51-11.05-17.31-9.56-46.04-15.96l-17.43-13.96c-45.5-13.23-46.01-28.76-102.25-48.67-60.21-21.54-15.22-4.01-36.73-26.13l-8.14-4.4-11.84-8.97c-75.07-27.18-263.65-168.12-327.55-215.76-102.2-76.21-193.3-172.46-286.46-251.68-169.27-143.9-362.39-338.21-628.05-433.89-435.6-156.91-834.09 159.6-1108.52 422.23-84.14 80.51-192.11 161.51-285.2 232.18l-12.42 6.01c0 22.49 4.75 15.07-21.02 15.07l-18.84 10.01-21.21 23.5-19.54 10.9-41.52 32.39-20.73 9.41-47.94 39.52c0 21.61 4.96 15.37-18.15 15.37l-25.26 15.66-21.13 12.67-26.1 16.55c-125.68 86.23-311.42 179.46-476.02 241.07-86.12 32.22-182.84 58.6-268.19 89.91-86.7 31.82-162 73.41-246.57 100.03l-84.04 50-66.13 37.98c-27.74 27.25-53.34 44.22-89.7 74.38l-15.77 12.97-13.66 17.9-12.62 15.84-14.01 16.01-12.61 17.32c0 25.26 5.58 17.49-22.3 17.49l.11 5.54c-19.03 35.39-41.2 77.6-74.43 91.57 15.12-176-23.91-130.36-125.03-311.06L851.34 5180.9c-31.3-42.98-31.83-20.58-46.21-75.21-43.02 1.73-27.62-24.34-99.22 80.37-114.5 167.47-60.62 287.39-50.62 456.56l17.81 44.15c5.3 16.04 3.27 17.31 11.22 37.17 114.45 239 191.4 410.22 355.71 613.18l11.94 15.85c.83-2.18 3.57 10.31 9.19 10.47l10.79-19.27c-114.53-123.11-482.56-758.81-386.5-965.82l-3.38-17.95 18.34-41.91c12.95-60.91 15.25-62.17 58.78-92.71 24.59-17.3-31.85-18.82 30.97-13.66 33.5 51.55 63.18 113.95 97.49 171 38.3 63.67 68.74 111.41 97.56 171.74l-.58 10.13 164.97 273.4c55.95 90.19 99.59 177.82 149.5 269.92l-.35 1.73c30.1 23.07 17.7-32.4 27.56 43.14 12.95 18.82 11.11 13.41 17.31 37.71 24.47 0 16.72-5.3 16.72 22.13l-1.77 9.67 17.26 35.21-1.31 29.91c0 26.91 7.71 21.87-15.95 21.87v8.06l-88.97 243.52-34.05-19.15-11.6 25.23c27.91 0 21.48-7.28 21.48 19.65l-6.52 12.59 51.25 60.94c1.84 2.08 5.62 5.95 8.59 8.78 2.42-3.41 6.02-12.77 7.01-10.43.98 2.28 5.41-7.72 6.66-10.22l59.42-168.51 30.99-9.51zm2129.75 679.87 15.78 15.73 12.97 34.27 64.01 173.62 26.97 96.16c11.84 31.16 17.07 65.81 16.59 103.85-.28 22.68-1.87 36.34-7.08 58.34-8.46 35.74-7.16 23.6-14.63 36.85l1.1 24.57c-37.3 91.15-65.99 124.75-133.52 168.13-74.68 47.95-120.73 74.18-211.61 105.52l-11.19-4.4c-14.52 20.78 25.64 14.51-33.69 17.34l-18-2.39-71.75 19.65-7.83-4.69-37.04 23.57-75.37-8.6c-53.76 27.88-242.22 28.74-298.19 0l-45.28 1.02-47.9-15.99-11.94 4.76-74.03-19.72-15.72 3.55c-63.9-3.51-19.65 3.46-35.92-18.5l-23.9.99c-20.07-4.8-15.07-.03-34.84-9.54-50.2-24.06-11.4-5.44-33.71-21.37l-6.26 2.7-30.17-17.65-14.7 1.48-57.03-31.41-2.79 5.19c-52.54-27.84-54.03-31.73-103.09-65.77-57.33-39.79-72.63-22.14-99.84-88.99l-6.5-8.71c-22.05-17.4-5.72 3.25-33.36-33.32-12.91-17.09-18.25-28.37-29.01-47.72l2.55-8.76c-2.99-2.83-8.08-10.74-9.17-8.31-1.08 2.41-6.86-6.73-8.18-8.97-11.27-19.21-7.46-9.77-14.91-33.8l2.33-9.65c-22.72 0-15.64 4.97-15.64-20.26l.69-17.93c-28.44-40.27-31.43-102.9-30.54-161.57l-.34-29.93c2.58-65.74 10.53-137.78 45.83-181.97l-1.29-12.47c29.29-62.86 53.46-101.11 94.11-131.45l14.67-15.19c0-21.8-5-15.5 18.3-15.5l13.5-11.96 24.26-24.01 48.7-27.28 28.86-17.13 73.26-29.03c243.12-128 512.33-14.38 626.84 137.73l52.7 37.35 15.42 14.31c88.23 40.48 129.49 86.27 237.86 28.38 132.34-70.73 246.47-420.57 330.87-596.72 151.87-316.91 204.67-569.34 599.75-627.11 187.73-27.46 366.44 33.65 473.61 122.06 111.62 92.08 334.79 640.24 418.11 808.79 73.64 148.94 116.32 304.81 312.23 298.47l69.84-31.87c32.7-18.37 54.15-33.76 93.29-57.24l18.19-10.13 17.67-14.08 15.42-11.55c0-21.13-5.28-15.83 15.9-15.83l14.26-13.25c0-21.22-5.26-15.85 16.06-15.85l58.85-48.11 28.8-17.31 63.3-29.98 50.95-16.77 11.36 1.17 47.7-17.19c9.95-1.5 49.35-2.69 60.75-2.62 47.66.32 70.63-.12 102.98 19.81l16.53-8.06c13.66 3.36 40.9 8.46 53.27 13.38 47.37 18.81 28.37 15.35 40.69 24.59l10.76.76c22.98 6.38 31.87 7.22 54.15 18.44 73.71 37.1 18.6 1.15 50.07 40.64l.49-3.41c26.54 0 20.55-7 20.55 18.37l9.36.21c85.14 36.57 143.04 105.72 178.05 209.2l1.45 10.41 13.99 19.5.98 16.7 18.72 28.18-3.78 30 17.92 29.84.42 149.59-18.34 31.64 6.35 28.18-36.26 67.15 5.27 7.65c-7.35 18.04-14.54 38.69-23.71 55.07-2.32 4.13-8.78 16.18-11.68 19.95-24.15 31.11 3.25 2.22-29.72 26.97l-4.68 2.71c-22.42 46.09-32.24 55.08-71.98 88.28l-104.29 75.85c-91.16 54.09-151.95 72.64-252.83 110.08l-18.41-4.96-86.31 30.17-39.76-.25c-20.09 16.28-.18 15.55-49.99 16.77l-32.45-1.82-161.99 20.88-44.88 3.87-160.93-24.75-33.53 2.97-42.65-17.92-17.19 7.48c-12.83-2.86-44.33-7.86-54.77-10.78-8.83-2.46-12.44-2.47-23.32-6.98-46.06-19.11-13.37-6.55-31.8-19.64l-9.77 8.32c-30.69-10.59-51.78-18.39-81.85-29.6-21.54-8.02-25.53-6.32-43.04-17.19-45.56-28.26-16.8-10.91-38.67-36.32l-.97 2.54c-55.78-36.85-88.64-70.7-130.04-137.16-1-21.38 2.37-9.58-4.59-39.4-56.89-83.53-31.92-268.53 0-321.65l-1.31-27.86 31.22-76.66-1.09-13.09 31-62.53 4.24-12.28 11.13-13.07c0-22.95-4.73-15.12 22.03-15.12 39.31-31.2 90.76-15.66 147.53-14.62-23.84-61.44-66.59-116.78-97.6-179.51-114.8-232.24-237.98-734.34-434.24-896.12-81.47-67.14-249.25-135.3-385.27-133.34-376.09 5.48-570.78 546.59-709.77 871.85-26.32 61.59-55.38 120.91-85.4 183.67-30.25 63.21-72.88 112.7-94.56 167.29 34.77.16 66.22-4.31 97.53-4.24 21.52.03 20.31-.62 42.13 2.45 34.3 4.83 22.83 4.4 36.36 10.92zm-79.85-1771.62-15.13 26.4-59.66 83.33c-22.56 22.51-4.45-7.58-18.5 36.33-22.79 70.95 2.41 10.24-26.37 38.39l1.48 6.48c0 25.58 7.03 20.3-16.45 20.3l-.4 9.63-14.54 19.65.07 10.26c0 25.37 7.27 20.64-15.04 20.64l.07 9.27c0 23.36 6.43 18.55-15.03 18.55l1.25 11.38c-14.73 41.13-32.97 78.9-46.23 117.52l-44.77 114.01 4.96 7.79-30.16 166.16c-19.31 87.12 23.82-78.34-7.31 27.26l-12.37 25.78v276.56l47.99 297.02-3.11 15.39 33.23 104.29-3.3 11.57 14.46 18.34.48 32.99 15.28 64.55-39.78-22.75-20.37-.9-15.85-14.05c-17.24-11.13-11.06-4.8-29.03-11.31-62.36-26.14-216.3-96.92-262.07-153.24l-7.18 3.46c-134.41-57.08-236.86-90.01-400.41-100.67-166.74-10.84-264.18 52.37-377.41 118.3l-5.95-6.13c-16.11 29.05-2.28 10.66-20.57 32.56l-93.15 81.04 1.73 6.06c-17.69 32.51-33.8 56.27-54.63 95.71-12.99 24.57-12.92 26.5-23.66 50.86-16.11 36.54-8.46 25.18-28.14 51.89l4.06 10.97-19.78 269.25c2.72 64.11 10.97 47.97 15.72 104.01l17.3 30.62-2.35 13.02 17.38 31.85-2.42 9.17 14.06 20.74.9 11.59 27.37 48.25 2.54 17.31c34.17 46.56 63.64 99.98 106.98 144.98 31.29 32.49 94.17 102.45 102.08 152.29-154.94-5.44-364.79-227-412.12-329.54l-6.35-14.07-29.98-45.77.07-8.68c-2.82-3.14-7.33-11.91-8.6-9.29-1.22 2.53-6.57-6.91-8.18-9.08-47.08-63.11 31.54 52.42-13.66-18.66l-63.58-133.79 4.27-6.61c-10.03-11.18-12.58-10.16-24.02-29.47-5.3-8.92-10.53-21.36-14.7-31.13-10.94-25.6-20.27-54.56-29.52-82.36l8.4-6.08c-24.22 0-15.72 4.89-15.72-23.85l.76-12.74c-42.08-59.66-60.44-167.47-64.71-256.51l4.89-16.24c-42.14-85.6-10.41-305.08 20.4-397.05 37.74-112.65 96.31-210.88 167.21-266.65 171.97-135.28 399.56-162.24 630.53-251.73 210.34-81.46 410.12-194.09 579.23-303.59l502.32-354.44c36.24-22.58 33.37-23.43 64.84-40.74 32.53-43.92 44.93-54.14 100.12-59.01l-90.17 122.36z" class="fil0"/><path d="M3749.93 3819.69c-2.5 6.04-9.05 23.73-12.64 29.12-4.91 7.36-16.96 23.19-18.64 20.28-1.74-3.06-7.73 6.92-11.62 10.37-45.88 24.33-18.11 5.99-34.95 44.94-13.34 28.01-13.76 24.31-31.43 51.65-10.81 16.74-8.92 17.77-16.8 28.76-27.72 38.65.27 10.86-36.5 37.95l1.08 1.31c-6.98 10.52-19.17 31.83-22.47 36.96-2.34 3.62-8.87 15.33-11.65 18.85-21.14 26.76.96 4.13-26.78 25.47l-1.24 8.46c-10.84 19.1-14.08 21.35-28.25 43.18-3.72 5.76-16.43 27.42-17.74 29.21l-17.31 20.99c-2.42 2.95-6.75 7.17-10.26 10.61l.74.73c-20.39 42.19-144.33 231.49-180.24 254.21l2.21.07c-25.43 71.8-248.78 345.15-295.22 423.45-29.97 50.53 3.83 29.17-51.03 67.49l3.11 2.69-161.57 244.94c-129.71 163.53-160.04 294.33-350.13 340.3l-134.62 4.47c-81.99-50.49-110.69-172.5-150.26-260.62l.69-9.93-29.93-49.91v-8.13c-7.77-9.1-12.91-13.87-23.06-29.31-96.39-147.06-123.79-114.41-163.12-231.81l3.16-59.82 48.7-99.75 16.85-17.53c-2.91-24.77-9.31-21.11 13.9-16.38l14.72-14.89c-3.8-23.62-7.54-17.08 17.51-12.79l97.1-82.12c222.52-81.48 486.45-184.23 690.9-296.54 110.43-60.67 212.5-123.57 308.4-185.14 102.47-65.81 195.38-145.51 291.28-198.28l1.8-4.01c21.32-26.43-1.06-7.84 28.64-28.92 10.72-7.62 24.45-12.07 39.73-22.35 27.58-18.55 32.45-30.09 64.45-48.34 36.39-32.4 51.08-36.02 86.09-68.76 37.65-35.19 48.43-41.71 84.81-70.95 0-25.37-5.38-17.05 23.56-17.05l14.95 4.86c2.86 3.43 6.11 8.83 6.78 11.52.57 2.26 2.43 8.69 2.81 10.92 3.91 22.52 9.67 19.41-9.59 19.41l-16.92 30.16zm-2015.4-564.75 6.96 11.31c25.85 33.67 25.51 30.51 35.92 73.97l13.23 15.78 1.72 14.54 29.43 45.28.49 16.04 77.67 148.51-2.88 10.48c22.65 0 15.92-5.13 15.92 19.43l-.96 9.1 14.33 20.81.62 11.8 14.75 18.13.21 11.57 14 18.34.97 12.4c21.22 0 15.23-4.94 15.23 17.51l-.28 13.73c134.87 177.47 81.23 380.09 401.43 313.52 243.46-50.61 420.43-208.88 529.1-223.82-16.78 85.65-108.51 105.26-157.79 145.11-56.28 45.53-113.38 87.55-171.69 127.42l-62.56 46.09-6.13-3.21c-2.54 3.48-6.22 4.57-7.75 10.35-.06.16-280.49 238.03-370.79 199.06l-19.2 3.18c-66.62-15.64-115.3-56.85-147.42-111.23-33.28-56.34-69.2-112.86-93.9-176.15l2-6.9c-28.39-29.28 2.63 30.05-29.56-39.14-4.26-9.11-14.11-46.94-17.45-58.67l2.13-13.16-33.16-106.5 3.24-7c-8.63-14.59-2.64 7.53-17.76-36.25-1.63-4.74-7.24-31.09-8.29-36.25-5.63-27.72-7.65-42.18-10.77-70.09l6.91-10.55c-6.03-11.22-5.62-3.46-14.72-34.54-1.38-4.68-4.22-19.64-5.23-24.66-4.35-21.73-6.17-42.63-9.21-64.87l-.76-56.63-17.59-33.12 2.63-43.39-20.46-76.27 5.51-52.14c-1.48-3.02-15.88-2.17-17.56-52.7-3.27-97.19-.17-22 17.56-48.13 31.88 32.58 18.24 16.4 31.91 51.91zm2246.64-224.11-12.89 16.48c0 21.75 4.75 14.97-19.44 14.97l-19.17 8.41c0 21.36 4.83 15.01-18.34 15.01l-62.38 54.95-25.09 18.89-51.36 24.94-26.25 17.99-30.81 13.94-53.29 24.32-5.72-4.41-40.42 30.46c-.44.28-26.17 14.15-28.82 15.53l-408.8 233.57c-78.99 49.21-395.57 265.93-458.61 286.44l-7.1 2.42-64.04 49.15c-84.61 51.03-82.81 73.27-228.04 120.42l-11.02-5.03-33.85 16.68-44.88.05c-129.09-10.72-186.33-60.07-235.04-140.74-129.06-213.75-242.75-673.26-208.65-872.74l114.62-10.87 8.78 5.41c13.38-7.32 4.42-5.76 35.89-14.52 6.22-1.74 20.68-1.58 30.12-1.84l17.08 1.41c61.86-29.56 301.07-41.11 386.79-40.81l67.28-4.06 228.51-24.4 212.8-13.66 167.33-6.82 176.71-23.51 98.88 8.55c51.91-24.95 113.03-15.81 182.68-22.6l47.52-5.62 110.19-1.69c47.35-26.96 120.5-28.62 167.67 0 44.41 16.53 29.38 11.46 51.21 46.76l20.23 28.02.04 74.79-30.32 63.76zm533.61-117.93c23.53-54.49 10.69-45.46 57.36-80.46 0-22.88-4.56-14.62 23.09-14.62l39.21-22.2 134.62.41 132.4 21.47h62.07l276.42 29.91 22.74-1.17c56.5 2.46 65.08-4.98 107.94 16.13l131.39-.62 276.48 30.53 7.72-5.47c65.92 4.43 119.78-3.15 169.13 20.44l130.05 1.52 547.38 49.46c75.25 203.57-48.19 464.53-108.83 641.5-40 116.75-182.02 467.11-357.3 384.51l-21.43.55c-43.16-6.43-60.3-13.18-101.76-32.47-8.06-3.75-34.65-16.38-39.91-19.43l-49.76-38.4-3.02 4.4c-29.15 0-22.89 7.88-22.89-19.36l-7.04-.48-21.28-14.48c-25-17.67-27.64-16.31-53.5-26.63-10.02-5.41-38.02-18.07-42.28-20.83-6.52-4.22-16.48-5-20.35-17.08-2-6.26-6.57-6.79-9.79-10.25l-2.37 2.72c-45.83-15.69-18.23-6.43-57.43-33.25-6.59-4.52-25.76-16.16-27.85-17.72-27.05-20.37-5.86-1.04-26.74-26.54l-7.65-.58c-11.12-6.77-28.08-15-45.85-27.03l-28.02-22.68c-1.7-5.8-6.17-6.29-9.15-9.54l-6.73-1.56-262.84-177.94-6.41-3.2c-85.99-37.39-118.46-74.19-173.64-104.96l-62.08-41.43-3.6.42c-28.64-9.26-9.79 4.74-43.47-17.22-28.56-18.63-7.13-5.22-26.66-28.08l-4.68 1.66c-27.45 0-22.19 7.79-22.19-16.6l-7.72.56-227.01-120.24-12.33-.66c-64.02-20.21-65.67-19.57-107.01-59.16l-12.65.74c-58.09-26.59-45.07-32.77-82.66-90.49l7.88-8.08c-15.96-25.86-18.54 39.59-15.96-48.85 1.2-40.74 5.04-21.34 15.96-27.17zm-2928.65-75.92-33.1 10.3-11 .13-18.91 14.22-15.14.74c71.56 551.34-93.37 1300.15-35.19 1649.67 25.16 151.17 101.85 346.27 207.93 363.34 52.29-128.26-41.65-180.49-83.69-292.82l.88-10.54c-6.54-10.11-4.52 2.22-18.13-31.36-5.28-13.04-11-34.19-14.34-47.62-9.91-39.92-9.91-48.07-11.17-89.98l.41-149.57 13.32-19.98-4.49-24.89 19.44-66.45-3.04-68.18 18-49.64v-25.16l14.96-51.29-9.45-8.53 24.4-116.99-.18-17.64c3.77-38.19 9.08-65.75 15.06-104.71 7.72-50.23 3.9-55.79 32.13-87.84l53.82 267.34 3.88 42.98 19.47 31.81-4.5 27.17 18.87 47.63-3.92 9.93c21.88 0 14.87-4.7 14.87 19.98l.09 29.68c69.2 101.68 127.42 348.49 389.37 317.73 159.89-18.78 367.85-181.92 520.85-203.95-30.46 60.19-114.2 74.18-225.01 123.67-83.71 37.38-161.76 73.65-247.49 110.54l-356.43 167.33c-75.58 42.93-45.25 37.7-96.25 82.54l-2.35 15.67c-72.97 234.98 22.72 409.12 124.53 565.66l153.6 220.09c47.79 81.38 97.6 161.45 125.74 261.85 266.92-15.46 591.2-306.33 660.51-342.69l129.87-121.53c24.77-48.52-1.93-20.32 49.63-51.24l10.32-8.6c0-28.36-7.48-21.96 19.61-21.96l22.96-22.92c31.89-61.43 557.99-593 609.01-639.06 199.61-180.15 473.87-417.6 881.23-245.72 371.51 156.77 656.99 652.83 951.72 917.34l347.41 281.57c37.56 20.01 52.54 21.53 89.57 52.87 82.63 56.22 286.05 155.07 403.87 186.38 1.86-2.42 160.9-279.32 293.63-454.21 110.26-145.3 194.38-348.68 135.69-577.83-6.24-20.32 1.04-10.02-10.48-33.21l-76.06-68.36c-2.61-2.24-6.13-4.98-8.72-7.24-2.74-2.4-6.45-5.73-8.98-8l-18.44-17.81-7.48.33-184.32-90.08-10.12.76c-28.18 0-23.27 8.27-23.27-15.73l-6.66 4.83c-130.63-40.34-630.48-261.07-719.34-331.72-30.51-24.28-21.13-10.34-32.33-51.12 77.61 16.88 220.7 92.93 298.8 128.23 101.64 45.94 195.6 89.86 295.63 137.83 305.29 146.37 391.91-136.04 486.33-278.02l-1.15-28.86c0-24.19-6.54-18.98 16.11-18.98 8.46-31.71 11.89-31.04 12.9-70.77l17.01-31.81c1.26-53.72 12.05-64.36 19.08-117.77l28.48-140.11 5.64-48.13c36.41 0 30.39-9.05 20.33 25.44l15.21 48.66 10.43 84.22 5.53 54.06 22.1 35.69c-9.42 56.35 7.83 72.93 7.83 135.04l18.07 44.46-3.13 45.56c44.49 79.96 60.99 314.51 14.97 391.33l2.96 26.82-17.93 34.26 6.35 10.61-21.29 30.9.99 13.98-60.83 88.85-19.49 30.81-6.24 159.94c246.06-76.96 239.91-602.35 217.51-889.42-28.64-366.92-60.89-679.24-53.41-1053.33l-7.05-83.7c-3.64-1.35-30.12-10.07-31.63-10.73-10.81-4.77-16.55 8.73-25.76-13.9-2.79-6.87-9.39-5.62-14.02-8.55l-.07-1.06-42.83-9.14c-207.47-27.08-411.43-74.66-635.88-105.63-1328.7-183.3-2731.17-195.68-4059.23 14.93-99.4 15.76-200.24 35.6-302.45 56.13-98.49 19.77-200.1 52.93-296.54 64.25zM3756.74 394.25l-109.55 20.39-61.41-5.42-118.09 20.81-3.02-5.87c-21.27 23.25 34.15 12.58-41.85 20.75l-98.52-5.78c-11.25 6.64-2.89 6.71-36.02 16.66-9.06 2.72-34.7 4.47-44.96 5.46l-12.07-7.16-137.52 30.21-26.06-.3-366.53 101.82c-111.95 33.28-212.34 78-319.1 129.55-346.14 167.19-422.53 364.25-499.93 411.62l3.78.23-123.44 228.95 6.74 10.37-36.66 79.13 4.37 25.58-19.33 33.94 3.04 10.94-32.95 118.49 4.36 16.13-19.32 55.32 3.99 19.47-33.91 141.58 2.83 37.92-.25 29.91 9.62 14.96c17.7-38.89 36.39-123.16 51.78-175.63l70.65-176.18-5.35-7.19c19.91-56.18 65.08-159.34 110.05-201.99l.42-7.42c16.89-38.39 23.04-42.33 45.3-73.67 12.17-17.16 16.2-27.16 23.55-36.52 33.2-42.26 5.92-12.79 35.44-33.02l14.13-21.32c118.34-194.29 570.57-485.06 928.24-525.73l11.1 2.17 428.69-63.21c-25.63 61.96-53.49 63.9-110.7 91.34l-5.53 1.8c-13.23 14.26-8.89 12.85-26.52 27.33-3.53 2.88-14.47 10.52-18.12 12.85-13.01 8.28-25.18 11.99-39.58 17.93l-3.78 1.71-56.06 39.79-12.24 5.09-32.63 25.32-10.44 4.61c-24.86 31.29 11.51-4.58-22.53 27.8-3.15 2.99-13 11.29-16.45 13.7-18.21 12.68-21.02 10.46-40.33 17.33l-5.66.99c-42.26 56.46-47.56 46.87-93.74 79.87-10.88 7.78-23.87 20.21-33.09 27.28-24.79 19.01-38.76 22.51-62.52 42.28l-684.47 676.02c-18.2 21.57-8.37 18.05-23.55 36.23-29.12 34.84-7.44 12.78-39.35 32.78l-.33 3.04-119.33 159.44c-16.66 9.37-4.48 1.5-11.73 20.05-20.37 66.13-.33 21.36-33.14 39.3l-2.35 5.58c-83.23 166.25-231.28 274.81-219.55 403.64 123.67 4.05 461.82-71.16 609.71-91.18 1344.31-181.88 2673.61-175.82 4021.15-8.28 190.03 23.62 448.21 77.66 631.97 85.86l.9-31.04-14.27-179.5-1.59-93.76-17.53-40.87 2.58-88.26-24.17-106.2 9.21-7.56-24.68-52.26 9.71-45.53-16.27-44.22 1.33-56.39-18.62-48.32 3.65-10.76-15.12-34.12.18-39.57-17.11-35.21 2.14-14.63-28.85-75.12-1.06-25.16-19.1-34.68 4.14-8.7-25.99-51.12-3.92-22.14c-24.12 0-16.08 5.03-16.08-22.74l1.11-7.49c-2.74-3.27-7.35-12.16-8.43-9.68-1.07 2.42-6.32-7.56-7.65-9.9-12.5-22.2-5.38-5.44-14.99-32.77l1.16-7.4-59.68-97.31-.16-3.36c-117.98-97.29-36.09-87.05-177.47-207.38L6218.2 733.43c-2.68-2.33-6.55-6.8-9.94-10.09l-3.2-.56-80.18-44.31-9.57 1.57c-16.06-5.58-41.27-13.04-55.26-19.73-35.64-17.04-27.04-16.44-39.31-26.72l-10.15 2.4c-19.46-4.94-17.08-2.01-36.3-10.79-19.86-9.05-19.51-13.46-28.98-21.54l-9.5 4.21-32.54-19.15-12.34 4.84-31.73-19.81-13.14 1.31-73.55-31.22-16.2 7.56-42.65-22.52-17.19.28-32.26-15.25-12.61 3.87-35.98-18.81-23.85 1.85L5544.2 484l-27.23 2.9-117.8-32.81-16.82 3.92c-31.45-2.31 1.62 3.66-29.56-5.17-3.36-.96-9.49-.73-11.94-5.99-2.39-5.11-7-5.07-10.41-7.72l-67.75-1.73-151.52-28.18-87.82 1.89c-12.95-.73-32.74-1.04-45.16-3.25-44.65-7.94-26.22-8.47-36.94-13.61-149.73 0-257.43-21.25-396.56-12.54l-314.13-.35c-174.39-9.35-304.14 12.89-473.82 12.89z" class="fil0"/><path d="M1586.13 2836.98c-54.91-9.15-22.16-7.58-33.1 10.3l33.1-10.3c96.44-11.32 198.05-44.48 296.54-64.25 102.21-20.53 203.05-40.37 302.45-56.13 1328.06-210.61 2730.53-198.23 4059.23-14.93 224.45 30.97 428.41 78.55 635.88 105.63l42.83 9.14c-13.01-11.19 22.68-19.88-42.83-9.14-13.48-283.5 1.36-97.8-36.71-269.28-5.3-23.94-10.21-52.67-10.21-94.49l74.78-13.83c-183.76-8.2-441.94-62.24-631.97-85.86-1347.54-167.54-2676.84-173.6-4021.15 8.28-147.89 20.02-486.04 95.23-609.71 91.18-11.73-128.83 136.32-237.39 219.55-403.64l-212.24 294.14c-6.38 11.24-7.61 8.78-15.46 31.08-34.48 97.91 11.47 70.19 50.55 123.53-16.52 70.93-49.54 72.95-58.25 166.12-6.93 73.82 13.11 98.98-14.93 149.7l-20.62 25.12c-1.46 1.7-5.51 4.77-7.73 7.63zM3056.87 5180.9c39.88-19.1-3.53-6.75 38.13-13.18 15.83-2.44 27.75-1.82 43.6-1.78v143.58c93.09-70.67 201.06-151.67 285.2-232.18 274.43-262.63 672.92-579.14 1108.52-422.23 265.66 95.68 458.78 289.99 628.05 433.89 93.16 79.22 184.26 175.47 286.46 251.68 63.9 47.64 252.48 188.58 327.55 215.76l11.84 8.97-11.84-8.97-3.74-61.4 75.6-.01-347.41-281.57c-294.73-264.51-580.21-760.57-951.72-917.34-407.36-171.88-681.62 65.57-881.23 245.72-51.02 46.06-577.12 577.63-609.01 639.06zM6769.3 5794.19c30.74-133.37 85.3-107.35 176.74-53.22 67.65 40.04 140.83 82.23 198.16 128.02l-67.9 106.99c-59.91-20.3-102.45-58.28-156-88.94-59.52-34.09-101.68-50.44-151-92.85zm97.22-179.5c22.7-47.69 52.44-99.81 87.98-143.52l298.86 169.61c3.57 78.74-28.71 111.39-63.47 148.76-86.31-.51-263.04-119.56-323.37-174.85zm121.13-194.45c11.94-45.9 49.78-107.45 84.98-138.14 112.34 36.96 225.94 127.63 312.37 177.84-22.75 60.67-47.68 72.52-69.32 146.32-50.76-10.53-282.75-148.92-328.03-186.02zm139.76-209.43c3.73-68.44 26.52-79.98 43.41-126.2 113.6 38.75 208.6 137.84 324.36 181.92-17.67 53.45-43.68 89.74-78.5 126.31-108.18-44.86-210.91-102.21-289.27-182.03zm122.6-254.53c19.75-59.73 35.26-19.63 38.69-17.24l289.87 168.67-50.46 103.91c-80.87-36-226.43-119.25-303.86-180.31l25.76-75.03zm45.24-74.54 39.03-71.78c1.57-2.14 5-6.13 7.6-9.1 254.97 116.22 203.24 114.36 289.35 220.63-97.42 28.81-179.66-53.53-297.62-116.3-3.04-1.63-7.14-3.63-10.02-5.23l-28.34-18.22zm-844.63 882.53c43.16-184.51 218.05-442.93 314.6-591.51l367.25-541.17c31.78 13.06 127.43 93.34 137.82 124.54 13.04 39.22-55.71 145.91-78.34 185.11-58.56 101.41-486.38 836.66-539.47 867.01-39.47 22.54-163.17-18.16-201.86-43.98zm550.97-2829.89c-7.48 374.09 24.77 686.41 53.41 1053.33 22.4 287.07 28.55 812.46-217.51 889.42l6.24-159.94-37.93 32.56-36.8-47.51c58.69 229.15-25.43 432.53-135.69 577.83-132.73 174.89-291.77 451.79-293.63 454.21-117.82-31.31-321.24-130.16-403.87-186.38 61.36 82.21 155.52 48.18 164.53 156.54-34.01-16.86-16.57-12.5-65.35-9.31-13.12-25.46 39.05-20.6-38.18-20.6l38.18 20.6c108.32 68.4 428.38 153.95 574.53 202.99 408.09 136.98 341.01 282.77 452.68 327.27-14.77-144.22 192.44-412.62 302.45-602.79 60.7-104.91 286.49-504.38 318.33-592.4 97.86 46.48 182.98 201.16 184.94 359.74 2.07 166.02-51.62 299.58-113.67 430.11l-13.5 31.85-16.08 28.75-14.01 28.39-11.6 23.6-32.09 54.19-29.68 46.92-28.09 45.71-60.95 87.28-12.79 17.84-20.37 23.55-12.78 15.49-12.89 20.78-9.08 18.5-23.91 19.63-12.07 19.89-12.38 17.42-11.59 18.55-50.35 52.14-14.49 18.25-12.54 14.84-12.02 20.3-13.62 14.56-13.43 17.36-13.78 13.25-51.39 55.65-15.49 12.32 15.49-12.32 51.39-55.65 13.78-13.25 13.43-17.36 13.62-14.56 12.02-20.3 12.54-14.84c21.96-1.75 16.8 4.06 14.49-18.25 37.59-20.37 27.75-4.95 50.35-52.14l11.59-18.55 12.38-17.42c24.67.51 18.5 5.51 12.07-19.89 29.03-5.48 14.75 25.9 23.91-19.63l9.08-18.5c23.81-2.05 18.14 3.91 12.89-20.78 26.15 5.98 20.96 10.3 12.78-15.49 26.71-5.27 22.29 25.6 20.37-23.55 21.43-2 16.8 3.67 12.79-17.84 33.71-19.85 51.69-43.32 60.95-87.28 32.07-21.91 23.2-3.75 28.09-45.71 35.44-21.37 25.04-1.37 29.68-46.92 20.16-17.3 7.79 4.96 23-23.36 13.54-25.17 3.91-4.82 9.09-30.83 23.67-5.4 18.18 1.52 11.6-23.6 24.35-5.14 25.78 24.12 14.01-28.39 25.62-7.03 25.94 22.79 16.08-28.75 24.58-8.56 25.58 20.59 13.5-31.85l100.72-51.38c41.34-20.98 54.61-31.39 73-73.65l8.13-21.96c27.06 2.08 20.77 7.14 12.67-19.91 25.95-3.24 26.25 26.5 16.36-26.03 24.46-8.02 23.33 23.02 17.2-24.98 21.52-13.94 19.9 15.89 15.78-29.86 19.49-21.46 18.29 27.78 16.13-40.35l15.72-36.25-15.72 36.25-16.13 40.35-15.78 29.86-17.2 24.98-16.36 26.03-12.67 19.91-8.13 21.96c-31.46 25.14-12.15 11.57-50.35 26.78 19.26-127.2 77.29-264.97 67.97-421.93-22.04-369.77-664.42-515.49-752.4-716.12 84.98-53.39 168.81-79.54 298.28-78.5-20.55-11.99-37.94-16.87-59.84-27.38v-104.95l-18.06 48.75c-2.6 8.27-13.02 52.12-13.55 53.6l-71.62 4.45-166.61 11.15c-44.84-220.47-134.67-1369.09-63.24-1551.42 21.3-26.09 136.78-16.92 168.54-16.78-44.11-28.87-141.8-15.42-194.46-15.42-14.95-56.04-31.8-43.91-76.36-74.81l-1.73 18.24c16.29 13.62 16.57-26.58 20.58 42.22 4.28 73.62-4.59 22.51-13.53 41.48z" class="fil1"/><path d="m7328.4 4479.72 85.17-58.05 18.06-48.75-7.16-14.73 22.12-80.37c1.77-67.59 17.33-94.94 13.32-188.88 3.62-53.41-3.2-39.95 16.59-77.17l-6.54-12.58-1.52-463.69 8.06-8.56c-6.02-12.13-5.23-4.68-13.5-36.07-.76-2.88-1.9-23.62-2.19-30.18l.74-85.23-15.95-34.43.99-59.96-21.36-74.66 6.4-10.94-21.12-48.9 6.17-20.05-16.85-39.77 1.89-18.84-22.94-70.91 7.97-9.93-16.61-34.95c-22.01-45.17-34.48-30.28-103.05-29.45-31.76-.14-147.24-9.31-168.54 16.78-71.43 182.33 18.4 1330.95 63.24 1551.42l166.61-11.15z" class="fil0"/><path d="M2136.41 5779.24c0-25.32 43.87-20.99 18.92 0-12.19 10.25-18.92 24.5-18.92 0zM1242.62 4760.3c33.29-37 99.63-79.84 151.06-105.76 21.82 50.65 140.22 203.05 186.03 259.8 63.52 78.69 126.16 176.05 183.18 266.83l173.79 274.37c39.52 70.56 132.01 231.14 148.56 305.33-174.65 143.29-238.36 43.49-304.09-59.7-68.01-106.84-129.69-198.67-193.06-300.81-216.16-348.25-186.94-314.9-345.47-640.06zm-48.58-1827.49 237.09 6.59c40.71 248.07 11.34 1371.14-75.31 1564.67-101.87 2.56-191.78-17.79-251.53-61.41l-3.89 65.12c70.62 47.28 134.54 39.56 223.37 65.95-26.88 29.56-41.87 49.49-75.83 78.11-29.29 24.68-65.32 52.43-89.52 75.14l-19.4 22.66-22.42 8.61-14.91 14.66-20.48 11.18-15.54 13.91c-94.22 63.16-307.03 245.2-365.61 323.15-188.48 250.79-107.28 336.01-77.79 523.61 25.02 0 17.63-4.62 9.86 22.2 50.14-6.43-.5 7.02 23.16-24.34-10-169.17-63.88-289.09 50.62-456.56 71.6-104.71 56.2-78.64 99.22-80.37-45-106.96 237.67-199.21 260.54-307.69 30.86 11.66 26.62 17.28 15.54-13.91 28.36 9.7 24.33 17.14 20.48-11.18 23.87 5.6 18.37 9.91 14.91-14.66l22.42-8.61c45.44-5.99 14.79 4.83 19.4-22.66 72.81 14.34 36.78-11.24 70.53 46.02l163.68 358.87c34.37 57.88 70.04 69.14 85.62 123.82-27.38 37.36-75.1 40.33-124.33 75.03-44.3-.55-13.86-4.82-25.14 17.49-59.91 8.62-63.42 14.36-89.23 60.42l-14.86 7.9 14.86-7.9c35.83-23.02 61.55-37.19 89.23-60.42l25.14-17.49c121.82-33.16 139.58-17.05 173.69 89.52-13.96 23.74-13.62 27.53-26.92 44.87 21.25 41.45 19.17 30.5 40.51 59.83 0-67.19 43.28-7.32 48.28-2.11 56.8 23.62 55.32 57.76 69.03 127.54l-49.56 28.68c-7.98 5.65-6.62 7.88-29.93 20.69-18.64 10.24-26 11.94-42.91 19.17-60.28 30.97-126.89 60.45-169.04 105.2 101.07 32.6 213.74-164.55 365.46-164.55 29.47 44.01 69.21 144.54 142.33 171.66 33.94 12.58 58.23 7.84 97 7.84-17.02 63.76-35.32 37.31-109.9 100.95-1.74 1.5-5.6 4.81-8 7.58-31.98 3.36-23.69-1.32-46.96 10.87-60.67 31.8-19.91 4.02-37.08 39.13-51.86-13.29-47.53 6.32-66.13 37.98-50.94 9.79-67.03 34.98-89.7 74.38-20.9-2.12-16.34-7.22-15.77 12.97-21.43.5-15.85-4.59-13.66 17.9-23.23-3.61-17.81-7.78-12.62 15.84-25.75-4.71-20.58-9.57-14.01 16.01-28.14-6.38-21.96-10.44-12.61 17.32-30.21-9.32-22.3-14.53-22.3 17.49 27.88 0 22.3 7.77 22.3-17.49l12.61-17.32 14.01-16.01 12.62-15.84 13.66-17.9 15.77-12.97c36.36-30.16 61.96-47.13 89.7-74.38l66.13-37.98 84.04-50c84.57-26.62 159.87-68.21 246.57-100.03 85.35-31.31 182.07-57.69 268.19-89.91 164.6-61.61 350.34-154.84 476.02-241.07l26.1-16.55 21.13-12.67 25.26-15.66c23.11 0 18.15 6.24 18.15-15.37l47.94-39.52 20.73-9.41 41.52-32.39 19.54-10.9 21.21-23.5 18.84-10.01c25.77 0 21.02 7.42 21.02-15.07l-21.02 15.07-18.84 10.01c-35.93 10.43-10.24-2.81-21.21 23.5l-19.54 10.9c-39.95 11.24-21.58.83-41.52 32.39l-20.73 9.41c-72.48 15.48-31.78-5.9-47.94 39.52-28.06-8.19-22.16-13.49-18.15 15.37-52.95-12.91-23.55-11.09-25.26 15.66-28.43-9.17-23.24-15.9-21.13 12.67-53.76-10.55-21.49-9.81-26.1 16.55-40.31.76-95.19 24.17-85.4-26.52 7.53-38.94 42.26-53.14 65.14-82.91-69.31 36.36-393.59 327.23-660.51 342.69-28.14-100.4-77.95-180.47-125.74-261.85l-153.6-220.09c-101.81-156.54-197.5-330.68-124.53-565.66-12.74 15.58-25.04 30.74-42.53 44.88-51.46-35.02-65.4-81.89-95.93-130.42l-24.61-34.14c42.04 112.33 135.98 164.56 83.69 292.82-106.08-17.07-182.77-212.17-207.93-363.34-58.18-349.52 106.75-1098.33 35.19-1649.67-50.49 34.06-49.41 53.87-134.5 59.79-62.84 4.36-132.59-10.43-179.44 10.65zm281.03 2786.77c26.69 0 21.96 7.79 21.96-15.14l-21.96 15.14-20.85 10.37-5.9 11.96 5.9-11.96 20.85-10.37z" class="fil1"/><path d="M6450.62 5764.27c38.69 25.82 162.39 66.52 201.86 43.98 53.09-30.35 480.91-765.6 539.47-867.01 22.63-39.2 91.38-145.89 78.34-185.11-10.39-31.2-106.04-111.48-137.82-124.54l-367.25 541.17c-96.55 148.58-271.44 407-314.6 591.51zM7927.97 5695.02l8.13-21.96 12.67-19.91 16.36-26.03 17.2-24.98 15.78-29.86 16.13-40.35 15.72-36.25-5.42-15.62c39.03-221.49 37.05-304.87-31.89-523.53l7.4-5.09c-3.05-3.48-7.77-13.09-9.15-10.46-3.92 7.53-65.38-131.43-113.37-192.18-28.78-36.43-55.3-48.8-83.28-79.88l-82.62-76.09c-2.95-2.47-7.22-6.73-10.67-10.27-.26-31.92 4.99-3.88-15.03-11.78-27.58 0-21.73 7.49-21.73-18.13l-8.2 6.26-70.17-36.17-19.58 2.21-32.29-17.17-42.49-2.53c-129.47-1.04-213.3 25.11-298.28 78.5 87.98 200.63 730.36 346.35 752.4 716.12 9.32 156.96-48.71 294.73-67.97 421.93 38.2-15.21 18.89-1.64 50.35-26.78zM1379.6 3640.19l-21.03 190.61 4.75 63.69c-5.74 77.78-.84 207.22-34.66 266.83l8.39 32.33-23.35 99.7 3.28 19.96c-14.87 59.74 5.18 23.01-33.19 52.12-43.15-20.6-19.49-14.55-59.84-15.99-95.21-34.77-100.71-146.46-104.36-260.5l-.34-41.68c-45.56-77.2-6.5-222.29-6.48-222.41.69-6.59 4.31-7.46 6.48-11.18l-2.56-83.73c1.25-25.19.35-19.64 5.95-43.64.74-3.14 4.61-5.28 5.27-11.96.62-6.55 4.24-7.4 6.29-11.13l-3.66-67.89c4.98-33.32 8.39-63.92 12.4-96.94 5.89-48.64 4.37-53.5 21.19-86.7l-1.08-55.68 14.96-65.76 6.64-68.06c2.51-24.04 2.41-23.81 9.32-46.85 1.23-4.06 5.88-5.57 6.9-13.73 1.05-8.2 5.48-8.73 8.13-13.14l-2.07-46.77 17.19-55.14c0-23.53-6.57-18.81 14.79-18.81l88.3-.83 50.88-14.63 12.05 59.5 4.1 314.13c-.16 43.79-4.59 77.48-6.85 119.76-.99 18.8.3 44.79-1.08 60.55l-7.97 38.05c-.44-1.87-3.16 7.21-4.8 10.78l6.06 25.14zm-227.12-658.16c0 32.97 9.7 27.26-18.28 27.26l5.26 17.62-35.17 119.25 1.64 45.28-16.61 55.41 1.04 19.4-15.98 51.27 6.07 53.42c-1.91 15.39-4.29 45.16-7.43 59.33-8.38 37.74-8.27 23.21-13.61 33.23l.81 27.12c-11.6 195.75-25.38 383.66-9.54 583.37l-6.23 5.92 62.17 338.12-2.33 24.63c59.75 43.62 149.66 63.97 251.53 61.41 86.65-193.53 116.02-1316.6 75.31-1564.67l-237.09-6.59c-43.61 6.91-36.54 14.38-41.56 49.22z" class="fil0"/><path d="m3026.06 7073.24-15.42-14.31-52.7-37.35c-114.51-152.11-383.72-265.73-626.84-137.73l-73.26 29.03-28.86 17.13-48.7 27.28-24.26 24.01-13.5 11.96c-23.3 0-18.3-6.3-18.3 15.5l-14.67 15.19c-40.65 30.34-64.82 68.59-94.11 131.45 48.67-33.71 14.95-8.34 47.67-58.45 22.15-33.9 29.73-32.31 46.44-73l14.67-15.19 18.3-15.5 13.5-11.96c42.37-11.82 12.53 3.04 24.26-24.01 44.78-5.19 21.2 7.69 48.7-27.28 45.9 2.18 15.41 5.38 28.86-17.13 26.02.17 3.79 8.14 36.51-4.35 44.97-17.19 19.14-7.61 36.75-24.68 197.1-3.71 106.09-75.39 348.7-17.58 239.55 57.08 166.48 121.16 278.14 155.31 2.01 45.78 15.28 36.73 52.7 37.35-8.99 29.26-13.66 23.99 15.42 14.31 6.34 34.97-7.14 34.17 90.9 60.12 82.89 21.95 34.24 11.59 112.1 7.96 100.81-4.72 172.31 23.88 303.52 9.18-6.85 26.86-11.61 21.15 15.78 15.73-11.82 56.58-10.41 22.73 12.97 34.27-.85 32.6 5.31 64.1 16.71 98.46 2.35 7.03 13.29 34.19 18.22 42.1 22.84 36.7.53 12.62 29.08 33.06-8.52 42.63-13.57 15.26-.46 58.3 20.15 66.15-3.1 10.65 27.43 37.86l-5.12 199.04c7.47-13.25 6.17-1.11 14.63-36.85 5.21-22 6.8-35.66 7.08-58.34.48-38.04-4.75-72.69-16.59-103.85l-26.97-96.16-64.01-173.62-12.97-34.27-15.78-15.73c-13.53-6.52-2.06-6.09-36.36-10.92-21.82-3.07-20.61-2.42-42.13-2.45-31.31-.07-62.76 4.4-97.53 4.24 21.68-54.59 64.31-104.08 94.56-167.29 30.02-62.76 59.08-122.08 85.4-183.67 138.99-325.26 333.68-866.37 709.77-871.85 136.02-1.96 303.8 66.2 385.27 133.34 196.26 161.78 319.44 663.88 434.24 896.12 31.01 62.73 73.76 118.07 97.6 179.51-56.77-1.04-108.22-16.58-147.53 14.62-26.76 0-22.03-7.83-22.03 15.12l-11.13 13.07 11.13-13.07 22.03-15.12c174.34-9.58 183.13-27.34 279.02-18.48 16.73 1.53 39.49 3.88 56.1 1.32 98.9-15.23-45.97 15.6 25.21-6.92l22.29-10.96 58.62 4.08c8.75-11.11 9.3-29.86 11.22-35.95 48.29-3.9 69.68-20.49 93.29-57.24l18.19-10.13 17.67-14.08 15.42-11.55 15.9-15.83 14.26-13.25 16.06-15.85 58.85-48.11 28.8-17.31c51.22-6.22 27.54.69 63.3-29.98 79.68-1.79 31.27-2.81 50.95-16.77l-50.95 16.77-63.3 29.98-28.8 17.31-58.85 48.11c-21.32 0-16.06-5.37-16.06 15.85l-14.26 13.25c-21.18 0-15.9-5.3-15.9 15.83l-15.42 11.55-17.67 14.08-18.19 10.13c-39.14 23.48-60.59 38.87-93.29 57.24l-69.84 31.87c-195.91 6.34-238.59-149.53-312.23-298.47-83.32-168.55-306.49-716.71-418.11-808.79-107.17-88.41-285.88-149.52-473.61-122.06-395.08 57.77-447.88 310.2-599.75 627.11-84.4 176.15-198.53 525.99-330.87 596.72-108.37 57.89-149.63 12.1-237.86-28.38z" class="fil1"/><path d="m1149.16 4662.74-17.72 9.57c-29.52 41.06-197.38 162.08-236.56 189.34l-8.27 5.13c0 25.54 6.92 20.07-16.95 20.07l-15.19 14.84-16.61 13.25-13.37 14.96-18.37 14.72-13.78 13.02-15.5 15.9-14.24 14.21-14.2 16.88-13.31 15.73-13.25 17.44-14.13 16-12.97 16.49c-135.65 173.74-101.48 175.22-137.7 282.62-20.69 61.31-3.96 17.76-23.99 42.3-29.19-126.48-26.84-254.82 25.62-368.6l46.06-105.17 10.47-19.43 49.06-72.51 47.16-56.29 14.91-15.14 14.77-16.08 15.79-12.89 13.61-16.2 16.13-14.54 70.21-63.25 39.68-23.04 21.91-20.96 21.32-11.48 4.31 2.93c0-28.71-7.42-21.96 20.55-21.96 53.6-26.76 65.01-26.34 113.88 7.02l10.83-3.24 130.85 51.26-71.01 47.1zM895.53 4545.5l-29.5 16.04-20.15 5.99-40.03 34.43-15.53 9.79-39.49 36.77c-16.8 15.21-14.57 12.06-30.56 28.4-25.11 25.69-40.49 46.05-63.43 68.96l-10.35 18.5-33.53 40.17-9.12 20.89-19.89 25.22-5 26.4-15.62 27.03c-23.37 54.93-.76 11.48-27.45 30.41l2.33 7.06-62.17 169.64 5.72 9.86c-14.75 141.09-16.69 202.49-.49 344.05l-5.23 12.37c62.75 94.98 84.89 198.86 168.83 240.24 5.44-29.96 2.45-15.16-2.14-28.07l-20.46-44.89c-29.49-187.6-110.69-272.82 77.79-523.61 58.58-77.95 271.39-259.99 365.61-323.15l15.54-13.91 20.48-11.18 14.91-14.66 22.42-8.61 19.4-22.66c24.2-22.71 60.23-50.46 89.52-75.14 33.96-28.62 48.95-48.55 75.83-78.11-88.83-26.39-152.75-18.67-223.37-65.95H970.23l-74.7 37.72zM1484.29 4860.24l12.14 19.08 10.62 21.48 11.06 16.51 14.61 9.31 20.31 30.07c24.58 24.09 73.54 78.01 90.99 119.5l-1.24 6c29.01 19.47 7.23-.81 28.54 24.21l192.94 298.88 2.9 6.82c9.89 10.6 14.19 13.05 25.53 28.7 4.42 6.1 8.16 12.87 11.98 19.28 6.07 10.21 16.22 32.65 25.19 49.91l-2.88 4.42c29.54 24.55 15.48-32.05 26.89 40.45 28.5 43.85 73.14 93.36 77.82 149.58-32.01 21.44-17.08 18.12-56.73 29.92l-47.98 39.7c-56.52-23.05-85.65-45.97-102.7-99.53l-2-3.52c-24.68-20.53-6.89-.53-27.47-27.3-8.67-11.29-8.74-18.58-13.62-29.02l-3.78-5.34-58.13-74.04c-16.27-24.12-32.72-49.86-43.05-70.2l-3.53-4.99c-35.5-26.7-16.28 35.17-29.54-39.88l-.38-13.48-42.57-61.32-2.3-10.2c-22.51 0-15.65 5-15.65-19.71-22.03-34.44-25.64-37.79-44.19-79.74l-27.86-45.88-18.53-25.74-18.62-25.49-16.24-27.51-9.31-23.78-35.04-51.66-32.33-56.18-93-189.06 86.4-46.91c49.16 24.81 74.69 69.14 110.75 116.66zm296.86 840.93c65.73 103.19 129.44 202.99 304.09 59.7-16.55-74.19-109.04-234.77-148.56-305.33l-173.79-274.37c-57.02-90.78-119.66-188.14-183.18-266.83-45.81-56.75-164.21-209.15-186.03-259.8-51.43 25.92-117.77 68.76-151.06 105.76 158.53 325.16 129.31 291.81 345.47 640.06 63.37 102.14 125.05 193.97 193.06 300.81z" class="fil0"/><path d="M6519.18 3036.09c159.5-189.58 7.69 403.63-6.15 448.82-96.09 314.07-208.43 322.17-272.34 424.53 23.48 24.05 15.6 12.47 24.21 44.88-35.41 18.72-43.59 28.44-98.25 29.92 175.28 82.6 317.3-267.76 357.3-384.51 60.64-176.97 184.08-437.93 108.83-641.5l-547.38-49.46c3.21 1.85 8.67-.16 10.35 4.11 8.13 20.6 227.68 29.15 237.63 30.58 132.43 19.09 185.8-35.1 185.8 92.63zM2330.85 3986.01l-74.78-46.64c9.65-36.34.35-15.23 15.53-47.14 20.32-9.63 21.06.59 0-12.7v12.7l-61.06-61.89c-162.96-167.08-262.61-452.74-246.51-773.52-26.68-21.94-23.96-3.66-37.05-59.82 39.22-3.27 46.84-3.7 74.8-35.34l-114.62 10.87c-34.1 199.48 79.59 658.99 208.65 872.74 48.71 80.67 105.95 130.02 235.04 140.74z" class="fil1"/><path d="M6519.18 3036.09c-7.97 40.53-14.87 47.12-11.45 95.53-7.26 54.89-8.03 67.56-33.42 108.97l1.16 25.66c-5.4 28-10.74 58.39-17.63 85.74-1.09 4.34-9.86 34.59-10.26 35.68-12.33 32.53-12.23 23.45-18.15 32.78l3.52 10.33c-4.74 20.76-9.14 43.09-14.91 62.15-4.84 15.99-5.37 20.55-12 34.26-10.12 20.97-14.68 23.46-21.48 32.9l3.71 5.32c-5.37 21.11.35 16.13-11.06 36.92-11.31 20.58-12.83 18.14-22.56 29.12l6.13 8.74c-26.19 58.76-44.9 102.74-80.94 139.38-30.6 36.29-55.31 63.25-39.15 129.87 63.91-102.36 176.25-110.46 272.34-424.53 13.84-45.19 165.65-638.4 6.15-448.82zM6866.52 5614.69c60.33 55.29 237.06 174.34 323.37 174.85 34.76-37.37 67.04-70.02 63.47-148.76l-298.86-169.61c-35.54 43.71-65.28 95.83-87.98 143.52zM6987.65 5420.24c45.28 37.1 277.27 175.49 328.03 186.02 21.64-73.8 46.57-85.65 69.32-146.32-86.43-50.21-200.03-140.88-312.37-177.84-35.2 30.69-73.04 92.24-84.98 138.14zM2210.54 3830.34c28 16.28 21.15 4.19 36.68 30.18l-20.99-55.78 14.87-12.13-38.17-77.62 8.26-3.18c-6.97-9.73-11.21-12.7-21.87-34.09-14.94-30.09 10.27 26.64-8.81-22.03-5.91-15.04-9.9-30.64-14.95-45.41l.76-8.21c-22.97 0-15.28 4.8-15.28-21.7l.31-20.55c-20.82-27.96 6.08 22.65-21.85-33.76-4.03-8.11-4.91-12.7-8.66-22.31-6.14-15.69-13.02-37.85-20.35-58l5.99-14.07c-40.95-62.49-72.28-180.2-92.08-270.15l2.33-12.75-27.49-62.03-25.21-29.93c-16.1 320.78 83.55 606.44 246.51 773.52zM7127.41 5210.81c78.36 79.82 181.09 137.17 289.27 182.03 34.82-36.57 60.83-72.86 78.5-126.31-115.76-44.08-210.76-143.17-324.36-181.92-16.89 46.22-39.68 57.76-43.41 126.2z" class="fil0"/><path d="m1371.84 6480.14-59.42 168.51c-1.25 2.5-5.68 12.5-6.66 10.22-.99-2.34-4.59 7.02-7.01 10.43-2.97-2.83-6.75-6.7-8.59-8.78l-51.25-60.94c37.74 81.04 54.31 78.25 119.66 122.01 0 189.7-3.09 416.95 61.47 596.72l202.55 395.73c22.47 32.84.41 4.85 25.16 34.82 3.18 3.83 20.78 22.26 21.75 23.46 115.95 141.25 190.61 246.92 366.88 350.68l503.2 169.99c86.95 3.55 683.21 6.95 725.22-9.11 58.64-22.41 12.12-2.73 38.36-25.64-439.51 30.56-871.13 71.48-1254.66-147.98-75.16-43-212.47-155.91-255.61-207.7-144.82-173.86-260.63-322.41-350.03-592.72-114.04-344.84-60.81-527.51-40.03-839.21-16.03-9.1-6.4-8.9-30.99 9.51zM6414.47 4467.73l-44.88-49.7c28.27 0 58.96 3.6 86.15-3.75l39.59-20.72c67.74-45.48 212.79-161.21 248.23-320.63-94.42 141.98-181.04 424.39-486.33 278.02-100.03-47.97-193.99-91.89-295.63-137.83-78.1-35.3-221.19-111.35-298.8-128.23 11.2 40.78 1.82 26.84 32.33 51.12 88.86 70.65 588.71 291.38 719.34 331.72z" class="fil1"/><path d="M6920.3 5887.04c53.55 30.66 96.09 68.64 156 88.94l67.9-106.99c-57.33-45.79-130.51-87.98-198.16-128.02-91.44-54.13-146-80.15-176.74 53.22 49.32 42.41 91.48 58.76 151 92.85z" class="fil0"/><path d="m684.32 5723.94-39.45-6.22c-83.94-41.38-106.08-145.26-168.83-240.24 5.17 66.77 63.94 156.13 66.6 160.33l66.56 83.06c126.94 125.05 48.49 21.04 146.37 227.59l222.61 345.8c38.92 53.35 41.3 66.18 111.14 83.3-3.16-37.99-2.37-35.32-14.91-59.88l-324.07-559.39c-42.88-133.82-64.89-216.39-64.89-379.94-96.06 207.01 271.97 842.71 386.5 965.82l-10.79 19.27c-5.62-.16-8.36-12.65-9.19-10.47l-11.94-15.85c-164.31-202.96-241.26-374.18-355.71-613.18z" class="fil1"/><path d="m7250.01 4956.28-25.76 75.03c77.43 61.06 222.99 144.31 303.86 180.31l50.46-103.91-289.87-168.67c-20.81 9.11-19.67 3.81-38.69 17.24z" class="fil0"/><path d="M1523.23 6213.02c-51.16 32.46-50.53-19.96-120.97-118.91-24.57-34.51 1.13 6.6-24.36-35.53l-60.44-104.35c-36.29-69.46-121.98-214.28-123.42-279.7 67.91 45.47 59.92 74.3 82.82 96.69 26.55 25.97-1.22 13.92 42.26 19.2-6.89 23.82-12.3 18.73 11.41 18.73l-11.41-18.73c-14.45-25.05-64.24-101.71-72.1-110.67 31.22-34.73 25.78-24.75 66.68-43.74-10.45-52.72 6.75-27.45-34.45-51.23l-34.46 47.34c-63.77-43.58-31.37-62.7-96.64-118.9v-18.19c-20.05 13.03-21.89-1.12 0 18.19l1.19 71.56c-76.57-6.36-44.47-15.3-95.37-84.72-1.87-2.56-4.88-5.79-6.75-8.36-1.89-2.56-4.75-5.88-6.61-8.49-35.28-49.83-138.91-261.21-189.27-302.31l472.43 812.63c101.12 180.7 140.15 135.06 125.03 311.06 33.23-13.97 55.4-56.18 74.43-91.57zM558.67 5026.61c20.1-12.77 13.46 18.02 38.58-38.79 11.31-25.59 10.41-26.93 7.48-66.38 31.41 7.77 23.19 10.6 10.47-19.43 38.87-3.4 17.97 14.13 39.79-20.83 16.13-25.82 8.21-13.38 9.27-51.68 35.92-6.48 7.83 12.17 30.39-13.53 22.3-25.37 12.62-3.8 16.77-42.76 25.25 5.11 20.23 10.09 14.91-15.14 25.85 5.46 20.23 10.12 14.77-16.08 24.79 6.63 20.41 11.91 15.79-12.89 25.06 4.18 19.74 8.85 13.61-16.2 25.74 5.61 20.93 11.05 16.13-14.54 52.58-5.78 10.97 12.89 45.07-14.47 51.99-41.75 14.89-6.36 25.14-48.78l37.81 8.41 1.87-31.45c49.2.92 18.46 6.15 21.91-20.96 26.57 7.99 21.32 14.49 21.32-11.48l-21.32 11.48-21.91 20.96-39.68 23.04-70.21 63.25-16.13 14.54-13.61 16.2-15.79 12.89-14.77 16.08-14.91 15.14-47.16 56.29-49.06 72.51-10.47 19.43-46.06 105.17c-52.46 113.78-54.81 242.12-25.62 368.6 20.03-24.54 3.3 19.01 23.99-42.3 36.22-107.4 2.05-108.88 137.7-282.62l12.97-16.49 14.13-16 13.25-17.44 13.31-15.73 14.2-16.88 14.24-14.21 15.5-15.9 13.78-13.02 18.37-14.72 13.37-14.96 16.61-13.25 15.19-14.84c23.87 0 16.95 5.47 16.95-20.07-28.41 0-23.34-7.16-16.95 20.07-26.28-6.84-21.14-11.7-15.19 14.84-25.14-6.47-20.51-11.91-16.61 13.25-24.08-4.45-19.17-9.03-13.37 14.96-25.12-4.27-19.75-10.03-18.37 14.72-21.26-4.06-16.68-8.43-13.78 13.02-22.81-1.48-17.69-6.82-15.5 15.9-21.99-2.72-17.4-7.61-14.24 14.21-23.58-1.77-18.27-6.88-14.2 16.88-24.72-4.41-19.51-8.95-13.31 15.73-27.58-5.58-21.53-9.98-13.25 17.44-29.34-8.87-23.62-13.25-14.13 16-31.24-10.56-24.82-14.13-12.97 16.49-60.6-14.93-39.2-44.17-39.2-113.76-73.98 49.52-29.63 93.12-104.72 179.5 10.14-43.48 17.26-52.25 7.85-109.42zM2572.91 4105.9c58.31-39.87 115.41-81.89 171.69-127.42 49.28-39.85 141.01-59.46 157.79-145.11-108.67 14.94-285.64 173.21-529.1 223.82-320.2 66.57-266.56-136.05-401.43-313.52 10.9 45.99 21.92 58.35 40.97 96.23 34.31 68.2 93.47 212.33 162.64 239.89 164.71 65.63 312.96-65.64 454.56-65.64-13.18 49.35 3.54 9.95-25.69 49.17l-31.43 42.58zM1762.45 4686.57c51-44.84 20.67-39.61 96.25-82.54l356.43-167.33c85.73-36.89 163.78-73.16 247.49-110.54 110.81-49.49 194.55-63.48 225.01-123.67-153 22.03-360.96 185.17-520.85 203.95-261.95 30.76-320.17-216.05-389.37-317.73l46.32 119.06c1.54 2.99 3.52 6.86 5.07 9.82l119.86 148.87c125.05 93.02 65.28 29.31 142.87 66.53-7.13 65.18 2.44 23.98-15.67 44.17l-100.68 49.22c-88.6 39.79-168.04 73.83-212.73 160.19zM1478.25 6929.73c0-229.51 3.34-513.23 205.98-661.14 21.52-15.71 5.41-3.43 27.07-17.78l35.85-23.3c22.79-12.83 41.23-20 69.76-34.82l327.89-106.43c3.8-1.18 7.69-2.37 11.57-3.44 3.96-1.1 7.9-1.98 11.93-2.99 4.1-1.04 8.14-1.55 12.29-2.54l678.96-338.1c2.68-1.79 6.39-4.14 9.08-5.92 2.68-1.79 6.34-4.21 9.03-5.99 5.21-3.5 24.5-16.8 26.76-18.22 89.73-56.23 441.31-301.47 473.52-352.79l-502.32 354.44c-169.11 109.5-368.89 222.13-579.23 303.59-230.97 89.49-458.56 116.45-630.53 251.73-70.9 55.77-129.47 154-167.21 266.65-30.81 91.97-62.54 311.45-20.4 397.05z" class="fil1"/><path d="M7631.23 5021.49c-86.11-106.27-34.38-104.41-289.35-220.63-2.6 2.97-6.03 6.96-7.6 9.1l-39.03 71.78 28.34 18.22c2.88 1.6 6.98 3.6 10.02 5.23 117.96 62.77 200.2 145.11 297.62 116.3zM1353.92 5330.72l-25.14 17.49c-27.68 23.23-53.4 37.4-89.23 60.42l-14.86 7.9c-25.04 38.36-19.22 47.33-75.53 61.08l-1.01 17.42v18.19c65.27 56.2 32.87 75.32 96.64 118.9l34.46-47.34c6-19.81 9.66-13.87-10.43-18.15-36.89-19.96-52.28-36.22-55.81-92.38 22.1-36.75-31.87-4.54 43.34-38.53 50.1-30.71 208.28-147.84 227.84-.53 6.5 24.11-15.07 1.04 16.5 29.92 13.3-17.34 12.96-21.13 26.92-44.87-34.11-106.57-51.87-122.68-173.69-89.52z" class="fil0"/><path d="M2132.24 4683.16v15.35c-27.33-6.97-19.26-11.11-19.03 18.68 29.19 0 24.98 8.04 19.03-18.68l264.28-95.15c23.38-8.11 25.39-8.89 43.2-16.66 4.28-1.87 15.58-8.22 19.91-10.02 59.75-25.07 158.09-55.92 280.26-123.58 37.89-20.99 50.28-34.05 84.08-50.83 146.58-72.77 151.28-80.76 261.81-157.22l196.6-132.42c41.64-30.07 108.37-68.39 140.44-109.43-95.9 52.77-188.81 132.47-291.28 198.28-95.9 61.57-197.97 124.47-308.4 185.14-204.45 112.31-468.38 215.06-690.9 296.54z" class="fil1"/><path d="M1577.72 5554.86c3.76 26.22-7.58 1.81 6.48 29.92 11.54 23.05-2.01 1.8 21.01 29.91-1.1 31.73-3.45 28.93-30.82 48.39-17.89 19.36-17.04 18-36.32 22.47-28.13 9.42-23.5 6.5-41.04 18.89 0 22.93 4.73 15.14-21.96 15.14l-20.85 10.37-5.9 11.96-24.96 7.4-49.82 20.67c-40.11-25.74-45.13-32.58-61.19-80.49l1.35-53.48c-40.9 18.99-35.46 9.01-66.68 43.74 7.86 8.96 57.65 85.62 72.1 110.67l11.41 18.73c17.48 18.3-33.51 14.96 36.54 14.96 42.15-44.75 108.76-74.23 169.04-105.2l23.64-22.19c2.83-1.75 7.51-3.96 10.37-5.46 7.95-4.19 30.69-9.65 38.83-12.21l49.56-28.68c-13.71-69.78-12.23-103.92-69.03-127.54-25.81 13.04-33.8-23.26-11.76 32.03z" class="fil0"/><path d="m2000.95 1216.97 186.69-173.36c2.37-1.94 5.57-4.98 7.95-6.92l234.32-154.75c15.64-8.21 14.32-6.41 30.41-14.19l430.13-153.15c43.21-16.72 21.52-9.74 38.74-23.36-357.67 40.67-809.9 331.44-928.24 525.73zM5311.8 8247.34l-22.38-10.44c-50.18-16.45 26.43 5.35-25.04-6.7-111.39-26.09-95.9-11.52-254.6-59.43-199.89-60.35-383.84-143.37-343.4-370.43 19.61-110.1 87.56-181.8-2.03-269.87 79.45 180.88-111.64 321.44 40.72 496.66 116.71 134.24 435.25 220.21 606.73 220.21z" class="fil1"/><path d="M2031.69 1812.25c31.91-20 10.23 2.06 39.35-32.78 15.18-18.18 5.35-14.66 23.55-36.23l684.47-676.02c23.76-19.77 37.73-23.27 62.52-42.28 9.22-7.07 22.21-19.5 33.09-27.28 46.18-33 51.48-23.41 93.74-79.87-4.18 2.14-10.65.07-12.75 5.97-15.97 44.86 10.95-12.28-32.47 18.8l-92.14 72.17c-7.54 6.13-13.78 12.01-25.05 20.32l-610.64 569.64c-20.88 24.82-36.5 46.96-52.61 66.55-2.01 2.48-4.49 6.17-6.55 8.57l-38.91 36.57c-3.25 2.87-13.21 10.39-16.13 13.54l-49.47 82.33z" class="fil2"/><path d="M1941.94 7666.33c20.76 48.8 33.94 65.13 59.33 104.06l23.34 35.74c33.07 51.68 22.86-22.13 22.05 82.21-127.49-10.6-258.19-210.65-307.78-254.28 47.33 102.54 257.18 324.1 412.12 329.54-7.91-49.84-70.79-119.8-102.08-152.29-43.34-45-72.81-98.42-106.98-144.98z" class="fil1"/><path d="M1882.11 1126.99c77.4-47.37 153.79-244.43 499.93-411.62 106.76-51.55 207.15-96.27 319.1-129.55L3067.67 484l-190.72 39.15c-18.96 5.94-17.51 3.93-36.29 7.94-5.02 1.07-19.72 3.88-24.73 4.94l-115.6 33.89c-33.83 11.48-46.41 15.92-78.88 25.71l-240 105.2c-3.11 1.52-7.08 3.22-10.17 4.76-3.09 1.52-6.89 3.58-9.98 5.1l-187.93 110.07c-2.88 1.61-7.23 2.97-10.09 4.61l-18.82 10.74c-2.5 1.82-5.95 4.58-8.32 6.54l-220.11 227.27c-1.98 2.79-4.21 6.2-6.17 9.21l-20.18 34.62c-2.03 3.5-4.91 8.91-7.57 13.24z" class="fil2"/><path d="M6039.39 8247.34c86.48 0 79.08 5.72 146.39-19.26 210.93-78.26 47.97 15.58 306.87-127.43l76.64-42.65c18.18-11.86 12.75-7.86 26.87-17.93 18.8-13.43 30.19-21.77 51.71-37.99 34.13-25.69 62.97-56.96 92.26-87.27 48.85-50.6 122.2-145.14 153-211.43l-44.28 51.17c-282.02 429.26-696.3 435.32-809.46 492.79zM7102.73 6394.48c20.36 212.88 58.85 321.83 43.06 566.45 23.25-17.51 9.2 3.59 15.47-30.92l1.12-163.54c-.14-122.14-16.1-129.26 31.22-194.45l-77.14-204.13c-20.16 7.99-16.84-17.79-13.73 26.59zM3314.59 8262.3l86.44-7.06c4.29-.82 7.76-2.03 12.02-2.87 14.54-2.8 25.67-3.67 38.47-6.25 34.84-6.98 90.74-29.08 121.01-43.51 15.55-7.42 32.65-18.84 47.96-27.19 132.63-72.35 51.96-3.84 186.32-142.37l44.72-59.69c61.62-119.05 35.37-346.32 5.07-404.07l-1.22 64.82c124.61 542.9-391.26 553.46-540.79 628.19zM1380.14 4979.55l32.33 56.18 35.04 51.66 9.31 23.78 16.24 27.51 18.62 25.49 18.53 25.74 27.86 45.88c-11.87-41.53 10.11-5.61-27.86-45.88-5.07-44.52 4.4-10.65-18.53-25.74 3.28-47.82 6.32-17.54-18.62-25.49 10.17-52.42 9.84-22.64-16.24-27.51 8.04-24.88 13.69-18.29-9.31-23.78-15.3-65.12-15.92-38.68-35.04-51.66 11.22-60.21 8.5-19.7-9.02-34.33 0-60.23 4.43-7.91-23.31-21.85 2.07-75.85-19.68-55.44-36.52-127.74l74.79-29.91c41.39 27.72 17.16 23.41 65.88 38.34-7.54 26.82-14.22 22.58 12.14 19.08l10.62 21.48 11.06 16.51 14.61 9.31-14.61-9.31-11.06-16.51-10.62-21.48-12.14-19.08c-36.06-47.52-61.59-91.85-110.75-116.66l-86.4 46.91 93 189.06z" class="fil1"/><path d="M2091.53 6787.56c113.23-65.93 210.67-129.14 377.41-118.3 163.55 10.66 266 43.59 400.41 100.67-24.7-38.95-19.54-25.02-86.02-50.46-204.6-78.28-369.14-106.49-575.23-15.23l-39.8 20.37c-3.11 1.47-7.1 3.17-10.2 4.65-3.11 1.49-7.45 2.6-10.51 4.15l-56.06 54.15zM4769.06 6826.45c30.35-62.05 17.02-180.79-2.19-252.78l-132.29-14.88c-7.3-13.29-10.41-3.04-11.22-30.95-1.22-41.82 128.53-201.11-63.71-264.29l36.45 31.18c79.61 65.32 62.74 107.32 25.21 188.07-11.01 23.68-27.61 56.04-12.35 83.3 19.93 35.64 99.08 20.89 145.14 20.89 19.01 81.55 14.96 139.3 14.96 239.46zM2420.6 5571.68c190.09-45.97 220.42-176.77 350.13-340.3l161.57-244.94-78.72 88.76c-1.86 2.52-4.49 6.04-6.24 8.67l-146.2 212.47c-44.8 59.63-75.45 147.29-149.73 195.17l-54.82 34.84c-2.72 1.85-6.08 4.66-8.87 6.48l-67.12 38.85zM2719.78 3802.32c63.04-20.51 379.62-237.23 458.61-286.44l408.8-233.57c2.65-1.38 28.38-15.25 28.82-15.53l40.42-30.46c-42.3 7.61-8.67-4.6-42.68 10.92l-764.18 464.17c-2.85 1.62-6.79 3.53-9.62 5.17-2.84 1.63-6.67 3.75-9.5 5.43l-81.66 53.05c-17.79 13.68-16.01 13.64-29.01 27.26zM7469.96 3999.19c24.05-13.96 23.61 19.51 21.84-104.47l-.21-239.65c2.3-164.1 4.31-95.99-23.15-119.57l1.52 463.69z" class="fil2"/><path d="m1627.64 3804.74 43.29-32.06c30.09 44.43 34.82 63.35 57.72 106.85l-53.82-267.34c-28.23 32.05-24.41 37.61-32.13 87.84-5.98 38.96-11.29 66.52-15.06 104.71zM1299.1 6108.31c-49.91-92.1-93.55-179.73-149.5-269.92l-164.97-273.4c13.26 65.77 127.16 254.92 162.34 306.33l75.92 119.64c32.73 52.09 36.25 88.36 76.21 117.35zM1050.68 4073.99c-15.84-199.71-2.06-387.62 9.54-583.37l-16.39 59.26c-5.25 79.52-30.27 431.13-12.9 493.18 11.71 41.94-8.78 4.31 19.75 30.93zM1256.35 5435.72c-15.74 18.55-11.45 18.26-43.34 38.53 3.53 56.16 18.92 72.42 55.81 92.38-11.78-39.52-8.53-24.72-29.91-56.64 19.4-36.68 31.57-65.93 72.28-92.26l19.36-10.62c41.85-19.75 73.9-16.8 117.77-16.8 11.4 47.58-2 22.99 35.87 44.88-19.56-147.31-177.74-30.18-227.84.53z" class="fil1"/><path d="M6952.97 4480.96c46.02-76.82 29.52-311.37-14.97-391.33 0 33.16-1.34 53.3 4.35 85.97l11.22 92.27c.16 70.9-.6 142.1-.6 213.09zM2929.19 4983.75c54.86-38.32 21.06-16.96 51.03-67.49 46.44-78.3 269.79-351.65 295.22-423.45l-38.08 38.41c-1.96 2.42-4.4 6.15-6.34 8.62-9.17 11.56-9.35 11.75-19.72 25.06l-261.79 381.87c-2.1 3.8-4.33 8.03-6.29 11.59l-14.03 25.39z" class="fil2"/><path d="M2093.65 2952.12c111.5 0 317.1-4.84 386.79-40.81-85.72-.3-324.93 11.25-386.79 40.81z" class="fil1"/><path d="M6025.56 7938.18c100.88-37.44 161.67-55.99 252.83-110.08l104.29-75.85c39.74-33.2 49.56-42.19 71.98-88.28l-213.67 171.88c-2.82 1.64-6.67 3.64-9.55 5.25l-81.8 38.97c-23.32 9.49-7.14 2.67-32.71 12.03-3.48 1.28-7.47 2.57-10.95 3.84l-80.42 42.24zM2940.29 693.41c25.6-.76 21.75-.26 45.31-4.47 4.14-.74 8.31-2.12 12.79-2.93l24.39-5.6c28.93-3.94 55.98 0 84.62-3.11 61.2-6.64 96.15-13.8 180.79-13.8-10.97 42.35-9.2 31.64-29.91 58.04 57.21-27.44 85.07-29.38 110.7-91.34l-428.69 63.21z" class="fil2"/><path d="M895.53 4545.5c-46.55-14.72-19.59-13.52-29.5 16.04-20.27-11.24-14.32-15.14-20.15 5.99-41.14 11.52-21.53.92-40.03 34.43-20.02-5.65-15.76-10.17-15.53 9.79-50.51 14.63-42.88 20.83-78.81 56.73-35.55 35.53-43.27 28.6-54.67 77.4-22.59 1.71-17.96-3.71-10.35 18.5-25.46-2.81-20.86-9.88-20.86 12.65l-12.67 27.52c-24.33 3.38-19.47-2.63-9.12 20.89-28.37 6.8-26.87-24.53-19.89 25.22-29.75 1.9-20.46-3.25-5 26.4-35.28-1.52-38.3-30-15.62 27.03-35.28 2.16-27.45-32.05-27.45 30.41 26.69-18.93 4.08 24.52 27.45-30.41l15.62-27.03 5-26.4 19.89-25.22 9.12-20.89 33.53-40.17 10.35-18.5c22.94-22.91 38.32-43.27 63.43-68.96 15.99-16.34 13.76-13.19 30.56-28.4l39.49-36.77 15.53-9.79 40.03-34.43 20.15-5.99 29.5-16.04 74.7-37.72h-60.41c-6.89 8.25-10.28 27.51-14.29 37.72z" class="fil3"/><path d="M2125.68 4358.19c90.3 38.97 370.73-198.9 370.79-199.06 1.53-5.78 5.21-6.87 7.75-10.35-3.9 2.31-9.66 1.31-11.64 7.08l-80.26 44.58c-102.28 54.38-140.74 143.97-286.64 157.75z" class="fil1"/><path d="m6608.93 1093.93-53.26-79.34c-135.95-167.67-65.06-82.44-206.38-210.4l-90.4-56.87c-30.58-16.5-18.3-10.07-50.63-23.98 3.39 3.29 7.26 7.76 9.94 10.09l213.26 153.12c141.38 120.33 59.49 110.09 177.47 207.38z" class="fil3"/><path d="M985.21 5554.86c-28.82-60.33-59.26-108.07-97.56-171.74-34.31-57.05-63.99-119.45-97.49-171-62.82-5.16-6.38-3.64-30.97 13.66 55.03-2 11.36-14.03 43.22 32.57l117.2 212.22c36.24 64.01 11.91 44.68 65.6 84.29z" class="fil1"/><path d="M4544.69 381.71c-28.2-39.22-186.94-19.43-240.3-18.48-69.41 1.27-56.16 2.91-73.83 18.13l314.13.35zM481.27 5465.11c-16.2-141.56-14.26-202.96.49-344.05-41.02 24.79-8.09 12.4-25.16 114.06-12.8 76.4-10.83 114.06 4.17 185.19 11.01 52.28-17.86 21.06 20.5 44.8zM3303.16 7967.54c90.88-31.34 136.93-57.57 211.61-105.52 67.53-43.38 96.22-76.98 133.52-168.13-60.48 42.23-27.87 70.43-98.41 127.37a272.01 272.01 0 0 1-8.48 6.52l-64.52 40.7c-2.71 1.79-6.31 4.24-9.01 6.03-107.35 71.28-101.82 46.2-139.54 69.34-25.28 15.51-7.72 4.79-25.17 23.69zM1851.44 7379.77l19.78-269.25-21.52 26.5c-21.29 43.43-22.15 203.09 1.74 242.75zM2106.48 4361.37c-38.32-59.77-60.19-20.16-124.2-103.83-1.91-2.51-4.44-6.11-6.2-8.76-1.8-2.69-3.8-6.63-5.46-9.44-2.69-4.5-12.72-27.49-20.25-39.45l-85.21-125.9c24.7 63.29 60.62 119.81 93.9 176.15 32.12 54.38 80.8 95.59 147.42 111.23zM2776.23 2882.85l-228.51 24.4c37.33 0 74.91-.41 112.2.14 10.76.14 54.54 2.33 61.26 1.71 103.14-9.5 29.45 11.84 55.05-26.25 84.54 19.04 156.58 16.59 212.8-13.66l-212.8 13.66zM2420.6 3974.31c145.23-47.15 143.43-69.39 228.04-120.42l64.04-49.15-257.45 139.1c-39.63 23.64-15.47 9.17-34.63 30.47zM3812.15 6586.99c71.39 0 135.24 19.13 116.55-70.35l-13.5-34.58c-50.12-124.38-47.5-118.6 59.42-197.52l31.57-28.3c-196.2 96.25-114.63 114.87-85.69 302.74l-108.35 28.01zM3981.17 3030.83c-27.22-5.39-21.94-10.02-12.89 16.48-28.27-7.03-22.87-13.27-19.44 14.97l-19.17 8.41-18.34 15.01c-33.64 11.06-19.15 7.48-54.73 15.99-16.94 20.3-2.79 9.74-7.65 38.96-58.25-16.78-28.92-16.2-25.09 18.89l-41.44-14.77c-28.68 35.42.91-8.15-9.92 39.71-56.18-15.12-26.55-14.24-26.25 17.99-58.9-19.47-29.96-18.08-30.81 13.94l-37.92-11.5-15.37 35.82 53.29-24.32 30.81-13.94 26.25-17.99 51.36-24.94 25.09-18.89 62.38-54.95c23.17 0 18.34 6.35 18.34-15.01l19.17-8.41c24.19 0 19.44 6.78 19.44-14.97l12.89-16.48 30.32-63.76c-21.34 21.73-7.86-5.04-21.52 26.98-16.48 38.63-.71-.16-8.8 36.78z" class="fil2"/><path d="M1654.98 1949.91c46-46.94-27.95 32.1 32.68-14.96l3.74-55.46c17.97-75.74 81.27-212.2 86.01-281.39l-70.65 176.18c-15.39 52.47-34.08 136.74-51.78 175.63z" class="fil1"/><path d="m8000.05 4951.44-39.15-93.16c-1.62-2.85-3.85-6.59-5.47-9.44l-127.49-168.93c-50.42-47.95-33.06-51.48-98.27-84.1l-28.71-13.25c3.45 3.54 7.72 7.8 10.67 10.27l82.62 76.09c27.98 31.08 54.5 43.45 83.28 79.88 47.99 60.75 109.45 199.71 113.37 192.18 1.38-2.63 6.1 6.98 9.15 10.46z" class="fil3"/><path d="M4873.78 7117.64c91.41-155.31-24.49-173.28-83.96-193.93l-20.76-64.24v56.59c37.14 21.37 59.12 33.32 104.72 44.87v156.71z" class="fil1"/><path d="M1223.95 4349.44c-114.01-116.42-21.86 28.87-71.71-159.02l-32.65-101.48c3.65 114.04 9.15 225.73 104.36 260.5z" class="fil2"/><path d="M4918.65 7684.41c-12.79-62.69-15.92-76.08-15.41-155.35.53-82.56 15.41-89.54 15.41-166.3-31.92 53.12-56.89 238.12 0 321.65zM6835.99 3664.63l-28.48 140.11 41.29-74.52c46.91 35.27 15.64 4.97 38.8 44.6l-10.43-84.22c-13.32-14.79-20.07 8.83-15.21-48.66-2.61 2.58-7.01 5.32-8.71 6.71-1.76 1.47-7.22 10.22-8.65 7.58-1.49-2.77-6.13 5.25-8.61 8.4z" class="fil1"/><path d="M3048.29 8008.02H2750.1c55.97 28.74 244.43 27.88 298.19 0z" class="fil3"/><path d="M1328.66 4161.32c33.82-59.61 28.92-189.05 34.66-266.83-32.65 20.69-15.38-2.22-20.63 59.28-2.65 31.23.79 34.71-5.09 69.32-9.22 54.14-8.94 78.22-8.94 138.23zM4015.5 6257.9c136.85-2.65 79.26-41.78 189.78 69.78l31.13 28.93c2.69 2.17 6.77 5.1 9.29 7.04l20.43 13.91c-26.75-45.28-15.67-23.59-51.79-58.99-30.65-30.04-59.18-80.37-120.33-87.31-74.18-8.41-78.33 26.5-78.51 26.64zM2106.48 3431.68c-3.23-39.96-4.95-41.78-17.31-74.01-15.04-39.25.24 6.19-13.98-32.04-27.82-74.84-12.83-115.3-60.79-164.1 19.8 89.95 51.13 207.66 92.08 270.15z" class="fil2"/><path d="m1235.55 6542.11 34.05 19.15 88.97-243.52c-2.14 2.63-5.53 3.34-6.34 7.98-.83 4.72-5.34 6.29-6.45 8.11-8.55 13.94-7.72 11.57-15.85 28.76-33.46 70.71-25.49 94.98-94.38 179.52z" class="fil1"/><path d="M1538.07 7202.48c-3.07-83.14-33.09-107.97-43.44-184.25-1.86-13.69-.04-28.54-3.38-40.74-10.62-38.68 15.11-10.75-17.89-31.52 4.27 89.04 22.63 196.85 64.71 256.51zM6517.73 7140.43c-35.01-103.48-92.91-172.63-178.05-209.2l61.93 57.67c2.26 2.14 5.24 5.39 7.45 7.58l84.15 111.76c14.01 21.03 14.06 19.93 24.52 32.19z" class="fil2"/><path d="M8024.54 5480.06c2.54-2.93 6.63-11.13 7.56-8.83l12.9-19.01c1.36-2.94 3.57-7.21 4.86-10.66 1.34-3.55 2.65-7.56 3.78-11.5 8.41-29.08 6.5-37.93 6.98-69.04.77-49.05.01-101.25-.22-150.56l-67.75-253.93c68.94 218.66 70.92 302.04 31.89 523.53z" class="fil3"/><path d="M2285.98 5576.15c-29.66-56.46-37.9-33.39-76.71-126.11-18.25-43.62-35.32-96.03-73.55-134.51 39.57 88.12 68.27 210.13 150.26 260.62zM3186.59 6721.59l-47.99-297.02c0 69.98-1.5 237.5 47.99 297.02zM3138.6 6919.71c-15.53-16.3-2.19-7.89-23.95-22.49l-238.12-130.75c45.77 56.32 199.71 127.1 262.07 153.24zM5239.95 2847.41l-276.42-29.91c2.65 2.31 6.21 3.04 7.54 7.4 1.34 4.36 5.95 5.99 7.91 7.03 54.38 28.9 198.25 15.48 260.97 15.48z" class="fil2"/><path d="M3442.78 5315.53h39.8c-26.83 40.17-18 13.86-29.85 63.35l90.17-122.36c-55.19 4.87-67.59 15.09-100.12 59.01z" class="fil1"/><path d="M2106.48 5247.56c-59.5-142.8-87.31-108.85-135.63-185.86-28.43-45.28-.27-33.13-50.55-75.26 39.33 117.4 66.73 84.75 163.12 231.81 10.15 15.44 15.29 20.21 23.06 29.31z" class="fil2"/><path d="M1119.25 4047.26v-233.59c-2.17 3.72-5.79 4.59-6.48 11.18-.02.12-39.08 145.21 6.48 222.41z" class="fil4"/><path d="m1149.16 4662.74 71.01-47.1-130.85-51.26c2.67 2.72 6.98 2.94 8.29 7.92 1.31 4.95 6.52 6.15 8.3 7.76 54.38 48.76 41.59 27.41 43.25 82.68z" class="fil1"/><path d="m5778.5 2892.28-276.48-30.53c2.94 2.12 7.25 2.07 8.71 6.47 1.49 4.43 6.97 5.07 9.09 6.09 64.32 30.62 172.66 17.97 258.68 17.97zM3677.1 7173.05c-4.89-58.04-33.48-99.17-3.67-155.97 3.16-6.03 29.62-35.34 40.72-48.44 31.13-36.73 26.64-30.29 37.75-70.57-28.58 35.9-20.7 45.85-49.38 72.93-33.32 31.47-18.69-2.51-53.74 49.77-4.28 55.64 7.4 115.25 28.32 152.28z" class="fil2"/><path d="M3431.95 2847.41c32.28 0 64.43.65 96.6.83 3.86.03 44.08.25 44.65.14 44.87-8.16 20.63 3.85 41.43-23.57 41.38 17.97 36.68 7.1 47.52-5.62l-47.52 5.62c-69.65 6.79-130.77-2.35-182.68 22.6z" class="fil1"/><path d="M1373.54 3615.05c1.64-3.57 4.36-12.65 4.8-10.78l7.97-38.05c1.38-15.76.09-41.75 1.08-60.55 2.26-42.28 6.69-75.97 6.85-119.76-31.73 19.15-13.23-14.07-21.61 44.24-.72 5.03.46 51.44.59 60.15.56 41.57.32 83.16.32 124.75z" class="fil3"/><path d="M1702.62 3303.86c1.66-4.38 3.63-16.04 4.81-13.23 1.11 2.63 3.82-9.86 5.35-12.05 17.44-24.98 4.03-9.3 21.75-23.64l6.96 11.31-6.96-11.31c-13.67-35.51-.03-19.33-31.91-51.91-17.73 26.13-20.83-49.06-17.56 48.13 1.68 50.53 16.08 49.68 17.56 52.7z" class="fil1"/><path d="M6083.81 6826.31c-32.35-19.93-55.32-19.49-102.98-19.81-11.4-.07-50.8 1.12-60.75 2.62l-47.7 17.19h211.43zM1974.96 5734.36c-34.82 17.32-49.27 17.85-79.11 1.84l-71.57-61.67c17.05 53.56 46.18 76.48 102.7 99.53l47.98-39.7zM1106.62 4418.03l-62.17-338.12 38.11 299.85c17.03 48.25 10.14 20.81 24.06 38.27zM3138.6 6148.01l12.37-25.78c31.13-105.6-12 59.86 7.31-27.26l30.16-166.16c-32.49 38.46-28 63.73-40.17 127.1l-9.67 92.1zM6921.4 7649.02c46-31.7 109.16-181.3 121.32-231l-65.28 121.71c-22.69 43.6-37.32 71.68-56.04 109.29z" class="fil2"/><path d="M1772.06 1590.91c36.32-34.94 86.65-151.37 110.05-201.99-44.97 42.65-90.14 145.81-110.05 201.99z" class="fil1"/><path d="M1130.54 3595.32c15.41-19.49 6.54.51 18.51-29.76 2.11-5.31 12.41-46.76 12.53-47.54 5.21-34.73 2.55-71.14 2.55-106.34-16.82 33.2-15.3 38.06-21.19 86.7-4.01 33.02-7.42 63.62-12.4 96.94zM1864.26 5405.28l-192.94-298.88c-21.31-25.02.47-4.74-28.54-24.21l135.34 203.41c15.21 21.23 12.5 16.02 30.7 44.91l55.44 74.77z" class="fil2"/><path d="m6994.54 2850.68 7.05 83.7c8.94-18.97 17.81 32.14 13.53-41.48-4.01-68.8-4.29-28.6-20.58-42.22l1.73-18.24-27.33-16.46-45.81 1.52c4.63 2.93 11.23 1.68 14.02 8.55 9.21 22.63 14.95 9.13 25.76 13.9 1.51.66 27.99 9.38 31.63 10.73z" class="fil4"/><path d="m2315.91 7893.53-173.34-131.25c-2.86-2.36-6.67-5.49-9.34-7.66l-20.25-15.85c27.21 66.85 42.51 49.2 99.84 88.99 49.06 34.04 50.55 37.93 103.09 65.77z" class="fil3"/><path d="m3183.48 5921.02 44.77-114.01c13.26-38.62 31.5-76.39 46.23-117.52l-13.9 15.33c-7.41 11.21-9.68 14.39-16.38 28.13-19.59 40.26-56.98 133.97-60.72 188.07z" class="fil2"/><path d="M5955.35 2907.25c-49.35-23.59-103.21-16.01-169.13-20.44 19.61 32.04-7.53 10.42 30.9 19.06 6.18 1.38 35.09 2.53 42.63 2.68 29.89.66 64.84-1.3 95.6-1.3z" class="fil1"/><path d="m6145.22 3984.79-47.17-26.69c-3.36-1.36-7.49-2.71-10.92-4.05l-133.34-59.56 49.76 38.4c5.26 3.05 31.85 15.68 39.91 19.43 41.46 19.29 58.6 26.04 101.76 32.47zM2001.78 7541.34c0-35.16.52-47.37-5.42-81.15-.25-1.43-7.76-37.24-7.76-37.28-16.41-60.75 12.99 30.44-6.78-23.37l-10.58-19.77c-.89 58.67 2.1 121.3 30.54 161.57z" class="fil2"/><path d="M3940.01 2817.5c-47.17-28.62-120.32-26.96-167.67 0h167.67z" class="fil4"/><path d="M6908.99 2398.66c31.34-27.84 4.44-127.98-9.68-169.87-.72-2.18-2.83-6.54-4.59-9.63l14.27 179.5z" class="fil2"/><path d="m1184.65 3222.18-6.64 68.06-14.96 65.76c11.87-17.48 8.92 1.73 14.77-30.36 2.44-13.34.63-22.82.19-35.4 32.49-18.32 13.32-43.91 6.64-68.06 39.37-1.32 24.35-26.76 24.35-73.72-2.65 4.41-7.08 4.94-8.13 13.14-1.02 8.16-5.67 9.67-6.9 13.73-6.91 23.04-6.81 22.81-9.32 46.85z" class="fil3"/><path d="m644.87 5717.72 39.45 6.22c-7.95-19.86-5.92-21.13-11.22-37.17l-17.81-44.15c-23.66 31.36 26.98 17.91-23.16 24.34 7.77-26.82 15.16-22.2-9.86-22.2l20.46 44.89c4.59 12.91 7.58-1.89 2.14 28.07z" style="fill:#c1c1c1"/><path d="M964.61 4560.6c-27.97 0-20.55-6.75-20.55 21.96 32.79 0 27.6 8.7 20.55-21.96l113.88 7.02c-48.87-33.36-60.28-33.78-113.88-7.02z" class="fil1"/><path d="m476.04 5111.2 62.17-169.64c-14.52 14.37-8.09 2.53-21.31 24.31l-14.84 30.66c-1.52 3.33-2.9 7.4-4.34 10.83-16.89 40.29-20.68 52.57-21.68 103.84z" class="fil2"/><path d="M3273.23 4492.74c35.91-22.72 159.85-212.02 180.24-254.21l-180.24 254.21z" class="fil3"/><path d="M6279.84 3779.57c36.04-36.64 54.75-80.62 80.94-139.38l-35.9 15.3c-3.45 90.19-18.2 37.74-45.04 124.08zM1702.62 7565.54c-8.87-23.11-7.91-25.6-19.01-48.41l-21.69-38.58c-24.35-46.41-16.29-50.19-53.32-83.83l63.58 133.79c45.2 71.08-33.42-44.45 13.66 18.66 1.61 2.17 6.96 11.61 8.18 9.08 1.27-2.62 5.78 6.15 8.6 9.29zM1867.16 7099.55c19.68-26.71 12.03-15.35 28.14-51.89 10.74-24.36 10.67-26.29 23.66-50.86 20.83-39.44 36.94-63.2 54.63-95.71-23.31 16.17-19.91 6.61-39.93 36.17l-66.5 162.29zM1642.78 1867.12l33.91-141.58-26.31 22.45c-15.49 14.28-7.6 94.63-7.6 119.13z" class="fil2"/><path d="m3333.07 2838.86-176.71 23.51c29.18 0 58.28.71 87.33.87 5.03.03 42.86.56 45.14.14 44.61-8.22 20.88 3.23 44.24-24.52z" class="fil3"/><path d="M4784.03 7442.42h17.08l17-92.58c-2.78 2.88-8.13 2.37-9.37 7.48-1.2 4.96-7.47 6.16-8.92 7.49-22.22 20.21-15.79 10.58-15.79 77.61z" class="fil1"/><path d="m7328.4 4479.72 71.62-4.45c.53-1.48 10.95-45.33 13.55-53.6l-85.17 58.05z" class="fil4"/><path d="m1358.57 3830.8 21.03-190.61c-33.43 19.88-10.66-8.02-19.6 30.94-2.26 9.8-2.26 46.64-2.21 58.4.18 33.73.78 67.44.78 101.27z" class="fil2"/><path d="M5591.77 8002.84c-21.37-42.33 10.71-11.82-30.95-23.07-4.36-1.18-37.29-3.11-43.11-3.27-26.11-.69-59.38 1.59-86.87 1.59l160.93 24.75z" class="fil3"/><path d="M1612.87 7388.11c-10.19-26.66-15.79-45.19-27.03-72.88-8.23-20.32-1.62-10.09-12.82-31.53-17.72-33.94-5.48-16.4-28.39-38.55 9.25 27.8 18.58 56.76 29.52 82.36 4.17 9.77 9.4 22.21 14.7 31.13 11.44 19.31 13.99 18.29 24.02 29.47z" class="fil2"/><path d="m2035.14 4765.28-17.51 12.79c3.43 23.9 8.75 19.38-14.72 14.89l-13.9 16.38c3.18 23.99 8.09 17.53-16.85 17.53l-48.7 99.75 16.22-16.2c29.84-47.25 8.18-37.6 43.27-76.86 26.55-29.68 53.81-45.76 78.66-78.1-21.42 19.87 3.85 1.3-26.47 9.82zM3761.5 6676.74c28.32-32.88 16.41-50.21 35.28-90.18l-39.26 12.95 3.98 77.23z" class="fil1"/><path d="m5487.75 8262.3-150.28-23.23c17.74 32.99-17.74 18.87 58.66 25 20.19 1.63 67.77-1.77 91.62-1.77z" class="fil2"/><path d="M1792.36 3842.62c-3.73-43.74-11.22-114.99-36.82-142.59 3.12 27.91 5.14 42.37 10.77 70.09 1.05 5.16 6.66 31.51 8.29 36.25 15.12 43.78 9.13 21.66 17.76 36.25zM4948.56 3266.81c-42.05-42.51-65.67-45.85-129.52-77.79l-97.49-42.45 227.01 120.24z" class="fil3"/><path d="m1970.9 7349.84 45.83-181.97c-35.3 44.19-43.25 116.23-45.83 181.97zM6429.43 3420.45c5.92-9.33 5.82-.25 18.15-32.78.4-1.09 9.17-31.34 10.26-35.68 6.89-27.35 12.23-57.74 17.63-85.74l-38.74 95.82c-7.51 32.53-6.06 21.03-7.3 58.38z" class="fil2"/><path d="m2210.54 3830.34 61.06 61.89v-12.7c-1.36-83.35 6.61-21.41-30.41-40.44 28.48-61.02 10.97-9.19-14.96-34.35l20.99 55.78c-15.53-25.99-8.68-13.9-36.68-30.18z" class="fil4"/><path d="m5217.81 7941.54-149.15-76.61c-3.95-1.8-9.64-4.26-14.41-6.5 21.87 25.41-6.89 8.06 38.67 36.32 17.51 10.87 21.5 9.17 43.04 17.19 30.07 11.21 51.16 19.01 81.85 29.6z" class="fil3"/><path d="m1597.91 4572.02-38.74-159.77c-.89-1.96-3.22-6.15-4.9-9.19 1.26 41.91 1.26 50.06 11.17 89.98 3.34 13.43 9.06 34.58 14.34 47.62 13.61 33.58 11.59 21.25 18.13 31.36z" class="fil2"/><path d="M1577.72 5554.86c-22.04-55.29-14.05-18.99 11.76-32.03-5-5.21-48.28-65.08-48.28 2.11 21.62 43.9 1.22 16.94 36.52 29.92z" class="fil4"/><path d="m6025.56 8239.14-155.17 23.16c25.76 0 57.17 2.11 81.76 1.51 4.65-.13 39.89-2.25 42.56-3.06 44.21-13.59 1.75 12.47 30.85-21.61z" class="fil2"/><path d="M7035 7409.68c24.52-19.72 12.42 15.99 35.97-45.39 1.76-4.59 4.96-19.09 6.32-24.18 5.78-21.7 4.14-18.41 10.3-44.51-35.97 45.74-27.65 56.24-52.59 114.08zM3424.62 3999.19c54.59-30.03 84.27-35.25 132.82-99.61-32 18.25-36.87 29.79-64.45 48.34-15.28 10.28-29.01 14.73-39.73 22.35-29.7 21.08-7.32 2.49-28.64 28.92z" class="fil3"/><path d="M1762.45 3689.48c0-30.47 2.31-45.42-4.9-74.69-1.2-4.95-5.92-17.94-7.63-22.02-19.89-47.73 1.43-.07-16.63-27.36 3.04 22.24 4.86 43.14 9.21 64.87 1.01 5.02 3.85 19.98 5.23 24.66 9.1 31.08 8.69 23.32 14.72 34.54z" class="fil2"/><path d="M5053.28 7860.97c-35.71-55.52-20.96-7.72-88.06-94.76-2.07-2.69-4.13-6.49-6.32-9.14l-35.66-33.26c41.4 66.46 74.26 100.31 130.04 137.16z" class="fil3"/><path d="M5798.64 7978.09c-28.29 0-60.7-1.94-88-1.34-5.44.12-39.35 1.73-43.06 2.75-41.53 11.43-4.73-8.19-30.93 19.47l161.99-20.88z" class="fil2"/><path d="m2151.35 3559.82-16.9-69.08c-19.65-51.13-13.11-27.03-33.96-44.99 7.33 20.15 14.21 42.31 20.35 58 3.75 9.61 4.63 14.2 8.66 22.31 27.93 56.41 1.03 5.8 21.85 33.76zM6758.52 4669.03c-16.96-32.62-24.8-42.03-42.06-58.43-2.09-1.98-5.06-5.16-7.28-7.07-2.25-1.92-5.37-4.85-7.81-6.71l-55.05-29.2 18.44 17.81c2.53 2.27 6.24 5.6 8.98 8 2.59 2.26 6.11 5 8.72 7.24l76.06 68.36z" class="fil3"/><path d="M6474.31 3240.59c25.39-41.41 26.16-54.08 33.42-108.97-20 26.2-2.96-20.16-23.44 39.19-13.69 39.64-8.46 22.58-9.98 69.78z" class="fil2"/><path d="M1149.16 5477.61c56.31-13.75 50.49-22.72 75.53-61.08l-56.24 41.15c-3.79 3.81-17.93 18.62-19.29 19.93zm107.19-41.89c-75.21 33.99-21.24 1.78-43.34 38.53 31.89-20.27 27.6-19.98 43.34-38.53z" class="fil4"/><path d="M6638.84 4567.95c-26.5-35.37-36.37-31.78-82.54-50.58l-101.78-39.5 184.32 90.08z" class="fil2"/><path d="M1423.36 5749.31h-64.79l-46.22-59.82c16.06 47.91 21.08 54.75 61.19 80.49l49.82-20.67z" class="fil1"/><path d="M1777.41 5609.35c-26.77-47.67-57.91-109.85-101.18-144.24 10.33 20.34 26.78 46.08 43.05 70.2l58.13 74.04z" class="fil3"/><path d="m3093.73 484.3 137.52-30.21c-20 0-59.03-2.12-77.19.76-31.5 5.02-15.99 2.05-34.27 10.6-18.66 8.75-16.96 12.51-26.06 18.85z" class="fil1"/><path d="m4901.46 2817.5-132.4-21.47c18.16 31.2-10.81 17.88 58.87 23.09 16.08 1.2 54.27-1.62 73.53-1.62z" class="fil3"/><path d="M894.88 4861.65c39.18-27.26 207.04-148.28 236.56-189.34l-236.56 189.34zM4679.31 7498.09l62.72-2.17 34.73-18.94 1.17-22.42c-21.55 15.03-9.5 10.14-44.96 23.37l-53.66 20.16z" class="fil1"/><path d="M2035.14 4765.28c-25.05-4.29-21.31-10.83-17.51 12.79l-14.72 14.89c-23.21-4.73-16.81-8.39-13.9 16.38l-16.85 17.53c24.94 0 20.03 6.46 16.85-17.53l13.9-16.38c23.47 4.49 18.15 9.01 14.72-14.89l17.51-12.79c30.32-8.52 5.05 10.05 26.47-9.82l7.29-8.34c15.11-22.03-18.55-11.98 37.58-28.47l6.73-1.46c-.23-29.79-8.3-25.65 19.03-18.68v-15.35l-97.1 82.12z" class="fil4"/><path d="M1603.42 3939.37c39.29-20.12 14.24 21.29 25.46-44.43 1.13-6.66-1.06-60.6-1.06-72.56l-24.4 116.99zM5370.63 2862.37c-42.86-21.11-51.44-13.67-107.94-16.13 17.87 23.08-21.79 9.65 44.09 16.82 12.39 1.36 49.28-.69 63.85-.69z" class="fil2"/><path d="m1762.45 1356.17 123.44-228.95-113.36 189.27c-7.29 23.74-3.69 14.69-10.08 39.68zM3811.73 7515.33c-2.81-4.1-11.22-15.32-12.94-17.95-1.29-1.96-4.64-6.73-6.2-9.17-1.54-2.44-4.1-6.73-5.78-9.45l-36.32-54.11c11.4 37.15 15.48 88.01 61.24 90.68z" class="fil1"/><path d="M6835.99 3664.63c2.48-3.15 7.12-11.17 8.61-8.4 1.43 2.64 6.89-6.11 8.65-7.58 1.7-1.39 6.1-4.13 8.71-6.71-4.86 57.49 1.89 33.87 15.21 48.66l-15.21-48.66c10.06-34.49 16.08-25.44-20.33-25.44l-5.64 48.13z" class="fil4"/><path d="m1882.53 1381.5 97.4-131.55c1.66-2.84 4.54-7.81 6.89-11.66-29.52 20.23-2.24-9.24-35.44 33.02-7.35 9.36-11.38 19.36-23.55 36.52-22.26 31.34-28.41 35.28-45.3 73.67z" class="fil1"/><path d="M7102.73 6394.48c-3.11-44.38-6.43-18.6 13.73-26.59-28.55-81.16 15.6 18.06-8.89-23.7-19.59-33.48-7.79-13.93-21.09-30.02-2.6 63.39-12.9 37.33 16.25 80.31z" class="fil4"/><path d="M3587.35 4042.76c36.77-27.09 8.78.7 36.5-37.95 7.88-10.99 5.99-12.02 16.8-28.76 17.67-27.34 18.09-23.64 31.43-51.65-9.29 7.73-2.49-1.69-20.14 18.45-1.55 1.77-4.94 5.56-6.64 7.63l-57.95 92.28zM6459.34 7661.26c32.97-24.75 5.57 4.14 29.72-26.97 2.9-3.77 9.36-15.82 11.68-19.95 9.17-16.38 16.36-37.03 23.71-55.07-35.18 33.29-39.31 57.91-65.11 101.99z" class="fil3"/><path d="m1971.86 6895.03 93.15-81.04c18.29-21.9 4.46-3.51 20.57-32.56-3.69 2.49-9.36 1.59-11.13 7.39-12.69 41.71 5.69-6.95-20.28 14.66l-82.31 91.55z" class="fil1"/><path d="m1390.14 3071.78-12.05-59.5-50.88 14.63c37.51 9.56 10.39-3.57 33.07 13.07l29.86 31.8zM5516.97 486.9l-16.34-14.61c-42.17-23.85-46.71-18.2-101.46-18.2l117.8 32.81z" class="fil2"/><path d="M1059.41 3463.5c5.34-10.02 5.23 4.51 13.61-33.23 3.14-14.17 5.52-43.94 7.43-59.33-33.21 19.74-10.99-8.04-19.61 30.83-3.04 13.69-1.43 46.59-1.43 61.73z" class="fil3"/><path d="M3585.78 409.22c-13.94 0-48.78-2.48-59.33-1.59-88.51 7.36-34.45-3.2-58.76 22.4l118.09-20.81z" class="fil2"/><path d="M4514.78 2988.92v-76.02c-10.92 5.83-14.76-13.57-15.96 27.17-2.58 88.44 0 22.99 15.96 48.85z" class="fil4"/><path d="M6194.3 6856.22c-12.32-9.24 6.68-5.78-40.69-24.59-12.37-4.92-39.61-10.02-53.27-13.38 23.5 22.86 1.33 12.05 40.48 25.85 3.92 1.38 8.23 2.03 12.35 3.25l41.13 8.87z" class="fil3"/><path d="M6309.28 6916.06c-31.47-39.49 23.64-3.54-50.07-40.64-22.28-11.22-31.17-12.06-54.15-18.44 2.54 2.03 6.46 2.15 7.61 6.18l82.7 45.65c3.84 1.95 9.33 4.72 13.91 7.25z" class="fil2"/><path d="m3203.85 6945.97 39.78 22.75-15.28-64.55-18.81 34.75c-.83 1.25-3.8 4.7-5.69 7.05z" class="fil1"/><path d="M6878.18 1996.27c0-5.44 1.17-61.38 1.04-62.03-9.04-45.33 4.12-20.16-25.21-44.17l24.17 106.2zM5771.27 3792.5c-2.49-2.7-5.93-10.95-7.12-8.41-14.5 31.47 19.56-.51-70.03-49.8l-22.81-12.48c-3-1.66-8.09-4.47-12.06-6.82 20.88 25.5-.31 6.17 26.74 26.54 2.09 1.56 21.26 13.2 27.85 17.72 39.2 26.82 11.6 17.56 57.43 33.25zM1313.7 4293.35l23.35-99.7c-37.12 19.86-13.6-19.27-24.36 44.45-.65 3.86 1.01 46.68 1.01 55.25z" class="fil3"/><path d="m2211.19 3711.81-19.17-68.26c-1.57-3.01-3.88-6.68-5.56-9.35-11.25-17.95-11.13-13.14-20.9-23.92 5.05 14.77 9.04 30.37 14.95 45.41 19.08 48.67-6.13-8.06 8.81 22.03 10.66 21.39 14.9 24.36 21.87 34.09z" class="fil2"/><path d="m1899.95 3580.37-77.67-148.51c2.32 26.98-3.78 11.8 7.28 37.14 1.61 3.72 8.98 15.67 11.2 19.64l59.19 91.73zM1104.29 3146.16l35.17-119.25c-23.41 27.36-11.34-4.84-26.53 51.57-10.06 37.29-7.35 25.97-8.64 67.68z" class="fil3"/><path d="M6115.31 680.04c-34.22-31.73-49.75-34.88-94.57-46.45 12.27 10.28 3.67 9.68 39.31 26.72 13.99 6.69 39.2 14.15 55.26 19.73z" class="fil2"/><path d="M2974.07 916.8c19.31-6.87 22.12-4.65 40.33-17.33 3.45-2.41 13.3-10.71 16.45-13.7 34.04-32.38-2.33 3.49 22.53-27.8-22.23 11.55-21.35 8.28-42.42 23.55l-36.89 35.28z" class="fil3"/><path d="M3324.3 439.13c-8.18 0-41.32-1.03-49.52 1.62-43.5 14.01-2.86-11.52-31.46 20.5 10.26-.99 35.9-2.74 44.96-5.46 33.13-9.95 24.77-10.02 36.02-16.66z" class="fil2"/><path d="M4589.56 3087.49 4506.9 2997c37.59 57.72 24.57 63.9 82.66 90.49z" class="fil4"/><path d="M3756.74 394.25c-7.93 0-60.89-1.64-65.52-.88-40.37 6.64-23.09-.3-44.03 21.27l109.55-20.39z" class="fil3"/><path d="m1687.66 1634.62 32.95-118.49-27.26 49.2c-8 29.86-5.69 38.2-5.69 69.29z" class="fil2"/><path d="M1538.07 5685.55c19.28-4.47 18.43-3.11 36.32-22.47-30.38 9.85-12.2-14.24-36.32 22.47zm-1.96 33.36c16.91-7.23 24.27-8.93 42.91-19.17 23.31-12.81 21.95-15.04 29.93-20.69-8.14 2.56-30.88 8.02-38.83 12.21-2.86 1.5-7.54 3.71-10.37 5.46l-23.64 22.19z" class="fil4"/><path d="M5651.6 3714.41c-33.08-47.44-35.59-36.3-83.02-59.25 2.98 3.25 7.45 3.74 9.15 9.54l28.02 22.68c17.77 12.03 34.73 20.26 45.85 27.03z" class="fil3"/><path d="M3168.53 781.45c14.4-5.94 26.57-9.65 39.58-17.93 3.65-2.33 14.59-9.97 18.12-12.85 17.63-14.48 13.29-13.07 26.52-27.33l-64.56 36.11c-31 26.59-.42-.54-19.66 22zM3216.71 6841.27l-33.23-104.29c.58 25.43-2.25 29.47 4.64 54.51 1.28 4.62 6.22 18.12 8.17 22.22 12.33 25.87 6.66 11.18 20.42 27.56z" class="fil2"/><path d="M5023.35 411.11c-17.62-23.78 3.9-9.77-31.54-15.62-14.19-2.35-36.39-1.24-50.56-1.24 10.72 5.14-7.71 5.67 36.94 13.61 12.42 2.21 32.21 2.52 45.16 3.25z" class="fil3"/><path d="M5262.69 437.4c-13.33-7.58 8.1-.94-27.55-14.14-2.86-1.06-7.29-3-10.63-4.08l-113.34-9.96 151.52 28.18zM2241.1 3792.61c0-74.52-1.71-30.2-14.94-47.7 0-60.39 4.45-6.35-23.23-29.92l38.17 77.62z" class="fil2"/><path d="M4709.22 3145.91c-2.47-2.01-6.37-8.44-7.47-6.02l-99.54-53.14c41.34 39.59 42.99 38.95 107.01 59.16zM5292.6 3472.46l-235.72-146.39 62.08 41.43c55.18 30.77 87.65 67.57 173.64 104.96zM1116.69 3729.94c29.68 0 17.51-32.22 17.51-66.73-2.05 3.73-5.67 4.58-6.29 11.13-.66 6.68-4.53 8.82-5.27 11.96-5.6 24-4.7 18.45-5.95 43.64z" class="fil3"/><path d="m1912.03 1974.73 119.33-159.44c-18.96 13.97-11.41 6.57-30.87 27.87l-88.46 131.57z" class="fil2"/><path d="M2106.48 7730.06c-14.19-24.2-8.82-19.2-25.35-42.05-30.46-42.12 25.61 27.12-13.01-16.96-14.55-16.61-9.61-9.66-24.01-22.03 10.76 19.35 16.1 30.63 29.01 47.72 27.64 36.57 11.31 15.92 33.36 33.32zM7459.91 4088.94c23.3-17.54 9.33 3.62 15.39-31.18 2.26-13.01 1.2-32.63 1.2-45.99-19.79 37.22-12.97 23.76-16.59 77.17z" class="fil3"/><path d="M6384.56 3560.09c6.8-9.44 11.36-11.93 21.48-32.9 6.63-13.71 7.16-18.27 12-34.26 5.77-19.06 10.17-41.39 14.91-62.15l-48.39 129.31zM3751.9 7414.65c-5.33-22.97-9.48-44.97-17.63-64.75-1.38-3.33-2.84-7.3-4.38-10.41-1.52-3.02-3.44-7.05-5.07-9.77-12.97-21.86-7.31-9.93-21.04-24.75l48.12 109.68z" class="fil2"/><path d="m2510.35 4151.99 62.56-46.09c-46.41-3.07-46.32 19.36-62.56 46.09z" class="fil3"/><path d="M1574.39 5663.08c27.37-19.46 29.72-16.66 30.82-48.39-25.21 19.77-18.31-10.59-30.82 48.39z" class="fil2"/><path d="M6668.77 1194.6c-9.57-23.5-12.19-36.02-25.7-59.63-18.34-31.99-7.6-18-33.98-37.68l59.68 97.31z" class="fil3"/><path d="M2076.57 2950.71c-9.44.26-23.9.1-30.12 1.84-31.47 8.76-22.51 7.2-35.89 14.52 53.85 0 45.18 10.92 66.01-16.36z" class="fil1"/><path d="m4776.76 7476.98-34.73 18.94c60.11 1.34 30.48 7.43 34.73-18.94l24.35-34.56h-17.08l-6.1 12.14-1.17 22.42z" class="fil4"/><path d="m5636.65 8261.9-59.84-1.54c16.55 22.38-25.78 17.58 29.91 14.54 33.52-1.82 12.39.62 29.93-13z" class="fil1"/><path d="M5382.35 458.01c0-31.25-11.91-18.88-51.91-18.88 3.41 2.65 8.02 2.61 10.41 7.72 2.45 5.26 8.58 5.03 11.94 5.99 31.18 8.83-1.89 2.86 29.56 5.17zM6354.65 3631.45c9.73-10.98 11.25-8.54 22.56-29.12 11.41-20.79 5.69-15.81 11.06-36.92-15.74 17.29-8.73-.71-21.42 26.27-14.01 29.8-3.23 4.84-12.2 39.77zM1867.16 4067.09l-47.01-97.81c3.34 11.73 13.19 49.56 17.45 58.67 32.19 69.19 1.17 9.86 29.56 39.14z" class="fil2"/><path d="M3464.67 424.16c-67.65 0-29.98-6.41-41.85 20.75 76-8.17 20.58 2.5 41.85-20.75z" class="fil4"/><path d="M7424.47 4358.19c35.74-20.18 11.56 8.92 20.5-31.41 2.84-12.81 1.62-35.92 1.62-48.96l-22.12 80.37zM4843.85 7235.29l30.26-79.89c-27.56 43.78-30.26-7.27-30.26 79.89z" class="fil2"/><path d="M5053.28 3326.49c-2.32-2.37-5.36-9.89-6.52-7.51-13.38 27.53-3.78-7.52-25.32-20.17l-24.59-11.73c-3.43-1.72-9.23-3.71-13.7-5.89 19.53 22.86-1.9 9.45 26.66 28.08 33.68 21.96 14.83 7.96 43.47 17.22z" class="fil3"/><path d="M1563.51 4208.62c32.46 0 19.44-28.48 19.44-66.45l-19.44 66.45z" class="fil2"/><path d="M7476.5 3526.94c0-52.03 10.6-45.31-15.69-66.25.29 6.56 1.43 27.3 2.19 30.18 8.27 31.39 7.48 23.94 13.5 36.07z" class="fil3"/><path d="M2954.35 5285.62c11.64-8.54 14.03-6.19 28.23-21.59 17.25-18.68 5.85-5.92 21.4-29.65-51.56 30.92-24.86 2.72-49.63 51.24z" class="fil1"/><path d="M1822.28 3956.12c-3.71-38.38.45-19.97-8.76-54.4-1.25-4.72-5.32-18.67-7.01-22.93-11.29-28.25-3.29-10.78-17.39-29.17l33.16 106.5zM6010.59 635.99c-14.96-12.91-1.3-8.88-25.97-20.21-28.02-12.88-6.25-3.51-39.31-12.12 9.47 8.08 9.12 12.49 28.98 21.54 19.22 8.78 16.84 5.85 36.3 10.79z" class="fil2"/><path d="M1644.02 5076.19c-17.45-41.49-66.41-95.41-90.99-119.5l90.99 119.5zM5337.47 7970.62l-109.89-37.4c18.43 13.09-14.26.53 31.8 19.64 10.88 4.51 14.49 4.52 23.32 6.98 10.44 2.92 41.94 7.92 54.77 10.78zM5881.08 7963.14c-76.45 0-33.01-.86-49.99 16.77 49.81-1.22 29.9-.49 49.99-16.77zM2495.41 7964.13c-13.61-17.36 22.33-22.98-26.56-9.13-26.13-35.88 5.27-8.52-41.99-21.78 22.31 15.93-16.49-2.69 33.71 21.37 19.77 9.51 14.77 4.74 34.84 9.54z" class="fil3"/><path d="M2016.73 3148.78v-47.09c-3.39-2.45-10.94-7.49-11.91-3.97-1.16 4.18-2.17.07-15.58-10.97l27.49 62.03z" class="fil2"/><path d="M6863.22 1882.51c0-80.7 7.21-37.68-24.68-52.26l24.68 52.26z" class="fil4"/><path d="m5846.06 3837.94-32.72-28.88c-3.69-2.21-8.23-4.3-11.94-6.35l-27.76-12.93c3.22 3.46 7.79 3.99 9.79 10.25 3.87 12.08 13.83 12.86 20.35 17.08 4.26 2.76 32.26 15.42 42.28 20.83zM1283.79 4365.43c38.37-29.11 18.32 7.62 33.19-52.12-2.79 2.62-7.4 2.35-8.44 7.78-1.08 5.53-6.54 6.48-7.86 8.71-13.8 23.02-5.41 5.79-16.89 35.63zM6519.18 7551.62l36.26-67.15c-26.45 15.53-21.29-24.98-21.29 29.93-24.31 20.28-5.16-9.62-14.97 37.22zM7656 4558.91c-21.09-22.6 4.75-8.47-24.7-24.15-38.69-20.64-.17-5.99-45.47-12.02l70.17 36.17zM2555.23 7981.64c-11.75-23.99 23.83-18.5-35.92-18.5 16.27 21.96-27.98 14.99 35.92 18.5z" class="fil3"/><path d="M7080.56 7290.02c35.37 0 22-2.61 22-47.63l-22 47.63zM2644.98 7997.81c-19.35-30.53 6.94-10.07-30.95-18.27-11.68-2.53-30.75-1.45-43.08-1.45l74.03 19.72z" class="fil2"/><path d="M7250.01 4956.28c19.02-13.43 17.88-8.13 38.69-17.24-3.43-2.39-18.94-42.49-38.69 17.24z" class="fil4"/><path d="M3707.03 3879.46c3.89-3.45 9.88-13.43 11.62-10.37 1.68 2.91 13.73-12.92 18.64-20.28 3.59-5.39 10.14-23.08 12.64-29.12-20.85 20.71 2.91-15.25-21.21 20.19l-14.31 24.79c-2.24 3.8-5.08 9.77-7.38 14.79z" class="fil3"/><path d="m4828.9 7293.73 20.95-48.58c-34.04 0-20.95 5.08-20.95 48.58z" class="fil2"/><path d="m4572.14 2832.44 23.09-14.62c71.38-.92 18.94 5.24 39.21-22.2l-39.21 22.2c-27.65 0-23.09-8.26-23.09 14.62z" class="fil3"/><path d="M1152.48 2982.03c-27.98 0-18.28-5.7-18.28 27.26 27.98 0 18.28 5.71 18.28-27.26zM1672.7 5460.12c-18.27-36.05 11.51-10.96-29.54-39.88 13.26 75.05-5.96 13.18 29.54 39.88z" class="fil4"/><path d="M7446.59 3281.07c0-8.89.94-36.17-1.55-43.66-13.87-41.52 9.98-3.42-19.81-31l21.36 74.66zM7128.69 7080.59c31.05 0 18.74-13.94 18.74-53.76l-18.74 53.76z" class="fil2"/><path d="M1717.57 3432.27c0-8.89.95-37.35-1.5-45.16-12.72-40.55 8.23-4.84-18.96-31.11l20.46 76.27zM7401.72 3067.91c0-8.72.9-33.3-1.68-40.19-16.03-42.79 13.3-.94-21.26-30.72l22.94 70.91z" class="fil3"/><path d="M1326.31 6153.18c-9.86-75.54 2.54-20.07-27.56-43.14 15.46 33.14 1.5 19.49 27.56 43.14z" class="fil2"/><path d="m1645.36 1934.95.25-29.91c-56.53 0-6.06 26.18-.25 29.91z" class="fil1"/><path d="M4439.97 6240.87c-62.17 2.28-19.57-3.54-35.21 17.03 58.78 0 23.46 5.03 35.21-17.03zM1867.16 2034.08c32.81-17.94 12.77 26.83 33.14-39.3-29.47 20.32-18.53 12.2-33.14 39.3zM4917.34 7334.9c9.81-12.39 10-2.81 19.63-25.27 16.79-39.04 5.96-.19 11.59-51.39l-31.22 76.66z" class="fil2"/><path d="M1206.93 3101.69c13.39-17.88 16.79 23.45 17.19-55.14l14.79-18.81c-21.36 0-14.79-4.72-14.79 18.81l-17.19 55.14z" class="fil3"/><path d="M1822.28 5671.01c-2.4-4.38-5.4-16.2-6.78-13.34l-13.46-22.9c-17.14-22.35-8.91-10.49-20.85-20.08 4.88 10.44 4.95 17.73 13.62 29.02 20.58 26.77 2.79 6.77 27.47 27.3z" class="fil2"/><path d="M3291.97 7963.14c-55.61 0-21.98-5.05-33.69 17.34 59.33-2.83 19.17 3.44 33.69-17.34z" class="fil3"/><path d="M5846.06 575.06c-12.7-10.6-2.35-9.89-24.84-19.89-38.89-17.32-.46-5.83-48.71-11.33l73.55 31.22z" class="fil2"/><path d="M3707.03 7287.88c0-70.14 7.1-28.25-25-42.73l25 42.73z" class="fil3"/><path d="M4335.28 6309.59c-27.78 0-19.86-6.43-19.86 23.09 27.77 0 19.86 6.43 19.86-23.09z" class="fil2"/><path d="M1953.87 5554.86c-11.41-72.5 2.65-15.9-26.89-40.45 16.02 34.08-4.81 14.89 26.89 40.45zM6863.22 4686.38l60.83-88.85c-21.15 19.26-13.29 6.62-34.54 39.02-13.31 20.3-16.28 28.82-26.29 49.83zM7431.63 3195.47c0-75.76 5.74-34.54-21.12-48.9l21.12 48.9z" class="fil3"/><path d="M5950.77 3898.89c0-27.24 6.26-19.36-22.89-19.36 0 27.24-6.26 19.36 22.89 19.36zM3240.28 7978.09c-9.03 0-33.59-.9-40.97 1.45-38.57 12.24-5.83-6.57-30.78 18.2l71.75-19.65z" class="fil2"/><path d="m3377.94 5488.61 59.66-83.33c-35.77 31.16-32.68 29.62-59.66 83.33z" class="fil3"/><path d="M3033.91 5203.82c-27.09 0-19.61-6.4-19.61 21.96 27.08 0 19.61 6.39 19.61-21.96z" class="fil1"/><path d="M6894.24 7693.89c26.22-21.23 15.44-13.12 28.82-38.19-32.46 20.09-13.85-30.67-28.82 38.19z" class="fil2"/><path d="M4287.45 6377.56c3.24-2.28 8.18-9.4 9.52-7.09 1.38 2.41 7.05-6.25 8.84-8.62l14.5-23.09c-30.49 15.83-13.26-23.11-32.86 38.8z" class="fil1"/><path d="m1672.7 1706.07 19.32-55.32c-19.59 23.04-19.32-35.71-19.32 55.32z" class="fil3"/><path d="M1245.43 6586.99c0-26.93 6.43-19.65-21.48-19.65 0 26.93-6.43 19.65 21.48 19.65z" class="fil4"/><path d="M4357.18 6287.81c25.55-13.11 18.13-2.3 37.92-31.91-54.58 19.97-23.02 6.61-37.92 31.91z" class="fil1"/><path d="M3692.06 7233.15c0-74.2 5.29-33.59-20.12-47.84l20.12 47.84z" class="fil2"/><path d="M1929.86 5509.99c-8.97-17.26-19.12-39.7-25.19-49.91-3.82-6.41-7.56-13.18-11.98-19.28-11.34-15.65-15.64-18.1-25.53-28.7l62.7 97.89z" class="fil3"/><path d="M3751.9 3742.82c-28.94 0-23.56-8.32-23.56 17.05 28.93 0 23.56 8.3 23.56-17.05z" class="fil4"/><path d="M7685.93 4570.78c0-25.62 5.85-18.13-21.73-18.13 0 25.62-5.85 18.13 21.73 18.13z" class="fil1"/><path d="M5756.31 551.4c-19.98-27.88 33.3-22.52-42.65-22.52l42.65 22.52z" class="fil3"/><path d="M2068.9 4747.12c25.16-12.33 15.69.54 37.58-28.47-56.13 16.49-22.47 6.44-37.58 28.47z" class="fil1"/><path d="M3333.07 5563.33c28.78-28.15 3.58 32.56 26.37-38.39-50.37 33.16-8.04-5.22-26.37 38.39z" class="fil3"/><path d="M3160.7 7993.05c-61.32 0-25.28-6.99-37.04 23.57l37.04-23.57z" class="fil4"/><path d="M1553.03 7239.07c0-28.75 8.5-23.85-15.72-23.85 0 28.74-8.5 23.85 15.72 23.85zM6330.32 6931.02c0-25.37 5.99-18.37-20.55-18.37 0 25.37-6 18.37 20.55 18.37zM1360.34 6213.02c0-27.43 7.75-22.13-16.72-22.13 0 27.43-7.77 22.13 16.72 22.13zM6444.4 4478.63c0-23.99 4.91-15.73-23.27-15.73 0 24-4.91 15.73 23.27 15.73z" class="fil1"/><path d="M4978.47 3282.85c0-24.4 5.27-16.6-22.19-16.6 0 24.39-5.26 16.6 22.19 16.6zM6833.31 1684.11c0-80.92 3.41-29.21-18.62-48.32l18.62 48.32zM1766.37 4029.12l-18.87-47.63c0 80.72-3.75 28.28 18.87 47.63zM6713.65 1284.58c0-27.79 8.03-22.74-16.08-22.74 0 27.77-8.04 22.74 16.08 22.74z" class="fil2"/><path d="M1579.91 4073.99c20.54-18.44 18 30.87 18-49.64l-18 49.64zM5831.09 5595.94c-30.59-48.25 1.24-9.84-36.73-26.13 21.51 22.12-23.48 4.59 36.73 26.13zM7114.3 7155.4c21.19-18.84 18.17 31.89 18.17-48.5l-18.17 48.5zM1374.52 6287.81c-23.65 0-15.95-5.04-15.95 21.87 23.66 0 15.95 5.04 15.95-21.87z" class="fil3"/><path d="m6915.23 3864.57-22.1-35.69c0 59.47-6.5 23.95 22.1 35.69z" class="fil4"/><path d="M3527.53 4125.35c27.74-21.34 5.64 1.29 26.78-25.47 2.78-3.52 9.31-15.23 11.65-18.85 3.3-5.13 15.49-26.44 22.47-36.96l-60.9 81.28z" class="fil3"/><path d="M2046.66 7640.26c-1.87-4.24-4.22-15.5-5.41-12.79-1.13 2.56-4.17-9.62-5.7-11.93-13.7-20.67-7.51-12.42-21.15-26.36 7.45 24.03 3.64 14.59 14.91 33.8 1.32 2.24 7.1 11.38 8.18 8.97 1.09-2.43 6.18 5.48 9.17 8.31z" class="fil2"/><path d="M3766.85 3789.53c19.26 0 13.5 3.11 9.59-19.41-.38-2.23-2.24-8.66-2.81-10.92-.67-2.69-3.92-8.09-6.78-11.52v41.85z" class="fil4"/><path d="M2166.32 3602.07c0-26.51 7.68-21.7-15.28-21.7 0 26.5-7.69 21.7 15.28 21.7zM3334.55 5569.81c-23.48 0-16.45-5.26-16.45 20.3 23.48 0 16.45 5.28 16.45-20.3zM1089.32 3246.85l16.61-55.41c-12.17 16.68-16.61-18.88-16.61 55.41zM6941.13 4044.07l-18.07-44.46c0 77.37-3.8 24.92 18.07 44.46z" class="fil3"/><path d="M5591.77 500.82c-17.98-18.72 29.65-16.82-47.57-16.82l47.57 16.82zM4813.94 7344.12l18.53-39.15c-24.19 11.83-18.53-24.88-18.53 39.15zM2016.73 7579.53c0-25.24 7.08-20.26-15.64-20.26 0 25.23-7.08 20.26 15.64 20.26z" class="fil2"/><path d="M6893.13 2125.4c0-66.2 5.44-28.98-17.53-40.87l17.53 40.87z" class="fil4"/><path d="M6698.68 1254.35c-1.71-4.58-3.74-16.59-4.96-13.8-1.13 2.62-3.82-10.17-5.36-12.63-13.23-20.99-7.03-12.54-20.75-25.92 9.61 27.33 2.49 10.57 14.99 32.77 1.33 2.34 6.58 12.32 7.65 9.9 1.08-2.48 5.69 6.41 8.43 9.68z" class="fil3"/><path d="m1074.38 3317.52 15.98-51.27c-15.31 15.45-15.98-19-15.98 51.27z" class="fil2"/><path d="M3303.23 5629.65c-22.3 0-15.04-4.75-15.04 20.64 22.31 0 15.04 4.73 15.04-20.64z" class="fil3"/><path d="M682.07 5360.4c22.53-19.84 18.34 32.84 18.34-41.91l-18.34 41.91z" class="fil2"/><path d="M5397.31 7981.06c-19.72-21.87 32.81-17.92-42.65-17.92l42.65 17.92z" class="fil3"/><path d="M1912.99 3610.28c0-24.56 6.73-19.43-15.92-19.43 0 24.54-6.71 19.43 15.92 19.43zM1597.91 5335.24c0-24.71 6.85-19.71-15.65-19.71 0 24.71-6.86 19.71 15.65 19.71zM2704.82 8009.04c-16.66-16.5 26-15.99-47.9-15.99l47.9 15.99z" class="fil2"/><path d="M6758.52 4025.09c-22.65 0-16.11-5.21-16.11 18.98 22.63 0 16.11 5.21 16.11-18.98zM1777.32 4059.03c0-24.68 7.01-19.98-14.87-19.98 0 24.68-7.02 19.98 14.87 19.98z" class="fil3"/><path d="M5651.6 517.78c-11.77-24.4 23.85-18.81-35.98-18.81l35.98 18.81z" class="fil2"/><path d="M6848.25 1784.72c0-75.26 2.56-25.55-16.27-44.22l16.27 44.22z" class="fil3"/><path d="M4947.47 7245.15c11.11-12.94 9.31-2.87 19.7-25.45 18.44-40.14 1.99-.07 11.3-37.08l-31 62.53zM6758.52 1401.22c0-58.07 5.58-22.95-19.1-34.68l19.1 34.68z" class="fil2"/><path d="m1717.57 1505.19 19.33-33.94c-24.95 11.71-19.33-23.13-19.33 33.94zM6923.06 4583.55l21.29-30.9c-27.35 11.66-21.29-21.99-21.29 30.9z" class="fil3"/><path d="M3288.26 5659.56c-21.45 0-15.03-4.8-15.03 18.55 21.46 0 15.03 4.81 15.03-18.55z" class="fil2"/><path d="M1597.91 3999.19c14.45-15.58 14.96 9.03 14.96-51.29l-14.96 51.29z" class="fil1"/><path d="M5890.93 593.56c-11.66-25.48 22.32-19.81-31.73-19.81l31.73 19.81zM7416.68 3126.52c0-71.82 3.78-20-16.85-39.77l16.85 39.77z" class="fil3"/><path d="M5935.81 607.87c-11.68-24.66 22.61-19.15-32.54-19.15l32.54 19.15zM1972.14 3729.94c0-22.45 5.99-17.51-15.23-17.51 0 22.46-5.99 17.51 15.23 17.51zM6938 4542.04l17.93-34.26c-23.16 11.73-17.93-23.23-17.93 34.26z" class="fil2"/><path d="m1752 3954.32-19.47-31.81c0 54.15-5.56 20.15 19.47 31.81z" class="fil3"/><path d="m1375.83 6257.9-17.26-35.21c0 58.76-5.09 23.46 17.26 35.21z" class="fil1"/><path d="M6803.4 1551.34c0-58.78 5.03-23.47-17.11-35.21l17.11 35.21zM6743.56 1357.84c-11.72-49.43 3.62-24.15-25.99-51.12l25.99 51.12z" class="fil2"/><path d="M3452.73 4237.8c3.51-3.44 7.84-7.66 10.26-10.61l17.31-20.99c1.31-1.79 14.02-23.45 17.74-29.21 14.17-21.83 17.41-24.08 28.25-43.18l-73.56 103.99zM1732.53 3508.78c0-55.95 5.09-21.43-17.59-33.12l17.59 33.12z" class="fil3"/><path d="M1732.53 7619.99c-15.44-50.77 12.72-10.21-29.98-45.77l29.98 45.77zM7386.75 2987.07c0-57.67 4.9-23.22-16.61-34.95l16.61 34.95z" class="fil2"/><path d="M1642.78 5406.76c-21.34-47.1-17.43-37.68-42.57-61.32l42.57 61.32z" class="fil3"/><path d="m4534.07 6257.9-34.26-16.82c11.73 21.75-23.21 16.82 34.26 16.82z" class="fil2"/><path d="m6549.09 7456.29 18.34-31.64c-23.57 11.66-18.34-22.28-18.34 31.64z" class="fil3"/><path d="M7102.08 7230.18c20-11.75 15.42 23.36 15.42-36.85l-15.42 36.85z" class="fil1"/><path d="M2409.58 3969.28c-56.91 0-22.12-4.88-33.85 16.68l33.85-16.68z" class="fil2"/><path d="M7566.25 4524.95c-11.68-22.1 22.53-17.17-32.29-17.17l32.29 17.17zM4011.45 2892.28l-20.23-28.02c0 48.89-5.6 16.43 20.23 28.02zM1939.4 7649.02l-27.37-48.25c15.34 53.6-10.4 13.14 27.37 48.25z" class="fil3"/><path d="m1899.49 7559.27-17.38-31.85c0 54.2-4.97 20.17 17.38 31.85z" class="fil2"/><path d="M7461.55 3375.46c0-56.9 4.63-22.72-15.95-34.43l15.95 34.43zM3108.69 822.95l56.06-39.79c-29.66 15.04-17.91 5.46-36.89 19.72-27.05 20.32-8.87 7.37-19.17 20.07zM6771.42 3954.32c21.87-11.66 17.01 22.33 17.01-31.81l-17.01 31.81zM1821.79 3415.82l-29.43-45.28c13.07 43.25 1.82 22.7 29.43 45.28zM6567.01 7275.06l-17.92-29.84c0 51.41-5.01 18.21 17.92 29.84z" class="fil3"/><path d="M2420.6 7935.92c-11.62-22.62 21.73-17.65-30.17-17.65l30.17 17.65zM1884.46 7514.4l-17.3-30.62c0 52.49-4.89 18.97 17.3 30.62z" class="fil2"/><path d="M6818.34 1625.03c0-56.29 4.31-22.46-15.12-34.12l15.12 34.12zM6552.87 7215.22l-18.72-28.18c0 49.11-5.2 16.61 18.72 28.18zM2375.73 7919.75c-2.37-2.31-5.57-9.47-7.05-7.01-1.68 2.76-6.34-5.62-8.67-6.84-17.07-8.87-13.24-7.19-41.31-17.56l57.03 31.41zM5920.84 7963.39l86.31-30.17-78.48 23.81c-1.69 1.11-5.1 4.38-7.83 6.36z" class="fil3"/><path d="M1371.84 6480.14c24.59-18.41 14.96-18.61 30.99-9.51l-30.99 9.51z" class="fil4"/><path d="m2136.41 5305.6-22.14-43.18c-1.22-1.59-5.28-4.38-7.79-6.73l29.93 49.91zM3227.87 6871.18l-14.46-18.34z" class="fil2"/><path d="m3063.82 853.36 32.63-25.32zM3317.7 5599.74l-14.54 19.65zM5950.77 5658.57l-17.43-13.96zM1790.64 3356l-13.23-15.78zM1568 4233.51l-13.32 19.98zM5561.85 3653.6l-262.84-177.94z" class="fil3"/><path d="m5920.84 3879.05-21.28-14.48zM5696.47 529.16l-32.26-15.25zM1926.36 3640.19l-14.33-20.81zM6533.17 7170.34l-13.99-19.5zM1941.73 3670.12l-14.75-18.13z" class="fil2"/><path d="m6788.43 1501.5-28.85-75.12z" class="fil3"/><path d="m6205.06 722.78-80.18-44.31zM1911.13 7589.18l-14.06-20.74z" class="fil2"/><path d="m1542.03 2847.41-18.91 14.22zM3183.48 6945.07l-15.85-14.05z" class="fil3"/><path d="m1955.94 3700.03-14-18.34zM1732.53 1445.67l36.66-79.13z" class="fil2"/></g></g></svg>