<svg xmlns="http://www.w3.org/2000/svg" xml:space="preserve" width="320" height="320" style="shape-rendering:geometricPrecision;text-rendering:geometricPrecision;image-rendering:optimizeQuality;fill-rule:evenodd;clip-rule:evenodd" viewBox="0 0 8466.66 8466.66"><defs><style>.fil0{fill:#fff}</style></defs><g id="Camada_x0020_1"><g id="_1750912870672"><path d="m2986.88 3852.48 926-118.19c-9.54 26.11-5.1 15.39-18.81 37.22-5.06 8.06-11.13 17.16-18.3 28.01-14.21 21.47-25.13 37.66-37.17 56.23L3014.34 5107.9c-50.75 77.63-98.87 153.15-148.3 226.53-26.41 39.2-49.07 72.46-75.03 112.52-24.69 38.04-56.94 81.66-76.85 122.83l918-124.74c-11.68 33-26.82 49.48-48.63 84.11l-340.72 541.32c-259 406.74-519.47 841.01-776.54 1237.12-66.43 102.34-131.12 206.72-195.73 311.96-38.43 62.64-176.51 270.75-196.33 316.3l2027.66-2060.37c67.35-68.23 133.34-136.71 198.68-207.23l206.85-206.97c67.98-72.32 125.38-131.92 199.65-206.49 82.11-82.45 141.48-136.64 205.63-207.87 81.79-90.8 375.49-371.3 402.58-415.45l-981.46 69.55c15.11-37.84 1157.73-1457.55 1319.15-1661.73 37.48-47.4 173.64-208.87 190.61-247.26l-1167.93 318.09c9.82-37.05 375.83-665.31 401.79-708.45 210.09-349.12 408.15-710.79 611.36-1060.13l612.56-1068.67c-28.77 12.56-29.05 27.82-52.24 52.23l-728.57 786c-86.45 103.26-263.83 279.23-360.56 388.89l-620.58 675.35c-43.86 43.22-65.73 74.76-105.58 113.1-39.57 38.09-54.74 63.61-101.46 109.11-37.68 36.7-64.96 70.82-106.15 112.67-19.07 19.38-29.26 35.17-46.47 55.04-17.46 20.13-36.86 35.15-54.54 54.57l-569.55 617.34c-113.09 117.59-543.84 605.01-568.76 615.31z" class="fil0"/><path d="m2536.77 6592.06 277.76-452.2-145.43-111.61c-67.87-56.86-204.96-180.39-265.56-249.66-201.58-230.49-379.22-498.15-489.62-814.24-246.33-705.32-178.35-1473.56 209.97-2104.72 95.71-155.55 212.17-307.93 343.27-437.83l136.04-129.48c76.63-72.12 199.2-164.84 298.22-224.91 436.32-264.64 908.36-406.43 1435.55-376.78 67.09 3.77 189.52 24.01 245.26 19.72 30.87-39.16 61.06-69.02 109.05-116.82l333.62-351.2c-58.26-42.03-455.03-102.52-559.55-112.07-1252.59-114.57-2451.89 565.93-2981.13 1698.85-318.23 681.25-387.08 1482.07-125.8 2244.85 190.37 555.68 534.88 1027.44 974.16 1376.59 33.35 26.5 170.57 133.64 204.19 141.51zM5568.48 2093.27c256.54 196.13 318.06 230.88 524.13 472.64 882.66 1035.67 714.19 2653.8-376.05 3495.49-385.79 297.82-891.07 515.65-1509.11 515.65-144.08 0-273.6-25.27-406.36-32.99-36.31 54.21-368.69 363.86-422.89 436.33 131.68 78.73 666.84 115.01 837.05 114.65 1619.54-3.46 2955.88-1343.68 2955.88-3003.2 0-287.82-46.7-564.27-119.8-822.7-113.39-400.9-310.59-754.3-571.99-1074.64-36.86-45.19-71.4-88.82-113.13-128.53-85.91-81.72-129.69-135.59-237.99-230.54-40.88-35.82-224.9-186.06-275.92-204.37-11.1 29.42-45.4 78.83-69.81 116.67-38.12 59.05-205.9 316.76-214.01 345.54z" class="fil0"/></g></g></svg>