<svg xmlns="http://www.w3.org/2000/svg" xml:space="preserve" width="320" height="320" style="shape-rendering:geometricPrecision;text-rendering:geometricPrecision;image-rendering:optimizeQuality;fill-rule:evenodd;clip-rule:evenodd" viewBox="0 0 8466.66 8466.66"><defs><style>.fil0{fill:#fff}</style></defs><g id="Camada_x0020_1"><g id="_1750919304688"><path d="M2041.03 6651.61c-22.61 33.77-48.74 66.01-72.78 101.91 36.35 54.26 41.82 18.71 43.67 101.89-57.75-42.31-62.36-109.01-43.67-189.24 32.7-13.51 23.93-4.21 72.78-14.56zm0 0zm-29.11-232.94-14.56 14.57 14.56-14.57zm14.57-14.54-14.57 14.54 14.57-14.54zm0 0c23.69-35.39 37.02-59.86 72.78-72.81 13.17 26.57 11.23 18.21 14.56 58.24-44.36.98-53.08 6.57-87.34 14.57zm4323.73-3726.86zm14.54-14.57-14.54 14.57 14.54-14.57zm-305.72-276.59zm189.26-14.56zm-3945.22-58.24zm553.21-363.94c43.38 16.18 22.73-31.22 29.11 43.68-17.57-19.41-15.76-18.47-29.11-43.68zm551.17-246.81c53.82 26.72 30.32-3.07 49.71 41.68 14.26 32.88 9.75 38.81-18.57 59.55l-31.14-101.23zm-1104.38 610.75c-99.66-66.73-188.8-197.91-276.59-218.35 8.47 102 76.99 154.78 98.42 236.39 14.97 57.07 11.69 88.67 36.91 137.8 36.56 71.22 51.91 30.79 53.91 120.77-38.28-25.64-81.86-92.95-114.26-133.22-34.7-43.13-75.43-98.84-133.22-114.26 17.35 64.94 43.67 29.76 43.67 247.48-33.44-22.39-29.25-27.82-87.35-29.11 0 77.34 9.79 88.14 14.57 145.57-50.07-33.53-58.69-71.91-116.48-87.35-17.38 37.61-10.33 28.39 0 72.8-46.47-9.85-22.66-14.7-58.22 0 0 72.89 9.54 63.91 19.45 128.24 19.14 124.13-47.66 12.22-4.9 104.68-53.98-14.41-18.81-14.7-72.79-29.11 30.64 131.52 218.6 279.01 232.94 451.3-95.96 0-91.18 21.81-145.59 58.22l-54.99-61.45c-8.83 373.79 142.92 428.54 64.33 535.3-29.58 40.17-24.66 13.15-38.45 64.81-73.8-19.71-59.66-70.55-160.15-72.79 0 127.81 96.38 216.29 112.52 280.55 9.68 38.5 3.96 99.98 3.96 141.63l-116.24 58.7c6.23 77.03 25.19 67.01 58 115.99 34.49-18.24 59.36-33.77 101.91-43.67 22.56 96.82 314.92 648.82 318.51 761.65 1.88 58.8 1.93 39.49-42.49 52.34-4.53 1.31-91.5-3.97-113.32 78.3-7.35 27.74-4.99 66.61 5.31 88.86 16.82 36.27 21.05 34.25 64.91 37.92-2.36 105.71-95.74 242.08-58.22 320.26 46.59-16.87 104.61-115.73 116.46-160.13h29.11c12.43 53.32 13.31 65.63 45.24 100.35 2.02 2.2 5.53 4.78 7.58 6.98 2.03 2.2 5.53 4.8 7.49 7.05 25.81 29.59 15.22 1.48 27.03 45.75-14.99 20.48-141.47 66.3-82.79 183.35 30.32 60.44 15.74 12.34 53.68 64.15-129.25 86.54-131.88 152.34-147.71 245.35-13.98 82.15-135 162.76-143.44 264.17l145.57-87.34c-18.23 68.31-29.9 23.6-50.9 96.39-14.75 51.1 4.34 74.43 21.79 107.41-65.91 5.49-77.33 52.02-131.56 64.31-49.07 11.14-98.87-16.51-101.38 95.83 76.95 1.71 81.14 22.47 114.21 75.07 13.89 22.09 63.83 109.44 69.55 135.47 14.43 65.58-81.05 218.54-96.41 284.43-52.27-13.96-58.77-25.41-70.94-74.62-23.18-93.73 1.51-29.85-45.52-100.07h-101.91c-13.87 59.61-14.54 68.36-14.54 145.58 209.73 140.45 111.4 83 94.36 208.56-29.28 215.75-256.44-21.76-255.84 227.86.36 150.16 117.42 110.64-17.57 272.56-96.93 116.26-152.89 152.35 17.93 150.68l1123.22.55c159.41 1.74 87.36-36.68 85.73-438.37l20.94-343c7.45-51.5 17.56-128.84 21.99-169.33 15.93-145.07-94.7-124.37-157-217.29-141.82-211.53-52.48-311.13 46.61-517.02l126.21-237.75c80.39-155.51 175.75-318.6 288.35-454.11 37.4-44.98 166.67-121.13 221.01-157.51-102.28-152.71-242.36-151.18-129.67-508.17 80.09-253.77 102.26-275.97 129.37-570.33 18.45-200.38-97.09-116.97-88.34-260.49 3.69-60.47 38.03-76.5 73.66-102.67l204.63-144.74c94.16-54.15 272.28-151.75 378.11-160.57-1.93-85.97-18.26-38.1 0-116.45-122.67 0-117.8 21.95-203.83 29.11 83.72-125.01 149.6-40.26 214.56-149.41 49.74-83.58 93.78-146.61 172.53-205.97 102.56-77.32 45.49-83.41 97.56-164.48 41.61-64.79 100.76-164.35 159.75-218.77 118.7-109.48 388.19-95.58 485.39 31.04 181.21 236.06 74.02 429.59 157.77 599.24 13.81 27.98 37.3 55.85 51.29 79.73 61.9 105.68 51.71 144.89 166.67 211.84l503.49 268.08c-20.32 87.25-95.5 160.53-160.13 203.81 22.04 94.65 22.02 203.63 37.55 311.84 14.41 100.36 21.12 224.85 20.72 328.67-1.15 312.53-.5 372.84-131.06 567.81 51.23 24.57 90.88 24.11 145.45 58.34 124.73 78.27 182.52 246.69 221.64 389.82 86.23 315.66 100.45 320.13 128.58 701.61 5.59 75.77 19.24 96.2-6.67 168.66-7.64 21.35-21.89 51.49-32.9 69.38-95.15 154.82-49.27 213.84-75.46 448.62-7.38 66.15 2.97 129.58-7.48 196.33-8.19 52.15-43.88 108.1-49.4 154.25-4.3 35.93 79.78 278.14 98.42 316.96l1426.73.05c120.93.64 218.39 27.79 136.7-76.84l-185.17-253.29c-36.14-42.9-38.88-29.4-53.47-92.1 63.32 1.41 79.4 14.55 160.13 14.55 31.17-64.96 47.16-196.48-59.1-198.89-58.89-1.32-60.75 33.63-144.4 25.43-102.38-10.04-283.93-303.57-291.48-394.3h58.24c-26.88-40.12-63.57-73.22-116.46-87.35 4.64-55.92 35.26-123.59 57.12-161.23 39.29-67.63-4.94-17.94 53.04-48.87 77.47-41.32 126.97-127.51 61.61-208.96-52.48-65.41-66.97-67.82-157.22-46.79 38.75-52.89 159.53-116.96 69.67-214.93-80.18-87.42-192.05-5.38-200.7 98.47-42.48-28.46-51.34-61.68-81.36-107.89-31.85-49.06-52.55-75.49-78.77-125.04 29.68-34.13 49.43-60.56 101.91-72.79 0-140.2.55-223.72-58.24-334.83h-116.45c48.24-72.06 105.31-127.72 145.57-203.82-92.12 7.67-182.11 123.58-276.6 145.59-59.21-254.17 143.05-62.42 247.48-218.37-131.65-88.16-81.76 50.87-232.93-29.11 4.9-58.95 39.7-131.35 60.44-187.06 22.04-59.2 47.18-125.85 72.66-189.38 72.72-181.37 183.49-346.83 214.93-542.1 6.14-38.17-3.74-14.03 11.04-47.38 61.54-138.97 6.04 21.68 28.08-45.47 34.84-106.14-53.73-21.28 96.21-266.79 27.9-45.7 68.36-125.58 69.86-192.2-77.52 6.45-67.49 25.44-116.48 58.24 13.6-50.95 59.61-103.89 87.54-145.39 30.23-44.9 64.36-103.57 79.8-171.04 41.16-179.82-175.7 74.42-211.01 98.06 20.42-87.69 77.75-130.64 116.47-203.8-79.83 0-80.23 16.78-131.02 43.67 5.42-65.1 44.52-180.75 68.5-237.22 28.22-66.4 75.25-146.63 77.07-228.65-99.11 23.09-45.08 39.57-116.46 87.35 6.48-77.98 36.49-111.73 36.2-184.45-.25-53.52-7.79-49.07 80.26-150.38-32.77-44.72 9.39-23.49-58.22-29.11 11.83-50.81 69.02-179.92-72.54-88.1-53.33 34.57-109.74 97.85-160.4 131.77 17.15-73.57 51.97-113.82 58.24-189.26l-57.67 16.34c39.03-76.62 128.2-177.52 130.46-278.38-54.77-25.33-46.15-2.13-77.76-24.19-77.85-54.34 50.45 10.62-24.15-19.48-43.82 38.08-82.59 84.03-131.03 116.45 21.93-94.05 104.22-113.55 145.59-291.15-73.58 1.63-101.6 28.78-145.59 58.24 18.85-80.9 65.1-82.19 72.8-174.7-58.96 4.9-64.17 21.86-95.87 65.27-69.43 95.09-15.53 15.19-93.39 51.19 20.29-87.09 65.57-131.47 72.79-218.37-72.18 6.02-99.59 63.28-141.94 105.54-31.66 31.6-97.05 110.49-120.11 127.39 11.66-140.03 130.65-320.9 194.13-446.43 30.16-59.62 53.37-80.42 53.37-165-58.97 4.9-45.12 5.95-73.78 42.67l-107.14 125.82c-60.49 77.41-219.35 282.55-284.95 326.47 14.09-60.46 52.52-140.39 74.65-201.97 24.89-69.31 46.18-129.32 75.12-201.47 31.07-77.46 139.76-337.8 141.41-411.8-156.35 104.69-324.41 467.02-422.2 538.65 20.22-95.47-4.54-67.39 45.64-216.43l201.86-715.29c-100.64 67.38-165.63 208.1-230.15 308.52l-188.07 306.89c-20.27 29.66-4.13 8.58-18.52 25.15 0-287.23 131.02-687.86 131.02-1048.17h-43.67c-15.48 57.94-42.64 66.59-64.4 153.97l-301.33 1008.89c-14.25 48.7-24.18 124.76-56.47 161.9 0-421.3 54.84-751.26 132.14-1134.4 12.8-63.42 21-110.29 32.78-186 15.85-101.89-4.77-97.46-4.77-193.62-101.84 27.18-121.99 225.55-151.05 314.81-40.87 125.54-68.95 230.22-102.27 363.58l-197.98 733.74c0-312.36 64.1-882.44 106.23-1204.01 6.5-49.73 9.14-137.44 18.84-199.9 13.84-89.06-8.61-127.4-8.61-212.03h-43.68l-166.37 750.76c-23.61 142.46-45.45 258.47-68.43 397.44-21.77 131.66-97.69 260.61-100.03 365.83h-29.11c-9.28-111.49-28.3-270.13-8.42-401.48l22.94-850.56c-.71-142.45 37.7-284.19-14.52-393.01-70.24 51.44-89.94 223.53-101.41 306.21-53.46 385.64-102.41 758.25-102.41 1164.14-1.96.86-5.81-2.85-6.4-.76-1.51 5.46-35.23-26.8-51.82 44.44h-43.67c-21.75-261.34-42.9-146.52-59.2-377.56-3.82-54.1-20.53-140.64-26.07-192.29-25.02-233.02 8.84-879.96-118.56-973.31-77.05 145.64-29.11 445.18-29.11 655.11v727.91c-63.19-46.3 4.95-26.49-58.24-72.8L3962.69 1731c-12.19-19.22.89 12.64-14.13-29.54l-42.99-364.62c-11.81-154.39-135.35-1113.66-245.81-1152.16-95.52-33.3 35.18 783.85 38.39 806.38 19.48 136.97 37.19 278.86 46.69 419.16 8.92 131.85 28.61 299.03 28.61 437.24l-19.16-23.28c-28.66-19.79 12.69-19.88-53.64-5.83-4.29-51.56-11.51-42.38-19.36-95.57-45.88-309.86-251.58-951.13-360.8-1256.67-19.32-54.01-38.74-139.52-100.26-161.79 0 633.07 189.26 668.8 189.26 1368.45-21.68-24.95-17.4-18.87-31.53-55.82-8.2-21.42-16.84-54.32-24.97-76.94-85.92-239.02-269.68-899.48-423.91-1002.77 0 181.01.31 251.59 45.36 391.4 79.92 248.05 124.67 484.66 161.02 741.55 17.27 121.91 41.1 270.5 41.1 410.21-10.59-15.27-.62 5.19-15.6-28.07L2825.5 1048.45c-31.35-94.81-126.26-246.23-143.9-321.95h-29.13c-43 184.6 40.05 404.5 92.8 576.88 31.02 101.31 19.82 205.4 38.14 311.25 17.62 101.9 50.17 193.04 58.32 291.07l-32.07-40.72c-11.67-17.43-16.95-28.64-27.08-45.72-75.21-126.72-316.33-609.56-435.83-641.46 0 186.6 125.23 429.57 204.77 581.37 22.1 42.19 29.57 51.58 53.22 106.93 33.3 77.99 71.15 141.87 91.4 228.86-19.6-14.38-345.45-463.7-421.12-539.7-25.44-25.55-56.04-40.06-88.4-57.19 55.3 237.39 211.77 415.88 320.45 625.81 34.06 65.79 109.07 142.61 72.61 218.56-78.83-57.76-304.39-387.36-417.51-499.64-35.47-35.23-28.12-37.59-92.01-39.01 31.29 134.34 213.56 426.42 232.92 509.52z" class="fil0"/><path d="M3453.17 4759.06c0 94.29 71.51 43.67 363.95 43.67v1455.81c0 88.55-14.56 106.19-14.56 189.26-60.32-1.36-55.51-14.56-87.35-14.56-96.67 0-129.82 48.19-196.19 81.41-73.35 36.71-138.19-6.67-225.99-8.63-80.02 343.5-91.02 597.94-182.02 938.96-59.28 222.22-7.24 160.87-7.24 196.57 0 82.41-48.38 62.82-32.29 135.87 11.37 51.65 39.09 90.37-40.49 111.61 0 122.68 29.11 120.08 29.11 232.93h2241.94c0-88.95 29.11-111.21 29.11-189.26 0-87.88-43.78-85.4-12.11-156.35 23.77-53.23 1.6 21.79 26.67-47.46-46.15-22.14-78.35-15.37-103.83-70.85-43.66-95.06 34.95-117.36 12.7-274.38-30.36-214.31-46.53-496.01-98.13-717.49-68.65-32.94-71.89 7.57-250.88-142.18-136.35-114.07-321.64-134-544.96-242.43-62.56-30.38-69.87-15.14-138.32 3.24-301.86 81.09-201.17 10.9-201.36-302.87l14.56-1179.2c336.98 0 411.31 53.46 378.5-87.34-63.49 0-59.92 11.7-100.98 17.76-179.41 26.48-141.77-8.82-231.25-1.55-218.99 17.83-46.41 16.06-250.85-.89-43.83-3.63-99.76-.85-144.81-.76-188.54.31-232.93-29.03-232.93 29.11zM3860.8 3827.36c37.91 162.8 29.11 24.72 29.11 262.04 42.83-9.99 44.43-14.56 101.91-14.56 0-176.95 52.99-320.28-43.68-320.28-40.23 0-70.34 47.4-87.34 72.8z" class="fil0"/></g></g></svg>