<svg xmlns="http://www.w3.org/2000/svg" xml:space="preserve" width="320" height="320" style="shape-rendering:geometricPrecision;text-rendering:geometricPrecision;image-rendering:optimizeQuality;fill-rule:evenodd;clip-rule:evenodd" viewBox="0 0 8466.66 8466.66"><defs><style>.fil0{fill:#fff}</style></defs><g id="Camada_x0020_1"><g id="_1750914970352"><path d="M3451.5 3552.64c276.2-578.43 801.9-881.37 791.62-1910.32-2.67-267.28-90.93-933.62-221.37-1126.73-8.12 160.04 30.52 403.17 33.45 586.68 3.19 199.31-2.33 389.95-33.25 573.89-62.35 371-181.24 597.23-352.52 855.65-164.26 247.84-332.89 406.15-508.13 714.59-141.06 248.25-299.19 549.05-299.6 905.51-.75 638.82 393.31 1210.13 1095.46 1281.4 729.78 74.05 1235.24-424.24 1239.03-1122.5 1.89-349.52-114.18-712.04-300.28-892.48-535.45-519.09-1379.54-71.77-1260.41 608.62 65.96 376.76 313.08 465.81 719.93 430.97-15.36-13.52-7.86-8.35-31.72-21.61l-91.15-37.6c-467.64-194.24-270.11-620.82-93.77-730.42 508.96-316.27 948.01 474.48 555.83 1032.86-441.88 629.15-1935.97 302.39-1243.12-1148.51z" class="fil0"/><path d="M5459.31 3761.47c-14.01 48.2 8.13 307.89 9.46 390.44 6.06 372.05-82.88 659.55-297.65 945.9-130.17 173.57-247.27 276.43-425.59 415.87-150.14 117.42-334.51 242.89-464.29 362C3792.58 6324.14 3498.83 6973.97 3837 7654c53.6 107.8 87.03 174.36 154.58 258.12 55.96 69.39 149.8 165.84 204.82 207.41-19.36-94.59-68.77-194.35-95.93-301.47-28.29-111.55-49.29-214.73-64.3-331.47-35.56-276.51-42.99-430.66 46.36-681.61 179.68-504.76 821.6-831.69 1167.98-1215.28 395.32-437.77 496.83-1380.63 208.8-1828.23z" class="fil0"/></g></g></svg>