<svg width="255" height="71" viewBox="0 0 255 71" fill="none" xmlns="http://www.w3.org/2000/svg">
<path d="M150.167 32.0833C150.167 33.6953 151.567 35 153.292 35C155.017 35 156.417 33.6953 156.417 32.0833C156.417 30.4733 155.017 29.1667 153.292 29.1667C151.567 29.1667 150.167 30.4733 150.167 32.0833ZM142.875 29.1667C144.6 29.1667 146 30.4714 146 32.0833C146 33.6953 144.6 35 142.875 35C141.15 35 139.75 33.6953 139.75 32.0833C139.75 30.4733 141.15 29.1667 142.875 29.1667ZM140.092 19.4444L135.973 5.83333H171L164.879 19.4444H140.092ZM129.74 0L136.89 23.3333H163.133L161.385 27.2222H133.804L126.567 3.88889H122.548L121 0H129.74Z" fill="#00791B"/>
<path d="M1.652 11.108C1.652 10.6227 1.82933 10.2213 2.184 9.904C2.53867 9.568 2.98667 9.4 3.528 9.4H11.312C12.656 9.4 13.8413 9.67067 14.868 10.212C15.9133 10.7347 16.716 11.4907 17.276 12.48C17.8547 13.4507 18.144 14.58 18.144 15.868C18.144 17.1747 17.864 18.3227 17.304 19.312C16.744 20.2827 15.9507 21.0387 14.924 21.58C13.8973 22.1027 12.6933 22.364 11.312 22.364H5.404V26.48C5.404 27.376 5.07733 28.0667 4.424 28.552C3.78933 29.0187 2.86533 29.252 1.652 29.252V11.108ZM11.312 19.116C12.3013 19.116 13.0667 18.8267 13.608 18.248C14.1493 17.6693 14.42 16.8667 14.42 15.84C14.42 14.832 14.14 14.048 13.58 13.488C13.0387 12.928 12.2827 12.648 11.312 12.648H5.404V19.116H11.312ZM23.6633 29.252C22.7113 29.252 21.8339 29.0653 21.0313 28.692C20.2473 28.3187 19.6126 27.7867 19.1273 27.096C18.6606 26.3867 18.4273 25.5467 18.4273 24.576C18.4273 23.6053 18.6793 22.7653 19.1833 22.056C19.6873 21.328 20.3686 20.7773 21.2273 20.404C22.1046 20.012 23.0659 19.816 24.1113 19.816C24.9699 19.816 25.7353 19.956 26.4073 20.236C27.0979 20.4973 27.7326 20.8987 28.3113 21.44L28.4513 21.3C28.2833 21.132 27.9939 20.88 27.5833 20.544V19.984C27.5833 19.2187 27.3126 18.612 26.7713 18.164C26.2299 17.716 25.4739 17.492 24.5033 17.492C22.7673 17.492 21.4886 18.1267 20.6673 19.396C20.2566 19.2653 19.9113 19.06 19.6313 18.78C19.3513 18.4813 19.2113 18.164 19.2113 17.828C19.2113 17.268 19.4633 16.7547 19.9673 16.288C20.4713 15.8213 21.1526 15.448 22.0113 15.168C22.8699 14.888 23.8033 14.748 24.8113 14.748C26.7899 14.748 28.3206 15.2147 29.4033 16.148C30.4859 17.0627 31.0273 18.3133 31.0273 19.9V26.9C31.0273 27.7213 30.7659 28.3187 30.2433 28.692C29.7206 29.0653 28.8993 29.252 27.7793 29.252V28.104C28.0966 27.7867 28.3113 27.5533 28.4233 27.404L28.3113 27.264C27.6953 27.9173 27.0326 28.412 26.3233 28.748C25.6326 29.084 24.7459 29.252 23.6633 29.252ZM24.5593 26.704C25.5299 26.704 26.2859 26.5173 26.8273 26.144C27.3686 25.7707 27.6393 25.2387 27.6393 24.548C27.6393 23.876 27.3593 23.344 26.7993 22.952C26.2579 22.56 25.5206 22.364 24.5873 22.364C23.7286 22.364 23.0473 22.56 22.5433 22.952C22.0579 23.3253 21.8153 23.8573 21.8153 24.548C21.8153 25.2573 22.0579 25.7987 22.5433 26.172C23.0286 26.5267 23.7006 26.704 24.5593 26.704ZM39.9317 34.852C38.8304 34.852 37.8504 34.6933 36.9917 34.376C36.1331 34.0773 35.4611 33.6667 34.9757 33.144C34.4904 32.6213 34.2477 32.0427 34.2477 31.408C34.2477 30.7733 34.4624 30.3253 34.8917 30.064C35.3397 29.8027 35.9651 29.672 36.7677 29.672C36.8424 30.4373 37.1411 31.0253 37.6637 31.436C38.1864 31.8653 38.9424 32.08 39.9317 32.08C41.0331 32.08 41.8077 31.8093 42.2557 31.268C42.7224 30.7267 42.9557 29.98 42.9557 29.028V28.076C43.2357 27.8707 43.4411 27.6747 43.5717 27.488L43.4597 27.348C42.9744 27.8333 42.3211 28.2253 41.4997 28.524C40.6971 28.8227 39.9411 28.972 39.2317 28.972C38.1864 28.972 37.2531 28.7667 36.4317 28.356C35.6104 27.9267 34.9571 27.3293 34.4717 26.564C34.0051 25.7987 33.7717 24.9307 33.7717 23.96V19.788C33.7717 18.8547 34.0144 18.0053 34.4997 17.24C35.0037 16.456 35.6571 15.8493 36.4597 15.42C37.2811 14.972 38.1584 14.748 39.0917 14.748C40.1184 14.748 40.9864 14.9533 41.6957 15.364C42.4237 15.7747 43.0864 16.3627 43.6837 17.128L43.7957 17.016C43.7024 16.848 43.5251 16.6053 43.2637 16.288C43.2637 15.2613 44.3371 14.748 46.4837 14.748V28.524C46.4837 29.756 46.2037 30.848 45.6437 31.8C45.0837 32.752 44.2997 33.4987 43.2917 34.04C42.3024 34.5813 41.1824 34.852 39.9317 34.852ZM40.1277 25.976C40.9491 25.976 41.6397 25.7707 42.1997 25.36C42.7597 24.9307 43.0397 24.4267 43.0397 23.848V19.872C43.0397 19.2747 42.7597 18.7707 42.1997 18.36C41.6584 17.9493 40.9677 17.744 40.1277 17.744C39.2131 17.744 38.5037 17.94 37.9997 18.332C37.5144 18.724 37.2717 19.284 37.2717 20.012V23.708C37.2717 24.4173 37.5144 24.9773 37.9997 25.388C38.4851 25.78 39.1944 25.976 40.1277 25.976ZM55.0001 29.252C53.7868 29.252 52.6854 29.0373 51.6961 28.608C50.7254 28.16 49.9601 27.544 49.4001 26.76C48.8401 25.976 48.5601 25.0893 48.5601 24.1V20.152C48.5601 19.144 48.8308 18.2293 49.3721 17.408C49.9321 16.5867 50.6974 15.9427 51.6681 15.476C52.6388 14.9907 53.7494 14.748 55.0001 14.748C56.2508 14.748 57.3614 14.9907 58.3321 15.476C59.3214 15.9427 60.0868 16.5867 60.6281 17.408C61.1881 18.2293 61.4681 19.144 61.4681 20.152V24.1C61.4681 25.0893 61.1788 25.976 60.6001 26.76C60.0401 27.544 59.2654 28.16 58.2761 28.608C57.3054 29.0373 56.2134 29.252 55.0001 29.252ZM55.0001 26.256C55.9334 26.256 56.6614 26.0413 57.1841 25.612C57.7254 25.1827 57.9961 24.604 57.9961 23.876V20.32C57.9961 19.5547 57.7254 18.9387 57.1841 18.472C56.6614 17.9867 55.9334 17.744 55.0001 17.744C54.0854 17.744 53.3574 17.9867 52.8161 18.472C52.2748 18.9387 52.0041 19.5547 52.0041 20.32V23.876C52.0041 24.604 52.2748 25.1827 52.8161 25.612C53.3574 26.0413 54.0854 26.256 55.0001 26.256ZM71.8872 29.252C70.2072 29.252 68.7418 29.0467 67.4912 28.636C66.2405 28.2253 65.2792 27.6467 64.6072 26.9C63.9538 26.1347 63.6272 25.248 63.6272 24.24C63.6272 22.7093 64.6632 21.944 66.7352 21.944C66.8098 23.3627 67.2858 24.436 68.1632 25.164C69.0592 25.892 70.3098 26.256 71.9152 26.256C73.2405 26.256 74.2672 26.032 74.9952 25.584C75.7232 25.1173 76.0872 24.4733 76.0872 23.652C76.0872 23.1107 75.9472 22.672 75.6672 22.336C75.3872 21.9813 74.9112 21.6733 74.2392 21.412C73.5672 21.132 72.5872 20.852 71.2992 20.572C69.4698 20.1427 68.0232 19.6667 66.9592 19.144C65.9138 18.6213 65.1578 17.996 64.6912 17.268C64.2245 16.5213 63.9912 15.5973 63.9912 14.496C63.9912 13.432 64.2992 12.4987 64.9152 11.696C65.5498 10.8933 66.4365 10.268 67.5752 9.82C68.7325 9.372 70.0578 9.148 71.5512 9.148C72.9885 9.148 74.2672 9.344 75.3872 9.736C76.5258 10.1093 77.4125 10.6413 78.0472 11.332C78.7005 12.0227 79.0272 12.816 79.0272 13.712C79.0272 15.0933 78.0285 15.812 76.0312 15.868C75.9192 14.58 75.5085 13.6373 74.7992 13.04C74.0898 12.4427 73.0072 12.144 71.5512 12.144C70.3005 12.144 69.3392 12.3493 68.6672 12.76C67.9952 13.1707 67.6592 13.7493 67.6592 14.496C67.6592 15.0187 67.7898 15.4573 68.0512 15.812C68.3125 16.148 68.7512 16.4467 69.3672 16.708C69.9832 16.9507 70.8605 17.2027 71.9992 17.464C73.9218 17.8933 75.4432 18.3787 76.5632 18.92C77.6832 19.4427 78.4952 20.0867 78.9992 20.852C79.5032 21.5987 79.7552 22.5227 79.7552 23.624C79.7552 24.7627 79.4285 25.7613 78.7752 26.62C78.1405 27.46 77.2258 28.1133 76.0312 28.58C74.8552 29.028 73.4738 29.252 71.8872 29.252ZM82.4528 11.836C82.4528 10.9773 82.7514 10.3147 83.3488 9.848C83.9461 9.38133 84.8048 9.148 85.9248 9.148V16.428C85.6821 16.6893 85.4581 16.988 85.2528 17.324L85.4208 17.436C86.7088 15.644 88.3514 14.748 90.3488 14.748C91.3008 14.748 92.1408 14.9627 92.8688 15.392C93.5968 15.8213 94.1568 16.4093 94.5488 17.156C94.9594 17.9027 95.1648 18.7427 95.1648 19.676V27.124C95.1648 27.8707 94.8754 28.412 94.2968 28.748C93.7181 29.084 92.8408 29.252 91.6648 29.252V20.18C91.6648 19.4707 91.4501 18.892 91.0208 18.444C90.6101 17.996 90.0034 17.772 89.2008 17.772C88.2488 17.772 87.4648 18.0707 86.8488 18.668C86.2328 19.2467 85.9248 19.9747 85.9248 20.852V27.124C85.9248 27.8707 85.6354 28.412 85.0568 28.748C84.4781 29.084 83.6101 29.252 82.4528 29.252V11.836ZM103.508 29.252C102.295 29.252 101.193 29.0373 100.204 28.608C99.2332 28.16 98.4679 27.544 97.9079 26.76C97.3479 25.976 97.0679 25.0893 97.0679 24.1V20.152C97.0679 19.144 97.3386 18.2293 97.8799 17.408C98.4399 16.5867 99.2052 15.9427 100.176 15.476C101.147 14.9907 102.257 14.748 103.508 14.748C104.759 14.748 105.869 14.9907 106.84 15.476C107.829 15.9427 108.595 16.5867 109.136 17.408C109.696 18.2293 109.976 19.144 109.976 20.152V24.1C109.976 25.0893 109.687 25.976 109.108 26.76C108.548 27.544 107.773 28.16 106.784 28.608C105.813 29.0373 104.721 29.252 103.508 29.252ZM103.508 26.256C104.441 26.256 105.169 26.0413 105.692 25.612C106.233 25.1827 106.504 24.604 106.504 23.876V20.32C106.504 19.5547 106.233 18.9387 105.692 18.472C105.169 17.9867 104.441 17.744 103.508 17.744C102.593 17.744 101.865 17.9867 101.324 18.472C100.783 18.9387 100.512 19.5547 100.512 20.32V23.876C100.512 24.604 100.783 25.1827 101.324 25.612C101.865 26.0413 102.593 26.256 103.508 26.256ZM112.175 17.156C112.175 16.4653 112.446 15.896 112.987 15.448C113.529 14.9813 114.331 14.748 115.395 14.748V16.26C115.078 16.6893 114.901 16.9413 114.863 17.016L114.975 17.128C115.573 16.344 116.226 15.756 116.935 15.364C117.663 14.9533 118.559 14.748 119.623 14.748C120.65 14.748 121.555 14.9627 122.339 15.392C123.142 15.8027 123.767 16.3907 124.215 17.156C124.663 17.9213 124.887 18.7987 124.887 19.788V24.212C124.887 25.22 124.635 26.1067 124.131 26.872C123.646 27.6373 122.974 28.2253 122.115 28.636C121.257 29.0467 120.286 29.252 119.203 29.252C118.513 29.252 117.794 29.112 117.047 28.832C116.319 28.5333 115.703 28.132 115.199 27.628L115.087 27.768C115.218 27.9547 115.423 28.1507 115.703 28.356V32.5C115.703 34.068 114.527 34.852 112.175 34.852V17.156ZM118.531 26.228C119.446 26.228 120.155 26.032 120.659 25.64C121.163 25.248 121.415 24.6973 121.415 23.988V20.012C121.415 19.284 121.163 18.7333 120.659 18.36C120.174 17.968 119.465 17.772 118.531 17.772C117.691 17.772 117.001 17.9773 116.459 18.388C115.918 18.78 115.647 19.2747 115.647 19.872V24.128C115.647 24.7067 115.909 25.2013 116.431 25.612C116.973 26.0227 117.673 26.228 118.531 26.228Z" fill="#00791B"/>
<path d="M5.886 54.126C5.102 54.126 4.39267 53.9673 3.758 53.65C3.13267 53.3327 2.64267 52.894 2.288 52.334C1.93333 51.774 1.756 51.1393 1.756 50.43V45.46C1.756 45.012 1.91467 44.6713 2.232 44.438C2.54933 44.1953 3.016 44.074 3.632 44.074V50.43C3.632 51.0553 3.83733 51.5547 4.248 51.928C4.65867 52.3013 5.20467 52.488 5.886 52.488C6.56733 52.488 7.11333 52.3013 7.524 51.928C7.93467 51.5547 8.14 51.0553 8.14 50.43V45.46C8.14 45.0027 8.29867 44.6573 8.616 44.424C8.93333 44.1907 9.4 44.074 10.016 44.074V50.43C10.016 51.1393 9.83867 51.774 9.484 52.334C9.12933 52.894 8.63467 53.3327 8 53.65C7.37467 53.9673 6.67 54.126 5.886 54.126ZM11.5877 48.218C11.5877 47.7887 11.7231 47.4573 11.9937 47.224C12.2644 46.9907 12.6751 46.874 13.2257 46.874V47.714C13.0577 47.9193 12.9457 48.0687 12.8897 48.162L12.9877 48.218C13.2771 47.7793 13.5851 47.448 13.9117 47.224C14.2384 46.9907 14.6257 46.874 15.0737 46.874C15.8857 46.874 16.4457 47.2707 16.7537 48.064C16.9871 47.6907 17.2857 47.4013 17.6497 47.196C18.0137 46.9813 18.4244 46.874 18.8817 46.874C19.5164 46.874 20.0204 47.1073 20.3937 47.574C20.7764 48.0313 20.9677 48.6193 20.9677 49.338V53.062C20.9677 53.4353 20.8231 53.706 20.5337 53.874C20.2537 54.042 19.8244 54.126 19.2457 54.126V49.478C19.2457 49.1327 19.1664 48.8573 19.0077 48.652C18.8584 48.4467 18.6251 48.344 18.3077 48.344C17.9717 48.344 17.6871 48.4607 17.4537 48.694C17.2297 48.918 17.1177 49.2727 17.1177 49.758V53.062C17.1177 53.4353 16.9777 53.706 16.6977 53.874C16.4271 54.042 16.0024 54.126 15.4237 54.126V49.478C15.4237 49.1233 15.3491 48.848 15.1997 48.652C15.0504 48.4467 14.8171 48.344 14.4997 48.344C14.1077 48.344 13.8091 48.4793 13.6037 48.75C13.4077 49.0113 13.3097 49.3707 13.3097 49.828V53.062C13.3097 53.4353 13.1651 53.706 12.8757 53.874C12.5957 54.042 12.1664 54.126 11.5877 54.126V48.218ZM26.1346 45.054C26.1346 44.8207 26.2233 44.62 26.4006 44.452C26.5873 44.284 26.8113 44.2 27.0726 44.2H33.3166C33.3166 44.76 33.2186 45.1707 33.0226 45.432C32.8359 45.684 32.5279 45.81 32.0986 45.81H28.0106V48.246H31.7346C31.7346 48.806 31.6366 49.2167 31.4406 49.478C31.2539 49.73 30.9459 49.856 30.5166 49.856H28.0106V52.39H32.3926C32.8126 52.39 33.1159 52.5207 33.3026 52.782C33.4986 53.034 33.5966 53.44 33.5966 54H27.0726C26.8113 54 26.5873 53.9207 26.4006 53.762C26.2233 53.594 26.1346 53.3887 26.1346 53.146V45.054ZM37.334 54.126C36.7274 54.126 36.1907 54.0187 35.724 53.804C35.2574 53.58 34.8934 53.272 34.632 52.88C34.3707 52.488 34.24 52.0447 34.24 51.55V49.59C34.24 49.058 34.3707 48.5867 34.632 48.176C34.8934 47.7653 35.2574 47.448 35.724 47.224C36.1907 46.9907 36.7227 46.874 37.32 46.874C37.88 46.874 38.3747 46.9533 38.804 47.112C39.2427 47.2707 39.5834 47.4947 39.826 47.784C40.0687 48.064 40.19 48.3907 40.19 48.764C40.19 49.0533 40.078 49.2867 39.854 49.464C39.63 49.6413 39.336 49.73 38.972 49.73C38.8694 49.73 38.7947 49.7253 38.748 49.716C38.748 49.3147 38.6174 48.9927 38.356 48.75C38.104 48.5073 37.7727 48.386 37.362 48.386C36.9514 48.386 36.6154 48.5027 36.354 48.736C36.102 48.9693 35.976 49.2773 35.976 49.66V51.424C35.976 51.7787 36.1067 52.068 36.368 52.292C36.6294 52.5067 36.9654 52.614 37.376 52.614C37.7867 52.614 38.1227 52.4927 38.384 52.25C38.6454 51.998 38.776 51.6807 38.776 51.298C38.832 51.2887 38.9114 51.284 39.014 51.284C39.378 51.284 39.672 51.368 39.896 51.536C40.12 51.704 40.232 51.9327 40.232 52.222C40.232 52.5953 40.106 52.9267 39.854 53.216C39.6114 53.496 39.2707 53.72 38.832 53.888C38.3934 54.0467 37.894 54.126 37.334 54.126ZM44.1407 54.126C43.534 54.126 42.9833 54.0187 42.4887 53.804C42.0033 53.58 41.6207 53.272 41.3407 52.88C41.0607 52.488 40.9207 52.0447 40.9207 51.55V49.576C40.9207 49.072 41.056 48.6147 41.3267 48.204C41.6067 47.7933 41.9893 47.4713 42.4747 47.238C42.96 46.9953 43.5153 46.874 44.1407 46.874C44.766 46.874 45.3213 46.9953 45.8067 47.238C46.3013 47.4713 46.684 47.7933 46.9547 48.204C47.2347 48.6147 47.3747 49.072 47.3747 49.576V51.55C47.3747 52.0447 47.23 52.488 46.9407 52.88C46.6607 53.272 46.2733 53.58 45.7787 53.804C45.2933 54.0187 44.7473 54.126 44.1407 54.126ZM44.1407 52.628C44.6073 52.628 44.9713 52.5207 45.2327 52.306C45.5033 52.0913 45.6387 51.802 45.6387 51.438V49.66C45.6387 49.2773 45.5033 48.9693 45.2327 48.736C44.9713 48.4933 44.6073 48.372 44.1407 48.372C43.6833 48.372 43.3193 48.4933 43.0487 48.736C42.778 48.9693 42.6427 49.2773 42.6427 49.66V51.438C42.6427 51.802 42.778 52.0913 43.0487 52.306C43.3193 52.5207 43.6833 52.628 44.1407 52.628ZM48.4744 48.218C48.4744 47.7887 48.6098 47.4573 48.8804 47.224C49.1511 46.9907 49.5618 46.874 50.1124 46.874V47.714C49.9444 47.9193 49.8324 48.0687 49.7764 48.162L49.8744 48.218C50.1638 47.7793 50.4718 47.448 50.7984 47.224C51.1251 46.9907 51.5124 46.874 51.9604 46.874C52.7724 46.874 53.3324 47.2707 53.6404 48.064C53.8738 47.6907 54.1724 47.4013 54.5364 47.196C54.9004 46.9813 55.3111 46.874 55.7684 46.874C56.4031 46.874 56.9071 47.1073 57.2804 47.574C57.6631 48.0313 57.8544 48.6193 57.8544 49.338V53.062C57.8544 53.4353 57.7098 53.706 57.4204 53.874C57.1404 54.042 56.7111 54.126 56.1324 54.126V49.478C56.1324 49.1327 56.0531 48.8573 55.8944 48.652C55.7451 48.4467 55.5118 48.344 55.1944 48.344C54.8584 48.344 54.5738 48.4607 54.3404 48.694C54.1164 48.918 54.0044 49.2727 54.0044 49.758V53.062C54.0044 53.4353 53.8644 53.706 53.5844 53.874C53.3138 54.042 52.8891 54.126 52.3104 54.126V49.478C52.3104 49.1233 52.2358 48.848 52.0864 48.652C51.9371 48.4467 51.7038 48.344 51.3864 48.344C50.9944 48.344 50.6958 48.4793 50.4904 48.75C50.2944 49.0113 50.1964 49.3707 50.1964 49.828V53.062C50.1964 53.4353 50.0518 53.706 49.7624 53.874C49.4824 54.042 49.0531 54.126 48.4744 54.126V48.218ZM59.4119 48.218C59.4119 47.7887 59.5473 47.4573 59.8179 47.224C60.0886 46.9907 60.4993 46.874 61.0499 46.874V47.714C60.8819 47.9193 60.7699 48.0687 60.7139 48.162L60.8119 48.218C61.1013 47.7793 61.4093 47.448 61.7359 47.224C62.0626 46.9907 62.4499 46.874 62.8979 46.874C63.7099 46.874 64.2699 47.2707 64.5779 48.064C64.8113 47.6907 65.1099 47.4013 65.4739 47.196C65.8379 46.9813 66.2486 46.874 66.7059 46.874C67.3406 46.874 67.8446 47.1073 68.2179 47.574C68.6006 48.0313 68.7919 48.6193 68.7919 49.338V53.062C68.7919 53.4353 68.6473 53.706 68.3579 53.874C68.0779 54.042 67.6486 54.126 67.0699 54.126V49.478C67.0699 49.1327 66.9906 48.8573 66.8319 48.652C66.6826 48.4467 66.4493 48.344 66.1319 48.344C65.7959 48.344 65.5113 48.4607 65.2779 48.694C65.0539 48.918 64.9419 49.2727 64.9419 49.758V53.062C64.9419 53.4353 64.8019 53.706 64.5219 53.874C64.2513 54.042 63.8266 54.126 63.2479 54.126V49.478C63.2479 49.1233 63.1733 48.848 63.0239 48.652C62.8746 48.4467 62.6413 48.344 62.3239 48.344C61.9319 48.344 61.6333 48.4793 61.4279 48.75C61.2319 49.0113 61.1339 49.3707 61.1339 49.828V53.062C61.1339 53.4353 60.9893 53.706 60.6999 53.874C60.4199 54.042 59.9906 54.126 59.4119 54.126V48.218ZM73.4014 54.126C72.8228 54.126 72.2954 54.014 71.8194 53.79C71.3434 53.5567 70.9654 53.244 70.6854 52.852C70.4054 52.4507 70.2654 52.0027 70.2654 51.508V49.646C70.2654 49.1233 70.4101 48.652 70.6994 48.232C70.9888 47.812 71.3714 47.4807 71.8474 47.238C72.3328 46.9953 72.8554 46.874 73.4154 46.874C73.9661 46.874 74.4701 46.9907 74.9274 47.224C75.3941 47.448 75.7628 47.7653 76.0334 48.176C76.3041 48.5773 76.4394 49.0393 76.4394 49.562V50.346C76.4394 50.5513 76.3601 50.724 76.2014 50.864C76.0521 51.004 75.8608 51.074 75.6274 51.074H71.9594V51.382C71.9594 51.7833 72.0808 52.11 72.3234 52.362C72.5661 52.614 72.9301 52.74 73.4154 52.74C73.8821 52.74 74.2274 52.6373 74.4514 52.432C74.6848 52.2267 74.8014 51.9607 74.8014 51.634C74.9694 51.6153 75.0861 51.606 75.1514 51.606C75.4968 51.606 75.7674 51.6853 75.9634 51.844C76.1594 51.9933 76.2574 52.208 76.2574 52.488C76.2574 52.7587 76.1314 53.02 75.8794 53.272C75.6274 53.524 75.2821 53.7293 74.8434 53.888C74.4048 54.0467 73.9241 54.126 73.4014 54.126ZM74.8574 49.828V49.562C74.8574 49.17 74.7221 48.8527 74.4514 48.61C74.1808 48.3673 73.8308 48.246 73.4014 48.246C72.9721 48.246 72.6221 48.3673 72.3514 48.61C72.0901 48.8433 71.9594 49.1607 71.9594 49.562V49.828H74.8574ZM81.3849 48.386C80.8343 48.386 80.3863 48.5353 80.0409 48.834C79.6956 49.1233 79.5229 49.4873 79.5229 49.926V53.062C79.5229 53.4353 79.3829 53.706 79.1029 53.874C78.8229 54.042 78.3843 54.126 77.7869 54.126V48.218C77.7869 47.7887 77.9223 47.4573 78.1929 47.224C78.4729 46.9907 78.8929 46.874 79.4529 46.874V47.7C79.3129 47.8587 79.2009 48.0127 79.1169 48.162L79.2009 48.218C79.7889 47.322 80.5263 46.874 81.4129 46.874C81.8143 46.874 82.1176 46.9813 82.3229 47.196C82.5283 47.4013 82.6309 47.6627 82.6309 47.98C82.6309 48.2227 82.5656 48.428 82.4349 48.596C82.1829 48.456 81.8329 48.386 81.3849 48.386ZM86.211 54.126C85.6043 54.126 85.0677 54.0187 84.601 53.804C84.1343 53.58 83.7703 53.272 83.509 52.88C83.2477 52.488 83.117 52.0447 83.117 51.55V49.59C83.117 49.058 83.2477 48.5867 83.509 48.176C83.7703 47.7653 84.1343 47.448 84.601 47.224C85.0677 46.9907 85.5997 46.874 86.197 46.874C86.757 46.874 87.2517 46.9533 87.681 47.112C88.1197 47.2707 88.4603 47.4947 88.703 47.784C88.9457 48.064 89.067 48.3907 89.067 48.764C89.067 49.0533 88.955 49.2867 88.731 49.464C88.507 49.6413 88.213 49.73 87.849 49.73C87.7463 49.73 87.6717 49.7253 87.625 49.716C87.625 49.3147 87.4943 48.9927 87.233 48.75C86.981 48.5073 86.6497 48.386 86.239 48.386C85.8283 48.386 85.4923 48.5027 85.231 48.736C84.979 48.9693 84.853 49.2773 84.853 49.66V51.424C84.853 51.7787 84.9837 52.068 85.245 52.292C85.5063 52.5067 85.8423 52.614 86.253 52.614C86.6637 52.614 86.9997 52.4927 87.261 52.25C87.5223 51.998 87.653 51.6807 87.653 51.298C87.709 51.2887 87.7883 51.284 87.891 51.284C88.255 51.284 88.549 51.368 88.773 51.536C88.997 51.704 89.109 51.9327 89.109 52.222C89.109 52.5953 88.983 52.9267 88.731 53.216C88.4883 53.496 88.1477 53.72 87.709 53.888C87.2703 54.0467 86.771 54.126 86.211 54.126ZM93.4991 54.126C92.9204 54.126 92.3931 54.014 91.9171 53.79C91.4411 53.5567 91.0631 53.244 90.7831 52.852C90.5031 52.4507 90.3631 52.0027 90.3631 51.508V49.646C90.3631 49.1233 90.5078 48.652 90.7971 48.232C91.0864 47.812 91.4691 47.4807 91.9451 47.238C92.4304 46.9953 92.9531 46.874 93.5131 46.874C94.0638 46.874 94.5678 46.9907 95.0251 47.224C95.4918 47.448 95.8604 47.7653 96.1311 48.176C96.4018 48.5773 96.5371 49.0393 96.5371 49.562V50.346C96.5371 50.5513 96.4578 50.724 96.2991 50.864C96.1498 51.004 95.9584 51.074 95.7251 51.074H92.0571V51.382C92.0571 51.7833 92.1784 52.11 92.4211 52.362C92.6638 52.614 93.0278 52.74 93.5131 52.74C93.9798 52.74 94.3251 52.6373 94.5491 52.432C94.7824 52.2267 94.8991 51.9607 94.8991 51.634C95.0671 51.6153 95.1838 51.606 95.2491 51.606C95.5944 51.606 95.8651 51.6853 96.0611 51.844C96.2571 51.9933 96.3551 52.208 96.3551 52.488C96.3551 52.7587 96.2291 53.02 95.9771 53.272C95.7251 53.524 95.3798 53.7293 94.9411 53.888C94.5024 54.0467 94.0218 54.126 93.4991 54.126ZM94.9551 49.828V49.562C94.9551 49.17 94.8198 48.8527 94.5491 48.61C94.2784 48.3673 93.9284 48.246 93.4991 48.246C93.0698 48.246 92.7198 48.3673 92.4491 48.61C92.1878 48.8433 92.0571 49.1607 92.0571 49.562V49.828H94.9551ZM107.668 55.75C107.668 56.534 107.08 56.926 105.904 56.926V53.678C106.044 53.5753 106.147 53.4773 106.212 53.384L106.156 53.314C105.913 53.5567 105.587 53.7527 105.176 53.902C104.765 54.0513 104.387 54.126 104.042 54.126C103.211 54.126 102.549 53.8973 102.054 53.44C101.559 52.9733 101.312 52.3667 101.312 51.62V49.394C101.312 48.9087 101.433 48.4747 101.676 48.092C101.928 47.7093 102.255 47.4107 102.656 47.196C103.067 46.9813 103.505 46.874 103.972 46.874C104.476 46.874 104.91 46.9767 105.274 47.182C105.638 47.3873 105.965 47.6813 106.254 48.064L106.324 48.008C106.296 47.952 106.254 47.8913 106.198 47.826C106.142 47.7607 106.095 47.7 106.058 47.644C106.058 47.1307 106.595 46.874 107.668 46.874V55.75ZM104.49 48.386C104.023 48.386 103.664 48.484 103.412 48.68C103.169 48.8667 103.048 49.142 103.048 49.506V51.494C103.048 51.8487 103.174 52.124 103.426 52.32C103.678 52.516 104.033 52.614 104.49 52.614C104.901 52.614 105.241 52.5113 105.512 52.306C105.792 52.1007 105.932 51.8533 105.932 51.564V49.436C105.932 49.1373 105.797 48.89 105.526 48.694C105.255 48.4887 104.91 48.386 104.49 48.386ZM115.475 52.768C115.475 53.2067 115.335 53.5427 115.055 53.776C114.785 54.0093 114.369 54.126 113.809 54.126V53.286C113.931 53.146 114.043 52.992 114.145 52.824L114.061 52.768C113.464 53.6733 112.661 54.126 111.653 54.126C111.177 54.126 110.748 54.0187 110.365 53.804C109.992 53.58 109.693 53.272 109.469 52.88C109.255 52.488 109.147 52.0447 109.147 51.55V47.938C109.147 47.5553 109.287 47.2847 109.567 47.126C109.857 46.958 110.295 46.874 110.883 46.874V51.424C110.883 51.788 110.995 52.0773 111.219 52.292C111.443 52.5067 111.765 52.614 112.185 52.614C112.652 52.614 113.025 52.4693 113.305 52.18C113.595 51.8813 113.739 51.5127 113.739 51.074V47.938C113.739 47.5553 113.879 47.2847 114.159 47.126C114.439 46.958 114.878 46.874 115.475 46.874V52.768ZM120.173 54.126C119.594 54.126 119.067 54.014 118.591 53.79C118.115 53.5567 117.737 53.244 117.457 52.852C117.177 52.4507 117.037 52.0027 117.037 51.508V49.646C117.037 49.1233 117.182 48.652 117.471 48.232C117.76 47.812 118.143 47.4807 118.619 47.238C119.104 46.9953 119.627 46.874 120.187 46.874C120.738 46.874 121.242 46.9907 121.699 47.224C122.166 47.448 122.534 47.7653 122.805 48.176C123.076 48.5773 123.211 49.0393 123.211 49.562V50.346C123.211 50.5513 123.132 50.724 122.973 50.864C122.824 51.004 122.632 51.074 122.399 51.074H118.731V51.382C118.731 51.7833 118.852 52.11 119.095 52.362C119.338 52.614 119.702 52.74 120.187 52.74C120.654 52.74 120.999 52.6373 121.223 52.432C121.456 52.2267 121.573 51.9607 121.573 51.634C121.741 51.6153 121.858 51.606 121.923 51.606C122.268 51.606 122.539 51.6853 122.735 51.844C122.931 51.9933 123.029 52.208 123.029 52.488C123.029 52.7587 122.903 53.02 122.651 53.272C122.399 53.524 122.054 53.7293 121.615 53.888C121.176 54.0467 120.696 54.126 120.173 54.126ZM121.629 49.828V49.562C121.629 49.17 121.494 48.8527 121.223 48.61C120.952 48.3673 120.602 48.246 120.173 48.246C119.744 48.246 119.394 48.3673 119.123 48.61C118.862 48.8433 118.731 49.1607 118.731 49.562V49.828H121.629ZM128.854 48.302H127.734C127.734 47.854 127.799 47.5273 127.93 47.322C128.06 47.1073 128.261 47 128.532 47H128.854V46.426C128.854 45.754 129.05 45.194 129.442 44.746C129.843 44.298 130.431 44.074 131.206 44.074C131.719 44.074 132.111 44.186 132.382 44.41C132.662 44.6247 132.802 44.872 132.802 45.152C132.802 45.2827 132.774 45.4133 132.718 45.544C132.671 45.6653 132.601 45.768 132.508 45.852C132.181 45.6747 131.84 45.586 131.486 45.586C131.168 45.586 130.94 45.6607 130.8 45.81C130.66 45.95 130.59 46.1787 130.59 46.496V47H132.41C132.41 47.4667 132.321 47.8027 132.144 48.008C131.966 48.204 131.677 48.302 131.276 48.302H130.59V53.062C130.59 53.4353 130.445 53.706 130.156 53.874C129.876 54.042 129.442 54.126 128.854 54.126V48.302ZM135.318 54.126C134.842 54.126 134.403 54.0327 134.002 53.846C133.61 53.6593 133.293 53.3933 133.05 53.048C132.817 52.6933 132.7 52.2733 132.7 51.788C132.7 51.3027 132.826 50.8827 133.078 50.528C133.33 50.164 133.671 49.8887 134.1 49.702C134.539 49.506 135.019 49.408 135.542 49.408C135.971 49.408 136.354 49.478 136.69 49.618C137.035 49.7487 137.353 49.9493 137.642 50.22L137.712 50.15C137.628 50.066 137.483 49.94 137.278 49.772V49.492C137.278 49.1093 137.143 48.806 136.872 48.582C136.601 48.358 136.223 48.246 135.738 48.246C134.87 48.246 134.231 48.5633 133.82 49.198C133.615 49.1327 133.442 49.03 133.302 48.89C133.162 48.7407 133.092 48.582 133.092 48.414C133.092 48.134 133.218 47.8773 133.47 47.644C133.722 47.4107 134.063 47.224 134.492 47.084C134.921 46.944 135.388 46.874 135.892 46.874C136.881 46.874 137.647 47.1073 138.188 47.574C138.729 48.0313 139 48.6567 139 49.45V52.95C139 53.3607 138.869 53.6593 138.608 53.846C138.347 54.0327 137.936 54.126 137.376 54.126V53.552C137.535 53.3933 137.642 53.2767 137.698 53.202L137.642 53.132C137.334 53.4587 137.003 53.706 136.648 53.874C136.303 54.042 135.859 54.126 135.318 54.126ZM135.766 52.852C136.251 52.852 136.629 52.7587 136.9 52.572C137.171 52.3853 137.306 52.1193 137.306 51.774C137.306 51.438 137.166 51.172 136.886 50.976C136.615 50.78 136.247 50.682 135.78 50.682C135.351 50.682 135.01 50.78 134.758 50.976C134.515 51.1627 134.394 51.4287 134.394 51.774C134.394 52.1287 134.515 52.3993 134.758 52.586C135.001 52.7633 135.337 52.852 135.766 52.852ZM143.373 54.126C142.766 54.126 142.23 54.0187 141.763 53.804C141.296 53.58 140.932 53.272 140.671 52.88C140.41 52.488 140.279 52.0447 140.279 51.55V49.59C140.279 49.058 140.41 48.5867 140.671 48.176C140.932 47.7653 141.296 47.448 141.763 47.224C142.23 46.9907 142.762 46.874 143.359 46.874C143.919 46.874 144.414 46.9533 144.843 47.112C145.282 47.2707 145.622 47.4947 145.865 47.784C146.108 48.064 146.229 48.3907 146.229 48.764C146.229 49.0533 146.117 49.2867 145.893 49.464C145.669 49.6413 145.375 49.73 145.011 49.73C144.908 49.73 144.834 49.7253 144.787 49.716C144.787 49.3147 144.656 48.9927 144.395 48.75C144.143 48.5073 143.812 48.386 143.401 48.386C142.99 48.386 142.654 48.5027 142.393 48.736C142.141 48.9693 142.015 49.2773 142.015 49.66V51.424C142.015 51.7787 142.146 52.068 142.407 52.292C142.668 52.5067 143.004 52.614 143.415 52.614C143.826 52.614 144.162 52.4927 144.423 52.25C144.684 51.998 144.815 51.6807 144.815 51.298C144.871 51.2887 144.95 51.284 145.053 51.284C145.417 51.284 145.711 51.368 145.935 51.536C146.159 51.704 146.271 51.9327 146.271 52.222C146.271 52.5953 146.145 52.9267 145.893 53.216C145.65 53.496 145.31 53.72 144.871 53.888C144.432 54.0467 143.933 54.126 143.373 54.126ZM148.771 46.216C148.435 46.216 148.155 46.118 147.931 45.922C147.717 45.7167 147.609 45.4553 147.609 45.138C147.609 44.83 147.717 44.578 147.931 44.382C148.155 44.1767 148.435 44.074 148.771 44.074C149.107 44.074 149.383 44.1767 149.597 44.382C149.821 44.578 149.933 44.83 149.933 45.138C149.933 45.4553 149.821 45.7167 149.597 45.922C149.383 46.118 149.107 46.216 148.771 46.216ZM147.889 47.938C147.889 47.5553 148.034 47.2847 148.323 47.126C148.613 46.958 149.051 46.874 149.639 46.874V53.062C149.639 53.4353 149.495 53.706 149.205 53.874C148.916 54.042 148.477 54.126 147.889 54.126V47.938ZM153.884 54.126C153.109 54.126 152.521 53.9067 152.12 53.468C151.728 53.02 151.532 52.4553 151.532 51.774V45.138C151.532 44.7553 151.672 44.4847 151.952 44.326C152.241 44.158 152.684 44.074 153.282 44.074V51.704C153.282 52.0213 153.352 52.2547 153.492 52.404C153.632 52.544 153.856 52.614 154.164 52.614C154.509 52.614 154.854 52.5253 155.2 52.348C155.293 52.432 155.363 52.5393 155.41 52.67C155.466 52.7913 155.494 52.9173 155.494 53.048C155.494 53.328 155.354 53.58 155.074 53.804C154.794 54.0187 154.397 54.126 153.884 54.126ZM157.863 46.216C157.527 46.216 157.247 46.118 157.023 45.922C156.808 45.7167 156.701 45.4553 156.701 45.138C156.701 44.83 156.808 44.578 157.023 44.382C157.247 44.1767 157.527 44.074 157.863 44.074C158.199 44.074 158.474 44.1767 158.689 44.382C158.913 44.578 159.025 44.83 159.025 45.138C159.025 45.4553 158.913 45.7167 158.689 45.922C158.474 46.118 158.199 46.216 157.863 46.216ZM156.981 47.938C156.981 47.5553 157.126 47.2847 157.415 47.126C157.704 46.958 158.143 46.874 158.731 46.874V53.062C158.731 53.4353 158.586 53.706 158.297 53.874C158.008 54.042 157.569 54.126 156.981 54.126V47.938ZM163.533 54.126C162.777 54.126 162.217 53.9067 161.853 53.468C161.489 53.0293 161.307 52.4647 161.307 51.774V48.302H159.865C159.865 47.8633 159.949 47.5367 160.117 47.322C160.285 47.1073 160.509 47 160.789 47H161.335V45.838C161.335 45.4553 161.475 45.1847 161.755 45.026C162.035 44.858 162.46 44.774 163.029 44.774V47H164.891C164.891 47.4667 164.802 47.8027 164.625 48.008C164.448 48.204 164.163 48.302 163.771 48.302H163.057V51.704C163.057 52.0307 163.118 52.264 163.239 52.404C163.37 52.544 163.589 52.614 163.897 52.614C164.224 52.614 164.55 52.5253 164.877 52.348C164.97 52.432 165.045 52.5393 165.101 52.67C165.157 52.7913 165.185 52.9173 165.185 53.048C165.185 53.328 165.04 53.58 164.751 53.804C164.462 54.0187 164.056 54.126 163.533 54.126ZM168.404 54.126C167.928 54.126 167.489 54.0327 167.088 53.846C166.696 53.6593 166.379 53.3933 166.136 53.048C165.903 52.6933 165.786 52.2733 165.786 51.788C165.786 51.3027 165.912 50.8827 166.164 50.528C166.416 50.164 166.757 49.8887 167.186 49.702C167.625 49.506 168.105 49.408 168.628 49.408C169.057 49.408 169.44 49.478 169.776 49.618C170.121 49.7487 170.439 49.9493 170.728 50.22L170.798 50.15C170.714 50.066 170.569 49.94 170.364 49.772V49.492C170.364 49.1093 170.229 48.806 169.958 48.582C169.687 48.358 169.309 48.246 168.824 48.246C167.956 48.246 167.317 48.5633 166.906 49.198C166.701 49.1327 166.528 49.03 166.388 48.89C166.248 48.7407 166.178 48.582 166.178 48.414C166.178 48.134 166.304 47.8773 166.556 47.644C166.808 47.4107 167.149 47.224 167.578 47.084C168.007 46.944 168.474 46.874 168.978 46.874C169.967 46.874 170.733 47.1073 171.274 47.574C171.815 48.0313 172.086 48.6567 172.086 49.45V52.95C172.086 53.3607 171.955 53.6593 171.694 53.846C171.433 54.0327 171.022 54.126 170.462 54.126V53.552C170.621 53.3933 170.728 53.2767 170.784 53.202L170.728 53.132C170.42 53.4587 170.089 53.706 169.734 53.874C169.389 54.042 168.945 54.126 168.404 54.126ZM168.852 52.852C169.337 52.852 169.715 52.7587 169.986 52.572C170.257 52.3853 170.392 52.1193 170.392 51.774C170.392 51.438 170.252 51.172 169.972 50.976C169.701 50.78 169.333 50.682 168.866 50.682C168.437 50.682 168.096 50.78 167.844 50.976C167.601 51.1627 167.48 51.4287 167.48 51.774C167.48 52.1287 167.601 52.3993 167.844 52.586C168.087 52.7633 168.423 52.852 168.852 52.852ZM180.106 54.126C179.21 54.126 178.486 53.9673 177.936 53.65C177.394 53.3233 177.119 52.8893 177.11 52.348C177.11 52.1147 177.203 51.9187 177.39 51.76C177.586 51.6013 177.894 51.5173 178.314 51.508C178.398 51.9187 178.594 52.236 178.902 52.46C179.21 52.6747 179.583 52.782 180.022 52.782C180.498 52.782 180.871 52.7213 181.142 52.6C181.412 52.4787 181.548 52.2967 181.548 52.054C181.548 51.83 181.436 51.6433 181.212 51.494C180.997 51.3447 180.568 51.1953 179.924 51.046C179.224 50.878 178.678 50.71 178.285 50.542C177.903 50.374 177.618 50.1593 177.432 49.898C177.245 49.6367 177.152 49.2913 177.152 48.862C177.152 48.2647 177.404 47.784 177.908 47.42C178.412 47.056 179.102 46.874 179.98 46.874C180.829 46.874 181.534 47.028 182.094 47.336C182.654 47.6347 182.934 48.036 182.934 48.54C182.934 48.792 182.84 48.9787 182.654 49.1C182.467 49.2213 182.159 49.2867 181.73 49.296C181.636 48.9227 181.459 48.6427 181.198 48.456C180.936 48.2693 180.568 48.176 180.092 48.176C179.737 48.176 179.429 48.2367 179.168 48.358C178.916 48.4793 178.79 48.638 178.79 48.834C178.79 49.0393 178.897 49.198 179.112 49.31C179.326 49.422 179.7 49.534 180.232 49.646C181.277 49.87 182.033 50.1687 182.5 50.542C182.976 50.9153 183.214 51.424 183.214 52.068C183.214 52.6933 182.934 53.1927 182.374 53.566C181.823 53.9393 181.067 54.126 180.106 54.126ZM190.671 52.768C190.671 53.2067 190.531 53.5427 190.251 53.776C189.98 54.0093 189.565 54.126 189.005 54.126V53.286C189.126 53.146 189.238 52.992 189.341 52.824L189.257 52.768C188.659 53.6733 187.857 54.126 186.849 54.126C186.373 54.126 185.943 54.0187 185.561 53.804C185.187 53.58 184.889 53.272 184.665 52.88C184.45 52.488 184.343 52.0447 184.343 51.55V47.938C184.343 47.5553 184.483 47.2847 184.763 47.126C185.052 46.958 185.491 46.874 186.079 46.874V51.424C186.079 51.788 186.191 52.0773 186.415 52.292C186.639 52.5067 186.961 52.614 187.381 52.614C187.847 52.614 188.221 52.4693 188.501 52.18C188.79 51.8813 188.935 51.5127 188.935 51.074V47.938C188.935 47.5553 189.075 47.2847 189.355 47.126C189.635 46.958 190.073 46.874 190.671 46.874V52.768ZM194.64 54.126C194.164 54.126 193.726 54.0327 193.324 53.846C192.932 53.6593 192.615 53.3933 192.372 53.048C192.139 52.6933 192.022 52.2733 192.022 51.788C192.022 51.3027 192.148 50.8827 192.4 50.528C192.652 50.164 192.993 49.8887 193.422 49.702C193.861 49.506 194.342 49.408 194.864 49.408C195.294 49.408 195.676 49.478 196.012 49.618C196.358 49.7487 196.675 49.9493 196.964 50.22L197.034 50.15C196.95 50.066 196.806 49.94 196.6 49.772V49.492C196.6 49.1093 196.465 48.806 196.194 48.582C195.924 48.358 195.546 48.246 195.06 48.246C194.192 48.246 193.553 48.5633 193.142 49.198C192.937 49.1327 192.764 49.03 192.624 48.89C192.484 48.7407 192.414 48.582 192.414 48.414C192.414 48.134 192.54 47.8773 192.792 47.644C193.044 47.4107 193.385 47.224 193.814 47.084C194.244 46.944 194.71 46.874 195.214 46.874C196.204 46.874 196.969 47.1073 197.51 47.574C198.052 48.0313 198.322 48.6567 198.322 49.45V52.95C198.322 53.3607 198.192 53.6593 197.93 53.846C197.669 54.0327 197.258 54.126 196.698 54.126V53.552C196.857 53.3933 196.964 53.2767 197.02 53.202L196.964 53.132C196.656 53.4587 196.325 53.706 195.97 53.874C195.625 54.042 195.182 54.126 194.64 54.126ZM195.088 52.852C195.574 52.852 195.952 52.7587 196.222 52.572C196.493 52.3853 196.628 52.1193 196.628 51.774C196.628 51.438 196.488 51.172 196.208 50.976C195.938 50.78 195.569 50.682 195.102 50.682C194.673 50.682 194.332 50.78 194.08 50.976C193.838 51.1627 193.716 51.4287 193.716 51.774C193.716 52.1287 193.838 52.3993 194.08 52.586C194.323 52.7633 194.659 52.852 195.088 52.852ZM206.65 54.126C206.426 54.126 206.23 54.0747 206.062 53.972C205.903 53.8693 205.791 53.7293 205.726 53.552L203.206 47.014C203.271 46.9767 203.383 46.944 203.542 46.916C203.71 46.888 203.845 46.874 203.948 46.874C204.218 46.874 204.461 46.93 204.676 47.042C204.9 47.154 205.049 47.3173 205.124 47.532L206.566 51.9L206.328 52.558L206.44 52.586L208.176 47.532C208.25 47.3173 208.395 47.154 208.61 47.042C208.834 46.93 209.081 46.874 209.352 46.874C209.454 46.874 209.585 46.888 209.744 46.916C209.912 46.944 210.028 46.9767 210.094 47.014L207.574 53.552C207.508 53.7293 207.392 53.8693 207.224 53.972C207.065 54.0747 206.874 54.126 206.65 54.126ZM212.263 46.216C211.927 46.216 211.647 46.118 211.423 45.922C211.209 45.7167 211.101 45.4553 211.101 45.138C211.101 44.83 211.209 44.578 211.423 44.382C211.647 44.1767 211.927 44.074 212.263 44.074C212.599 44.074 212.875 44.1767 213.089 44.382C213.313 44.578 213.425 44.83 213.425 45.138C213.425 45.4553 213.313 45.7167 213.089 45.922C212.875 46.118 212.599 46.216 212.263 46.216ZM211.381 47.938C211.381 47.5553 211.526 47.2847 211.815 47.126C212.105 46.958 212.543 46.874 213.131 46.874V53.062C213.131 53.4353 212.987 53.706 212.697 53.874C212.408 54.042 211.969 54.126 211.381 54.126V47.938ZM217.656 54.126C217.152 54.126 216.699 54.0187 216.298 53.804C215.897 53.5893 215.579 53.2953 215.346 52.922C215.113 52.5393 214.996 52.1007 214.996 51.606V49.394C214.996 48.9087 215.117 48.4747 215.36 48.092C215.603 47.7093 215.939 47.4107 216.368 47.196C216.807 46.9813 217.292 46.874 217.824 46.874C218.169 46.874 218.524 46.9487 218.888 47.098C219.261 47.238 219.574 47.4293 219.826 47.672L219.882 47.602C219.835 47.5273 219.733 47.434 219.574 47.322V45.25C219.574 44.8767 219.719 44.5873 220.008 44.382C220.307 44.1767 220.755 44.074 221.352 44.074V52.922C221.352 53.2673 221.221 53.5567 220.96 53.79C220.699 54.014 220.293 54.126 219.742 54.126V53.356C219.863 53.2067 219.952 53.0853 220.008 52.992L219.938 52.936C219.649 53.328 219.327 53.6267 218.972 53.832C218.627 54.028 218.188 54.126 217.656 54.126ZM218.174 52.614C218.594 52.614 218.935 52.516 219.196 52.32C219.467 52.1147 219.602 51.858 219.602 51.55V49.436C219.602 49.1373 219.467 48.89 219.196 48.694C218.935 48.4887 218.589 48.386 218.16 48.386C217.703 48.386 217.348 48.484 217.096 48.68C216.853 48.8667 216.732 49.1373 216.732 49.492V51.48C216.732 51.8533 216.853 52.138 217.096 52.334C217.348 52.5207 217.707 52.614 218.174 52.614ZM225.32 54.126C224.844 54.126 224.405 54.0327 224.004 53.846C223.612 53.6593 223.295 53.3933 223.052 53.048C222.819 52.6933 222.702 52.2733 222.702 51.788C222.702 51.3027 222.828 50.8827 223.08 50.528C223.332 50.164 223.673 49.8887 224.102 49.702C224.541 49.506 225.021 49.408 225.544 49.408C225.973 49.408 226.356 49.478 226.692 49.618C227.037 49.7487 227.355 49.9493 227.644 50.22L227.714 50.15C227.63 50.066 227.485 49.94 227.28 49.772V49.492C227.28 49.1093 227.145 48.806 226.874 48.582C226.603 48.358 226.225 48.246 225.74 48.246C224.872 48.246 224.233 48.5633 223.822 49.198C223.617 49.1327 223.444 49.03 223.304 48.89C223.164 48.7407 223.094 48.582 223.094 48.414C223.094 48.134 223.22 47.8773 223.472 47.644C223.724 47.4107 224.065 47.224 224.494 47.084C224.923 46.944 225.39 46.874 225.894 46.874C226.883 46.874 227.649 47.1073 228.19 47.574C228.731 48.0313 229.002 48.6567 229.002 49.45V52.95C229.002 53.3607 228.871 53.6593 228.61 53.846C228.349 54.0327 227.938 54.126 227.378 54.126V53.552C227.537 53.3933 227.644 53.2767 227.7 53.202L227.644 53.132C227.336 53.4587 227.005 53.706 226.65 53.874C226.305 54.042 225.861 54.126 225.32 54.126ZM225.768 52.852C226.253 52.852 226.631 52.7587 226.902 52.572C227.173 52.3853 227.308 52.1193 227.308 51.774C227.308 51.438 227.168 51.172 226.888 50.976C226.617 50.78 226.249 50.682 225.782 50.682C225.353 50.682 225.012 50.78 224.76 50.976C224.517 51.1627 224.396 51.4287 224.396 51.774C224.396 52.1287 224.517 52.3993 224.76 52.586C225.003 52.7633 225.339 52.852 225.768 52.852ZM234.6 45.39C234.6 44.942 234.758 44.6107 235.076 44.396C235.402 44.1813 235.85 44.074 236.42 44.074V49.646C236.42 50.094 236.256 50.4347 235.93 50.668C235.612 50.9013 235.169 51.018 234.6 51.018V45.39ZM235.454 54.126C235.08 54.126 234.772 54.0187 234.53 53.804C234.296 53.58 234.18 53.2953 234.18 52.95C234.18 52.6047 234.296 52.32 234.53 52.096C234.772 51.872 235.08 51.76 235.454 51.76C235.827 51.76 236.13 51.872 236.364 52.096C236.606 52.32 236.728 52.6047 236.728 52.95C236.728 53.2953 236.606 53.58 236.364 53.804C236.13 54.0187 235.827 54.126 235.454 54.126Z" fill="#00791B"/>
</svg>
